<svg xmlns="http://www.w3.org/2000/svg" viewBox="0 0 1400 700" preserveAspectRatio="xMidYMid meet" shape-rendering="geometricPrecision">
<defs>
  <linearGradient id="profileGrad" x1="0%" y1="0%" x2="0%" y2="100%">
    <stop offset="0%" style="stop-color:#5B9A8B"/>
    <stop offset="50%" style="stop-color:#4A8377"/>
    <stop offset="100%" style="stop-color:#3A6B5C"/>
  </linearGradient>
  <linearGradient id="headerGrad" x1="0%" y1="0%" x2="100%" y2="0%">
    <stop offset="0%" style="stop-color:#4A8377;stop-opacity:0"/>
    <stop offset="50%" style="stop-color:#4A8377;stop-opacity:0.3"/>
    <stop offset="100%" style="stop-color:#4A8377;stop-opacity:0"/>
  </linearGradient>
</defs>
<rect width="100%" height="100%" fill="#FAFAFA"/>
<rect x="0" y="58" width="1400" height="1" fill="url(#headerGrad)"/>
<text x="700.0" y="40" font-family="Georgia, Times, serif" font-size="32" font-weight="bold" fill="#3A6B5C" text-anchor="middle" letter-spacing="4">THE GEORGIA JEWEL</text>
<text x="700.0" y="72" font-family="Arial, sans-serif" font-size="11" fill="#7A8A8A" text-anchor="middle" letter-spacing="3">50 MILE ULTRAMARATHON  •  ELEVATION PROFILE</text>
<line x1="70" y1="470.0" x2="1330" y2="470.0" stroke="#E8E8E8" stroke-width="1"/>
<text x="62" y="474.0" font-family="Arial, sans-serif" font-size="10" fill="#7A8A8A" text-anchor="end">600'</text>
<line x1="70" y1="417.1" x2="1330" y2="417.1" stroke="#E8E8E8" stroke-width="1"/>
<text x="62" y="421.1" font-family="Arial, sans-serif" font-size="10" fill="#7A8A8A" text-anchor="end">800'</text>
<line x1="70" y1="364.3" x2="1330" y2="364.3" stroke="#E8E8E8" stroke-width="1"/>
<text x="62" y="368.3" font-family="Arial, sans-serif" font-size="10" fill="#7A8A8A" text-anchor="end">1,000'</text>
<line x1="70" y1="311.4" x2="1330" y2="311.4" stroke="#E8E8E8" stroke-width="1"/>
<text x="62" y="315.4" font-family="Arial, sans-serif" font-size="10" fill="#7A8A8A" text-anchor="end">1,200'</text>
<line x1="70" y1="258.6" x2="1330" y2="258.6" stroke="#E8E8E8" stroke-width="1"/>
<text x="62" y="262.6" font-family="Arial, sans-serif" font-size="10" fill="#7A8A8A" text-anchor="end">1,400'</text>
<line x1="70" y1="205.7" x2="1330" y2="205.7" stroke="#E8E8E8" stroke-width="1"/>
<text x="62" y="209.7" font-family="Arial, sans-serif" font-size="10" fill="#7A8A8A" text-anchor="end">1,600'</text>
<line x1="70" y1="152.9" x2="1330" y2="152.9" stroke="#E8E8E8" stroke-width="1"/>
<text x="62" y="156.9" font-family="Arial, sans-serif" font-size="10" fill="#7A8A8A" text-anchor="end">1,800'</text>
<line x1="70" y1="100.0" x2="1330" y2="100.0" stroke="#E8E8E8" stroke-width="1"/>
<text x="62" y="104.0" font-family="Arial, sans-serif" font-size="10" fill="#7A8A8A" text-anchor="end">2,000'</text>
<line x1="70.0" y1="100" x2="70.0" y2="470" stroke="#E8E8E8" stroke-width="1" stroke-dasharray="3,5"/>
<line x1="196.0" y1="100" x2="196.0" y2="470" stroke="#E8E8E8" stroke-width="1" stroke-dasharray="3,5"/>
<line x1="322.0" y1="100" x2="322.0" y2="470" stroke="#E8E8E8" stroke-width="1" stroke-dasharray="3,5"/>
<line x1="448.0" y1="100" x2="448.0" y2="470" stroke="#E8E8E8" stroke-width="1" stroke-dasharray="3,5"/>
<line x1="574.0" y1="100" x2="574.0" y2="470" stroke="#E8E8E8" stroke-width="1" stroke-dasharray="3,5"/>
<line x1="700.0" y1="100" x2="700.0" y2="470" stroke="#E8E8E8" stroke-width="1" stroke-dasharray="3,5"/>
<line x1="826.0" y1="100" x2="826.0" y2="470" stroke="#E8E8E8" stroke-width="1" stroke-dasharray="3,5"/>
<line x1="952.0" y1="100" x2="952.0" y2="470" stroke="#E8E8E8" stroke-width="1" stroke-dasharray="3,5"/>
<line x1="1078.0" y1="100" x2="1078.0" y2="470" stroke="#E8E8E8" stroke-width="1" stroke-dasharray="3,5"/>
<line x1="1204.0" y1="100" x2="1204.0" y2="470" stroke="#E8E8E8" stroke-width="1" stroke-dasharray="3,5"/>
<line x1="1330.0" y1="100" x2="1330.0" y2="470" stroke="#E8E8E8" stroke-width="1" stroke-dasharray="3,5"/>
<path d="M 70.00 470.00 L 70.00 413.54 L 70.32 412.67 L 70.63 412.67 L 70.95 412.30 L 71.27 411.42 L 71.58 410.80 L 71.90 409.20 L 72.22 408.56 L 72.53 408.70 L 72.85 409.79 L 73.17 410.93 L 73.48 413.47 L 73.80 414.77 L 74.11 416.69 L 74.43 417.55 L 74.75 418.07 L 75.06 418.74 L 75.38 418.74 L 75.70 418.57 L 76.01 417.87 L 76.33 417.87 L 76.65 417.87 L 76.96 417.14 L 77.28 417.00 L 77.60 417.77 L 77.91 417.87 L 78.23 417.87 L 78.55 417.70 L 78.86 417.00 L 79.18 417.31 L 79.50 417.87 L 79.81 417.87 L 80.13 418.74 L 80.45 418.74 L 80.76 418.74 L 81.08 418.74 L 81.40 418.74 L 81.71 418.74 L 82.03 418.95 L 82.34 419.61 L 82.66 419.61 L 82.98 419.61 L 83.29 419.61 L 83.61 419.61 L 83.93 419.61 L 84.24 419.39 L 84.56 418.74 L 84.88 418.74 L 85.19 419.52 L 85.51 419.61 L 85.83 419.61 L 86.14 419.61 L 86.46 419.61 L 86.78 419.61 L 87.09 419.61 L 87.41 419.04 L 87.73 418.74 L 88.04 417.87 L 88.36 416.46 L 88.68 415.27 L 88.99 415.27 L 89.31 415.27 L 89.62 415.27 L 89.94 414.10 L 90.26 413.54 L 90.57 412.67 L 90.89 412.67 L 91.21 412.86 L 91.52 413.54 L 91.84 413.54 L 92.16 413.54 L 92.47 412.67 L 92.79 411.80 L 93.11 412.63 L 93.42 414.50 L 93.74 415.27 L 94.06 415.27 L 94.37 415.63 L 94.69 416.14 L 95.01 415.72 L 95.32 415.63 L 95.64 416.42 L 95.96 417.00 L 96.27 417.00 L 96.59 417.00 L 96.90 416.52 L 97.22 415.27 L 97.54 414.40 L 97.85 413.67 L 98.17 412.49 L 98.49 411.80 L 98.80 411.80 L 99.12 411.80 L 99.44 411.80 L 99.75 410.93 L 100.07 410.58 L 100.39 409.31 L 100.70 407.75 L 101.02 406.73 L 101.34 405.66 L 101.65 404.67 L 101.97 403.40 L 102.29 402.32 L 102.60 402.26 L 102.92 402.26 L 103.24 402.26 L 103.55 402.52 L 103.87 405.12 L 104.19 406.82 L 104.50 408.33 L 104.82 410.89 L 105.13 412.67 L 105.45 411.80 L 105.77 411.80 L 106.08 411.80 L 106.40 413.93 L 106.72 414.35 L 107.03 412.52 L 107.35 410.24 L 107.67 411.33 L 107.98 412.33 L 108.30 412.67 L 108.62 412.67 L 108.93 413.65 L 109.25 414.40 L 109.57 415.25 L 109.88 416.09 L 110.20 416.14 L 110.52 416.14 L 110.83 415.96 L 111.15 415.27 L 111.47 413.93 L 111.78 413.54 L 112.10 413.54 L 112.41 412.67 L 112.73 412.67 L 113.05 412.67 L 113.36 413.25 L 113.68 413.54 L 114.00 413.54 L 114.31 413.54 L 114.63 413.54 L 114.95 413.54 L 115.26 413.54 L 115.58 414.40 L 115.90 414.40 L 116.21 414.91 L 116.53 415.27 L 116.85 415.27 L 117.16 416.14 L 117.48 417.00 L 117.80 417.00 L 118.11 417.87 L 118.43 418.71 L 118.75 419.07 L 119.06 419.61 L 119.38 420.47 L 119.70 421.34 L 120.01 421.34 L 120.33 420.52 L 120.64 420.47 L 120.96 420.72 L 121.28 421.34 L 121.59 421.34 L 121.91 421.34 L 122.23 421.50 L 122.54 422.21 L 122.86 422.21 L 123.18 422.21 L 123.49 422.21 L 123.81 422.21 L 124.13 422.21 L 124.44 422.21 L 124.76 422.21 L 125.08 421.44 L 125.39 420.43 L 125.71 419.87 L 126.03 420.47 L 126.34 419.61 L 126.66 419.45 L 126.98 418.74 L 127.29 418.74 L 127.61 418.74 L 127.92 417.87 L 128.24 417.21 L 128.56 417.00 L 128.87 417.87 L 129.19 417.87 L 129.51 417.07 L 129.82 417.82 L 130.14 418.11 L 130.46 418.74 L 130.77 418.74 L 131.09 417.87 L 131.41 417.36 L 131.72 416.36 L 132.04 416.14 L 132.36 414.82 L 132.67 413.54 L 132.99 412.67 L 133.31 410.97 L 133.62 410.93 L 133.94 410.70 L 134.26 408.08 L 134.57 406.60 L 134.89 405.73 L 135.21 405.63 L 135.52 404.43 L 135.84 402.86 L 136.15 402.26 L 136.47 401.84 L 136.79 400.53 L 137.10 399.66 L 137.42 399.77 L 137.74 400.93 L 138.05 402.07 L 138.37 402.34 L 138.69 403.13 L 139.00 404.00 L 139.32 404.00 L 139.64 405.22 L 139.95 406.60 L 140.27 407.52 L 140.59 409.75 L 140.90 411.23 L 141.22 412.79 L 141.54 413.19 L 141.85 412.67 L 142.17 412.67 L 142.49 412.59 L 142.80 411.16 L 143.12 410.56 L 143.43 409.20 L 143.75 408.71 L 144.07 408.33 L 144.38 407.71 L 144.70 407.23 L 145.02 406.01 L 145.33 404.17 L 145.65 402.26 L 145.97 401.40 L 146.28 400.90 L 146.60 399.66 L 146.92 398.80 L 147.23 398.23 L 147.55 397.09 L 147.87 396.19 L 148.18 395.33 L 148.50 394.46 L 148.82 395.67 L 149.13 396.68 L 149.45 397.06 L 149.77 397.06 L 150.08 396.19 L 150.40 396.19 L 150.71 396.19 L 151.03 395.33 L 151.35 394.46 L 151.66 393.59 L 151.98 393.59 L 152.30 394.74 L 152.61 395.61 L 152.93 396.78 L 153.25 397.93 L 153.56 398.80 L 153.88 399.66 L 154.20 399.92 L 154.51 401.09 L 154.83 403.13 L 155.15 404.78 L 155.46 405.62 L 155.78 406.60 L 156.10 407.91 L 156.41 408.33 L 156.73 408.33 L 157.05 406.60 L 157.36 405.33 L 157.68 404.00 L 158.00 402.26 L 158.31 400.84 L 158.63 398.80 L 158.94 398.02 L 159.26 395.85 L 159.58 393.42 L 159.89 391.86 L 160.21 390.99 L 160.53 390.22 L 160.84 389.14 L 161.16 388.38 L 161.48 387.52 L 161.79 387.99 L 162.11 388.39 L 162.43 388.39 L 162.74 388.39 L 163.06 388.39 L 163.38 388.39 L 163.69 388.39 L 164.01 389.26 L 164.33 389.26 L 164.64 389.26 L 164.96 390.15 L 165.28 390.99 L 165.59 391.78 L 165.91 392.73 L 166.22 394.00 L 166.54 394.46 L 166.86 394.46 L 167.17 393.72 L 167.49 393.59 L 167.81 392.96 L 168.12 393.59 L 168.44 393.59 L 168.76 394.46 L 169.07 395.33 L 169.39 395.33 L 169.71 395.33 L 170.02 396.15 L 170.34 396.19 L 170.66 396.19 L 170.97 396.12 L 171.29 395.33 L 171.61 395.40 L 171.92 396.19 L 172.24 396.19 L 172.56 396.19 L 172.87 396.50 L 173.19 397.13 L 173.51 398.23 L 173.82 398.34 L 174.14 398.67 L 174.45 398.80 L 174.77 398.80 L 175.09 399.66 L 175.40 399.66 L 175.72 400.21 L 176.04 400.77 L 176.35 399.21 L 176.67 397.96 L 176.99 397.06 L 177.30 396.78 L 177.62 395.86 L 177.94 395.33 L 178.25 395.33 L 178.57 395.33 L 178.89 396.19 L 179.20 396.19 L 179.52 395.69 L 179.84 396.19 L 180.15 397.06 L 180.47 397.25 L 180.79 398.35 L 181.10 398.80 L 181.42 398.33 L 181.73 397.93 L 182.05 398.80 L 182.37 399.73 L 182.68 401.31 L 183.00 401.40 L 183.32 402.26 L 183.63 402.26 L 183.95 402.88 L 184.27 403.13 L 184.58 404.87 L 184.90 405.73 L 185.22 406.10 L 185.53 406.07 L 185.85 405.73 L 186.17 405.73 L 186.48 404.87 L 186.80 404.87 L 187.12 405.73 L 187.43 405.73 L 187.75 406.14 L 188.07 406.60 L 188.38 406.60 L 188.70 406.60 L 189.02 407.06 L 189.33 406.60 L 189.65 406.11 L 189.96 405.49 L 190.28 404.87 L 190.60 404.87 L 190.91 404.87 L 191.23 404.00 L 191.55 404.00 L 191.86 403.13 L 192.18 403.13 L 192.50 403.13 L 192.81 403.30 L 193.13 404.87 L 193.45 406.70 L 193.76 408.06 L 194.08 409.74 L 194.40 410.93 L 194.71 410.93 L 195.03 410.25 L 195.35 409.20 L 195.66 407.47 L 195.98 407.05 L 196.30 407.47 L 196.61 407.47 L 196.93 406.60 L 197.24 406.77 L 197.56 407.80 L 197.88 408.33 L 198.19 410.07 L 198.51 411.13 L 198.83 412.46 L 199.14 413.19 L 199.46 414.46 L 199.78 415.51 L 200.09 416.60 L 200.41 417.00 L 200.73 417.00 L 201.04 417.00 L 201.36 418.03 L 201.68 418.74 L 201.99 419.31 L 202.31 418.74 L 202.63 417.87 L 202.94 416.89 L 203.26 416.14 L 203.58 414.35 L 203.89 413.54 L 204.21 413.54 L 204.52 413.54 L 204.84 413.54 L 205.16 414.34 L 205.47 413.24 L 205.79 412.45 L 206.11 411.63 L 206.42 410.07 L 206.74 409.20 L 207.06 408.33 L 207.37 407.07 L 207.69 406.60 L 208.01 404.87 L 208.32 404.00 L 208.64 402.54 L 208.96 401.40 L 209.27 400.56 L 209.59 400.52 L 209.91 399.66 L 210.22 399.66 L 210.54 399.01 L 210.86 398.80 L 211.17 397.06 L 211.49 395.72 L 211.81 394.51 L 212.12 394.46 L 212.44 394.46 L 212.75 394.83 L 213.07 396.03 L 213.39 397.06 L 213.70 397.88 L 214.02 397.93 L 214.34 398.80 L 214.65 397.69 L 214.97 396.75 L 215.29 395.21 L 215.60 394.46 L 215.92 394.79 L 216.24 397.22 L 216.55 398.71 L 216.87 398.80 L 217.19 399.66 L 217.50 399.66 L 217.82 401.13 L 218.14 402.26 L 218.45 402.26 L 218.77 403.13 L 219.09 403.13 L 219.40 402.26 L 219.72 402.26 L 220.03 401.84 L 220.35 402.26 L 220.67 402.26 L 220.98 402.26 L 221.30 402.26 L 221.62 402.26 L 221.93 402.26 L 222.25 403.13 L 222.57 404.00 L 222.88 403.13 L 223.20 401.40 L 223.52 398.80 L 223.83 397.63 L 224.15 396.46 L 224.47 396.19 L 224.78 396.00 L 225.10 394.46 L 225.42 392.10 L 225.73 388.92 L 226.05 387.52 L 226.37 385.27 L 226.68 384.28 L 227.00 383.19 L 227.32 383.19 L 227.63 383.19 L 227.95 382.62 L 228.26 383.31 L 228.58 384.99 L 228.90 385.79 L 229.21 387.33 L 229.53 387.79 L 229.85 388.39 L 230.16 388.39 L 230.48 388.86 L 230.80 390.36 L 231.11 391.14 L 231.43 392.09 L 231.75 394.46 L 232.06 395.33 L 232.38 395.35 L 232.70 397.93 L 233.01 400.34 L 233.33 401.40 L 233.65 400.53 L 233.96 400.53 L 234.28 400.46 L 234.60 399.66 L 234.91 398.94 L 235.23 397.93 L 235.54 397.93 L 235.86 397.93 L 236.18 397.76 L 236.49 397.06 L 236.81 398.13 L 237.13 399.22 L 237.44 400.18 L 237.76 399.32 L 238.08 399.77 L 238.39 400.53 L 238.71 401.05 L 239.03 400.75 L 239.34 400.58 L 239.66 401.40 L 239.98 402.00 L 240.29 403.06 L 240.61 405.04 L 240.93 405.73 L 241.24 407.21 L 241.56 408.33 L 241.88 409.14 L 242.19 409.20 L 242.51 409.20 L 242.83 409.20 L 243.14 410.07 L 243.46 410.07 L 243.77 410.07 L 244.09 410.07 L 244.41 410.07 L 244.72 409.20 L 245.04 409.20 L 245.36 409.20 L 245.67 409.20 L 245.99 408.94 L 246.31 408.33 L 246.62 408.33 L 246.94 408.60 L 247.26 409.78 L 247.57 411.20 L 247.89 412.33 L 248.21 412.67 L 248.52 414.42 L 248.84 415.27 L 249.16 415.27 L 249.47 415.27 L 249.79 415.27 L 250.11 415.27 L 250.42 414.40 L 250.74 414.12 L 251.05 413.54 L 251.37 413.54 L 251.69 413.54 L 252.00 413.02 L 252.32 412.67 L 252.64 412.67 L 252.95 412.43 L 253.27 411.80 L 253.59 411.61 L 253.90 410.93 L 254.22 410.93 L 254.54 411.70 L 254.85 411.80 L 255.17 411.80 L 255.49 411.80 L 255.80 411.37 L 256.12 410.93 L 256.44 410.93 L 256.75 410.07 L 257.07 409.72 L 257.39 409.20 L 257.70 410.07 L 258.02 410.79 L 258.33 410.07 L 258.65 410.07 L 258.97 410.07 L 259.28 409.58 L 259.60 409.20 L 259.92 409.20 L 260.23 409.47 L 260.55 410.27 L 260.87 410.93 L 261.18 410.93 L 261.50 410.93 L 261.82 410.93 L 262.13 410.07 L 262.45 409.20 L 262.77 408.60 L 263.08 408.33 L 263.40 408.95 L 263.72 409.20 L 264.03 409.83 L 264.35 409.20 L 264.67 409.24 L 264.98 410.07 L 265.30 410.07 L 265.62 410.07 L 265.93 410.46 L 266.25 410.35 L 266.56 410.78 L 266.88 410.07 L 267.20 410.07 L 267.51 408.50 L 267.83 406.87 L 268.15 404.87 L 268.46 404.87 L 268.78 405.60 L 269.10 405.85 L 269.41 406.60 L 269.73 407.47 L 270.05 407.38 L 270.36 406.87 L 270.68 407.47 L 271.00 408.24 L 271.31 409.08 L 271.63 410.07 L 271.95 410.93 L 272.26 411.80 L 272.58 411.80 L 272.90 411.46 L 273.21 411.12 L 273.53 412.60 L 273.84 412.67 L 274.16 412.23 L 274.48 411.08 L 274.79 410.93 L 275.11 410.07 L 275.43 410.07 L 275.74 410.93 L 276.06 410.93 L 276.38 410.93 L 276.69 410.93 L 277.01 410.68 L 277.33 410.04 L 277.64 409.20 L 277.96 409.20 L 278.28 409.58 L 278.59 410.80 L 278.91 412.47 L 279.23 413.40 L 279.54 412.90 L 279.86 411.80 L 280.18 409.53 L 280.49 406.72 L 280.81 405.50 L 281.13 403.51 L 281.44 403.13 L 281.76 402.26 L 282.07 401.40 L 282.39 400.53 L 282.71 402.26 L 283.02 403.69 L 283.34 404.87 L 283.66 405.73 L 283.97 404.87 L 284.29 403.54 L 284.61 400.96 L 284.92 402.88 L 285.24 400.53 L 285.56 399.70 L 285.87 398.05 L 286.19 397.67 L 286.51 393.38 L 286.82 391.86 L 287.14 389.87 L 287.46 388.93 L 287.77 387.50 L 288.09 384.92 L 288.41 383.78 L 288.72 381.45 L 289.04 379.32 L 289.35 377.61 L 289.67 376.25 L 289.99 374.57 L 290.30 372.98 L 290.62 372.73 L 290.94 371.92 L 291.25 371.05 L 291.57 370.18 L 291.89 368.63 L 292.20 369.23 L 292.52 370.18 L 292.84 371.05 L 293.15 371.92 L 293.47 371.92 L 293.79 371.92 L 294.10 372.27 L 294.42 374.52 L 294.74 374.61 L 295.05 375.38 L 295.37 376.10 L 295.69 376.25 L 296.00 376.65 L 296.32 376.36 L 296.63 376.25 L 296.95 377.12 L 297.27 376.90 L 297.58 376.25 L 297.90 374.52 L 298.22 373.34 L 298.53 372.78 L 298.85 371.99 L 299.17 372.78 L 299.48 372.78 L 299.80 372.78 L 300.12 371.92 L 300.43 371.92 L 300.75 372.71 L 301.07 374.27 L 301.38 375.99 L 301.70 377.12 L 302.02 378.36 L 302.33 380.08 L 302.65 381.93 L 302.97 383.99 L 303.28 384.92 L 303.60 385.49 L 303.92 387.21 L 304.23 389.54 L 304.55 390.99 L 304.86 392.08 L 305.18 393.85 L 305.50 395.33 L 305.81 396.19 L 306.13 395.33 L 306.45 395.33 L 306.76 395.70 L 307.08 396.19 L 307.40 396.06 L 307.71 395.33 L 308.03 393.07 L 308.35 392.73 L 308.66 391.86 L 308.98 391.72 L 309.30 390.18 L 309.61 389.90 L 309.93 389.26 L 310.25 389.26 L 310.56 389.26 L 310.88 389.19 L 311.20 387.52 L 311.51 386.63 L 311.83 385.03 L 312.14 384.23 L 312.46 384.50 L 312.78 383.80 L 313.09 383.19 L 313.41 382.85 L 313.73 382.32 L 314.04 381.45 L 314.36 380.59 L 314.68 380.16 L 314.99 379.14 L 315.31 377.99 L 315.63 377.12 L 315.94 376.06 L 316.26 376.25 L 316.58 376.25 L 316.89 375.66 L 317.21 373.65 L 317.53 372.78 L 317.84 373.29 L 318.16 373.65 L 318.48 374.52 L 318.79 375.38 L 319.11 375.38 L 319.43 376.25 L 319.74 376.69 L 320.06 377.60 L 320.37 377.99 L 320.69 377.99 L 321.01 377.99 L 321.32 377.96 L 321.64 376.89 L 321.96 375.08 L 322.27 373.71 L 322.59 372.78 L 322.91 371.88 L 323.22 369.89 L 323.54 369.31 L 323.86 367.68 L 324.17 366.71 L 324.49 365.85 L 324.81 365.12 L 325.12 364.11 L 325.44 363.69 L 325.76 364.11 L 326.07 364.06 L 326.39 363.25 L 326.71 362.83 L 327.02 362.08 L 327.34 361.03 L 327.65 360.16 L 327.97 359.78 L 328.29 359.78 L 328.60 360.22 L 328.92 360.84 L 329.24 361.97 L 329.55 363.25 L 329.87 363.25 L 330.19 363.25 L 330.50 363.25 L 330.82 363.25 L 331.14 364.20 L 331.45 364.98 L 331.77 367.03 L 332.09 368.45 L 332.40 370.18 L 332.72 370.18 L 333.04 371.92 L 333.35 372.78 L 333.67 373.22 L 333.99 374.52 L 334.30 375.59 L 334.62 376.25 L 334.94 376.25 L 335.25 376.93 L 335.57 377.12 L 335.88 377.12 L 336.20 376.06 L 336.52 374.52 L 336.83 374.52 L 337.15 374.29 L 337.47 374.52 L 337.78 375.38 L 338.10 375.38 L 338.42 375.75 L 338.73 375.38 L 339.05 375.38 L 339.37 374.52 L 339.68 373.65 L 340.00 372.91 L 340.32 373.31 L 340.63 371.92 L 340.95 371.92 L 341.27 371.05 L 341.58 372.78 L 341.90 373.65 L 342.22 375.03 L 342.53 375.38 L 342.85 376.71 L 343.16 378.55 L 343.48 379.89 L 343.80 381.45 L 344.11 383.19 L 344.43 385.12 L 344.75 386.78 L 345.06 387.52 L 345.38 387.52 L 345.70 389.26 L 346.01 391.25 L 346.33 393.59 L 346.65 396.25 L 346.96 397.70 L 347.28 399.89 L 347.60 400.53 L 347.91 402.26 L 348.23 403.16 L 348.55 405.76 L 348.86 407.47 L 349.18 407.26 L 349.50 406.16 L 349.81 404.87 L 350.13 403.39 L 350.44 402.26 L 350.76 400.13 L 351.08 398.63 L 351.39 397.93 L 351.71 396.19 L 352.03 395.33 L 352.34 396.06 L 352.66 397.06 L 352.98 397.93 L 353.29 396.86 L 353.61 394.46 L 353.93 392.26 L 354.24 390.99 L 354.56 390.12 L 354.88 389.26 L 355.19 388.39 L 355.51 386.66 L 355.83 386.66 L 356.14 386.66 L 356.46 384.92 L 356.78 384.59 L 357.09 382.54 L 357.41 381.45 L 357.73 381.45 L 358.04 380.49 L 358.36 379.72 L 358.67 379.72 L 358.99 378.85 L 359.31 377.83 L 359.62 376.25 L 359.94 374.52 L 360.26 373.65 L 360.57 373.50 L 360.89 371.05 L 361.21 371.05 L 361.52 371.05 L 361.84 371.66 L 362.16 371.92 L 362.47 371.92 L 362.79 371.05 L 363.11 371.05 L 363.42 371.05 L 363.74 371.05 L 364.06 371.75 L 364.37 372.31 L 364.69 373.65 L 365.01 373.65 L 365.32 374.52 L 365.64 375.38 L 365.95 376.25 L 366.27 377.06 L 366.59 377.99 L 366.90 379.88 L 367.22 381.19 L 367.54 382.14 L 367.85 382.32 L 368.17 384.13 L 368.49 386.01 L 368.80 387.52 L 369.12 388.24 L 369.44 389.98 L 369.75 392.69 L 370.07 393.36 L 370.39 394.89 L 370.70 395.92 L 371.02 396.23 L 371.34 397.06 L 371.65 397.32 L 371.97 398.68 L 372.29 400.15 L 372.60 403.13 L 372.92 404.17 L 373.24 404.87 L 373.55 405.73 L 373.87 406.60 L 374.18 406.60 L 374.50 405.98 L 374.82 404.12 L 375.13 404.87 L 375.45 404.09 L 375.77 404.00 L 376.08 404.00 L 376.40 404.73 L 376.72 404.73 L 377.03 404.00 L 377.35 401.14 L 377.67 399.44 L 377.98 397.93 L 378.30 397.93 L 378.62 397.06 L 378.93 396.19 L 379.25 394.46 L 379.57 391.52 L 379.88 389.40 L 380.20 387.52 L 380.52 383.50 L 380.83 384.92 L 381.15 384.92 L 381.46 384.32 L 381.78 384.06 L 382.10 385.04 L 382.41 386.66 L 382.73 387.52 L 383.05 389.22 L 383.36 389.26 L 383.68 390.12 L 384.00 390.12 L 384.31 390.12 L 384.63 391.83 L 384.95 392.79 L 385.26 393.72 L 385.58 396.39 L 385.90 397.06 L 386.21 397.42 L 386.53 399.35 L 386.85 402.35 L 387.16 402.26 L 387.48 402.26 L 387.80 402.26 L 388.11 402.26 L 388.43 401.40 L 388.75 400.42 L 389.06 399.66 L 389.38 399.66 L 389.69 399.66 L 390.01 399.65 L 390.33 398.83 L 390.64 400.01 L 390.96 401.30 L 391.28 400.53 L 391.59 400.53 L 391.91 401.40 L 392.23 402.26 L 392.54 402.26 L 392.86 402.26 L 393.18 402.26 L 393.49 403.05 L 393.81 404.33 L 394.13 406.09 L 394.44 407.54 L 394.76 408.79 L 395.08 409.76 L 395.39 410.25 L 395.71 410.93 L 396.03 411.46 L 396.34 411.20 L 396.66 410.93 L 396.97 411.92 L 397.29 411.80 L 397.61 411.80 L 397.92 410.93 L 398.24 410.93 L 398.56 410.07 L 398.87 410.07 L 399.19 410.02 L 399.51 409.20 L 399.82 409.87 L 400.14 410.07 L 400.46 410.07 L 400.77 410.70 L 401.09 411.80 L 401.41 413.19 L 401.72 414.28 L 402.04 415.27 L 402.36 416.39 L 402.67 417.00 L 402.99 416.20 L 403.31 416.95 L 403.62 416.14 L 403.94 416.14 L 404.25 416.13 L 404.57 415.29 L 404.89 414.40 L 405.20 414.87 L 405.52 415.27 L 405.84 415.27 L 406.15 414.40 L 406.47 414.40 L 406.79 414.40 L 407.10 413.80 L 407.42 413.54 L 407.74 412.80 L 408.05 413.34 L 408.37 413.54 L 408.69 414.40 L 409.00 414.34 L 409.32 413.54 L 409.64 413.54 L 409.95 413.00 L 410.27 412.67 L 410.59 412.67 L 410.90 411.80 L 411.22 411.80 L 411.54 412.09 L 411.85 412.67 L 412.17 412.67 L 412.48 412.67 L 412.80 411.89 L 413.12 411.80 L 413.43 411.80 L 413.75 411.80 L 414.07 411.80 L 414.38 412.67 L 414.70 412.67 L 415.02 412.67 L 415.33 412.67 L 415.65 412.67 L 415.97 412.00 L 416.28 410.93 L 416.60 410.88 L 416.92 410.07 L 417.23 410.44 L 417.55 410.93 L 417.87 410.93 L 418.18 410.93 L 418.50 410.93 L 418.82 410.93 L 419.13 410.93 L 419.45 410.97 L 419.76 411.75 L 420.08 410.99 L 420.40 410.93 L 420.71 410.93 L 421.03 410.07 L 421.35 409.75 L 421.66 408.01 L 421.98 406.14 L 422.30 404.87 L 422.61 404.87 L 422.93 405.62 L 423.25 406.60 L 423.56 407.12 L 423.88 406.60 L 424.20 406.60 L 424.51 407.19 L 424.83 408.33 L 425.15 409.20 L 425.46 410.07 L 425.78 410.93 L 426.10 410.93 L 426.41 410.93 L 426.73 410.93 L 427.05 410.93 L 427.36 410.96 L 427.68 411.80 L 427.99 410.98 L 428.31 410.69 L 428.63 410.07 L 428.94 409.20 L 429.26 409.20 L 429.58 410.01 L 429.89 410.07 L 430.21 410.93 L 430.53 410.69 L 430.84 409.68 L 431.16 409.06 L 431.48 407.80 L 431.79 407.47 L 432.11 407.73 L 432.43 409.07 L 432.74 410.39 L 433.06 411.45 L 433.38 411.22 L 433.69 410.07 L 434.01 408.03 L 434.33 405.02 L 434.64 403.13 L 434.96 401.25 L 435.27 399.66 L 435.59 399.66 L 435.91 398.66 L 436.22 397.15 L 436.54 397.93 L 436.86 399.55 L 437.17 400.55 L 437.49 401.40 L 437.81 402.26 L 438.12 401.40 L 438.44 398.39 L 438.76 397.06 L 439.07 395.33 L 439.39 393.95 L 439.71 393.78 L 440.02 392.24 L 440.34 391.86 L 440.66 386.68 L 440.97 385.81 L 441.29 391.68 L 441.61 393.59 L 441.92 395.26 L 442.24 396.19 L 442.56 397.06 L 442.87 397.06 L 443.19 397.51 L 443.50 397.93 L 443.82 397.93 L 444.14 397.93 L 444.45 398.80 L 444.77 398.80 L 445.09 399.57 L 445.40 399.66 L 445.72 401.34 L 446.04 402.12 L 446.35 403.58 L 446.67 405.73 L 446.99 405.86 L 447.30 406.60 L 447.62 406.03 L 447.94 406.27 L 448.25 407.10 L 448.57 408.11 L 448.89 409.38 L 449.20 410.41 L 449.52 410.93 L 449.84 411.70 L 450.15 411.80 L 450.47 411.80 L 450.78 411.80 L 451.10 411.05 L 451.42 410.93 L 451.73 410.93 L 452.05 410.93 L 452.37 410.93 L 452.68 410.93 L 453.00 410.93 L 453.32 411.80 L 453.63 411.80 L 453.95 412.53 L 454.27 412.67 L 454.58 412.67 L 454.90 412.67 L 455.22 413.53 L 455.53 414.40 L 455.85 419.61 L 456.17 414.67 L 456.48 411.46 L 456.80 410.83 L 457.12 409.20 L 457.43 408.33 L 457.75 406.48 L 458.06 404.87 L 458.38 403.16 L 458.70 401.40 L 459.01 400.25 L 459.33 398.80 L 459.65 397.06 L 459.96 395.06 L 460.28 393.59 L 460.60 391.96 L 460.91 391.86 L 461.23 390.12 L 461.55 388.39 L 461.86 384.06 L 462.18 382.32 L 462.50 381.48 L 462.81 379.72 L 463.13 378.72 L 463.45 377.69 L 463.76 376.25 L 464.08 375.38 L 464.40 373.65 L 464.71 371.92 L 465.03 371.45 L 465.35 370.04 L 465.66 368.45 L 465.98 365.85 L 466.29 366.71 L 466.61 365.53 L 466.93 363.25 L 467.24 361.91 L 467.56 360.64 L 467.88 359.27 L 468.19 357.40 L 468.51 355.44 L 468.83 354.59 L 469.14 351.97 L 469.46 350.24 L 469.78 349.57 L 470.09 349.37 L 470.41 349.37 L 470.73 349.37 L 471.04 348.50 L 471.36 347.27 L 471.68 346.01 L 471.99 344.95 L 472.31 345.90 L 472.63 345.90 L 472.94 345.17 L 473.26 339.45 L 473.57 338.30 L 473.89 338.55 L 474.21 334.80 L 474.52 333.76 L 474.84 332.90 L 475.16 332.90 L 475.47 333.76 L 475.79 334.63 L 476.11 335.50 L 476.42 335.97 L 476.74 336.37 L 477.06 334.63 L 477.37 334.98 L 477.69 335.97 L 478.01 337.23 L 478.32 336.76 L 478.64 335.50 L 478.96 335.50 L 479.27 335.50 L 479.59 335.38 L 479.91 333.77 L 480.22 332.86 L 480.54 332.04 L 480.86 332.44 L 481.17 333.76 L 481.49 331.16 L 481.80 330.30 L 482.12 330.34 L 482.44 332.03 L 482.75 331.30 L 483.07 329.79 L 483.39 329.43 L 483.70 330.05 L 484.02 330.30 L 484.34 330.30 L 484.65 330.30 L 484.97 330.44 L 485.29 331.26 L 485.60 332.03 L 485.92 332.03 L 486.24 332.08 L 486.55 332.90 L 486.87 333.62 L 487.19 334.30 L 487.50 334.86 L 487.82 335.50 L 488.14 336.37 L 488.45 337.23 L 488.77 338.97 L 489.08 338.41 L 489.40 337.23 L 489.72 337.23 L 490.03 337.35 L 490.35 338.97 L 490.67 338.97 L 490.98 339.64 L 491.30 339.83 L 491.62 340.05 L 491.93 340.11 L 492.25 339.83 L 492.57 339.18 L 492.88 338.10 L 493.20 336.45 L 493.52 335.50 L 493.83 334.63 L 494.15 332.43 L 494.47 332.63 L 494.78 330.46 L 495.10 330.67 L 495.42 328.56 L 495.73 328.56 L 496.05 328.22 L 496.36 327.69 L 496.68 327.69 L 497.00 327.69 L 497.31 327.69 L 497.63 328.56 L 497.95 328.56 L 498.26 328.95 L 498.58 328.56 L 498.90 328.82 L 499.21 329.43 L 499.53 329.52 L 499.85 331.16 L 500.16 332.03 L 500.48 332.90 L 500.80 333.76 L 501.11 333.76 L 501.43 333.76 L 501.75 333.76 L 502.06 333.76 L 502.38 333.76 L 502.70 334.63 L 503.01 335.50 L 503.33 336.69 L 503.65 337.23 L 503.96 334.97 L 504.28 332.86 L 504.59 331.16 L 504.91 328.57 L 505.23 326.83 L 505.54 324.33 L 505.86 323.82 L 506.18 322.08 L 506.49 319.57 L 506.81 319.91 L 507.13 320.76 L 507.44 320.76 L 507.76 319.17 L 508.08 318.16 L 508.39 317.59 L 508.71 317.29 L 509.03 314.69 L 509.34 313.13 L 509.66 310.45 L 509.98 310.28 L 510.29 310.35 L 510.61 309.49 L 510.93 307.81 L 511.24 306.10 L 511.56 305.15 L 511.87 304.28 L 512.19 303.42 L 512.51 301.68 L 512.82 300.82 L 513.14 299.25 L 513.46 298.78 L 513.77 296.52 L 514.09 294.75 L 514.41 294.38 L 514.72 291.74 L 515.04 292.97 L 515.36 292.67 L 515.67 289.78 L 515.99 290.41 L 516.31 288.68 L 516.62 288.68 L 516.94 287.13 L 517.26 285.79 L 517.57 285.21 L 517.89 281.90 L 518.21 276.56 L 518.52 277.79 L 518.84 277.40 L 519.16 277.11 L 519.47 276.41 L 519.79 273.97 L 520.10 267.04 L 520.42 269.33 L 520.74 267.00 L 521.05 266.60 L 521.37 264.40 L 521.69 258.33 L 522.00 259.02 L 522.32 256.59 L 522.64 258.88 L 522.95 257.46 L 523.27 253.68 L 523.59 253.13 L 523.90 252.26 L 524.22 250.80 L 524.54 249.40 L 524.85 248.41 L 525.17 247.06 L 525.49 245.43 L 525.80 244.46 L 526.12 242.17 L 526.44 243.59 L 526.75 242.72 L 527.07 243.59 L 527.38 243.59 L 527.70 243.59 L 528.02 242.72 L 528.33 241.85 L 528.65 241.10 L 528.97 242.72 L 529.28 243.59 L 529.60 243.49 L 529.92 242.72 L 530.23 240.99 L 530.55 240.96 L 530.87 240.12 L 531.18 240.12 L 531.50 238.77 L 531.82 238.31 L 532.13 237.04 L 532.45 236.65 L 532.77 236.79 L 533.08 237.52 L 533.40 237.52 L 533.72 239.67 L 534.03 240.11 L 534.35 239.54 L 534.67 239.56 L 534.98 238.94 L 535.30 240.87 L 535.61 243.62 L 535.93 244.46 L 536.25 244.46 L 536.56 245.32 L 536.88 244.46 L 537.20 242.05 L 537.51 240.99 L 537.83 241.60 L 538.15 242.74 L 538.46 244.46 L 538.78 244.46 L 539.10 244.46 L 539.41 244.46 L 539.73 244.46 L 540.05 243.59 L 540.36 242.64 L 540.68 241.02 L 541.00 240.12 L 541.31 240.12 L 541.63 239.85 L 541.95 239.25 L 542.26 238.39 L 542.58 238.39 L 542.89 239.33 L 543.21 240.99 L 543.53 242.68 L 543.84 246.01 L 544.16 246.69 L 544.48 247.92 L 544.79 248.15 L 545.11 249.18 L 545.43 249.66 L 545.74 249.66 L 546.06 249.66 L 546.38 251.39 L 546.69 250.52 L 547.01 250.52 L 547.33 250.52 L 547.64 251.20 L 547.96 252.26 L 548.28 254.86 L 548.59 255.57 L 548.91 255.73 L 549.23 256.59 L 549.54 259.20 L 549.86 260.06 L 550.17 258.33 L 550.49 257.46 L 550.81 255.73 L 551.12 254.86 L 551.44 255.73 L 551.76 255.73 L 552.07 255.73 L 552.39 256.37 L 552.71 257.46 L 553.02 257.46 L 553.34 257.46 L 553.66 256.59 L 553.97 256.59 L 554.29 256.59 L 554.61 256.59 L 554.92 258.33 L 555.24 258.33 L 555.56 259.20 L 555.87 259.20 L 556.19 259.20 L 556.51 258.62 L 556.82 258.33 L 557.14 257.38 L 557.46 255.73 L 557.77 255.23 L 558.09 253.99 L 558.40 252.26 L 558.72 250.61 L 559.04 247.64 L 559.35 245.32 L 559.67 244.46 L 559.99 243.59 L 560.30 242.72 L 560.62 241.18 L 560.94 239.25 L 561.25 238.65 L 561.57 234.92 L 561.89 235.78 L 562.20 233.17 L 562.52 232.32 L 562.84 232.32 L 563.15 231.45 L 563.47 232.32 L 563.79 232.32 L 564.10 233.18 L 564.42 232.32 L 564.74 233.05 L 565.05 234.04 L 565.37 232.35 L 565.68 233.18 L 566.00 231.45 L 566.32 229.85 L 566.63 228.85 L 566.95 229.72 L 567.27 229.72 L 567.58 230.35 L 567.90 230.58 L 568.22 230.58 L 568.53 229.72 L 568.85 229.55 L 569.17 227.15 L 569.48 225.38 L 569.80 224.51 L 570.12 221.87 L 570.43 220.18 L 570.75 220.18 L 571.07 217.92 L 571.38 216.71 L 571.70 214.97 L 572.02 213.24 L 572.33 211.51 L 572.65 207.83 L 572.97 205.49 L 573.28 205.88 L 573.60 203.70 L 573.91 201.97 L 574.23 199.90 L 574.55 198.50 L 574.86 196.20 L 575.18 193.49 L 575.50 192.43 L 575.81 191.96 L 576.13 189.83 L 576.45 188.96 L 576.76 187.23 L 577.08 182.89 L 577.40 183.76 L 577.71 183.76 L 578.03 181.44 L 578.35 180.11 L 578.66 178.56 L 578.98 178.30 L 579.30 177.69 L 579.61 175.09 L 579.93 173.35 L 580.25 170.73 L 580.56 168.88 L 580.88 166.81 L 581.19 165.80 L 581.51 162.01 L 581.83 160.59 L 582.14 160.29 L 582.46 157.97 L 582.78 156.29 L 583.09 154.70 L 583.41 153.97 L 583.73 150.94 L 584.04 152.78 L 584.36 149.94 L 584.68 148.92 L 584.99 148.21 L 585.31 144.99 L 585.63 143.01 L 585.94 142.47 L 586.26 141.56 L 586.58 139.42 L 586.89 137.03 L 587.21 136.20 L 587.53 135.00 L 587.84 133.47 L 588.16 130.93 L 588.48 130.00 L 588.79 128.43 L 589.11 127.23 L 589.42 125.80 L 589.74 121.79 L 590.06 120.46 L 590.37 121.33 L 590.69 121.33 L 591.01 121.62 L 591.32 121.55 L 591.64 122.18 L 591.96 122.20 L 592.27 121.70 L 592.59 122.20 L 592.91 122.20 L 593.22 122.20 L 593.54 123.06 L 593.86 121.83 L 594.17 121.33 L 594.49 121.33 L 594.81 121.47 L 595.12 122.20 L 595.44 121.89 L 595.76 121.33 L 596.07 121.42 L 596.39 122.20 L 596.70 123.06 L 597.02 123.22 L 597.34 124.80 L 597.65 125.67 L 597.97 126.53 L 598.29 126.53 L 598.60 128.27 L 598.92 129.06 L 599.24 129.74 L 599.55 130.52 L 599.87 130.87 L 600.19 131.87 L 600.50 132.85 L 600.82 134.05 L 601.14 135.11 L 601.45 136.94 L 601.77 137.80 L 602.09 138.99 L 602.40 140.85 L 602.72 141.71 L 603.04 143.54 L 603.35 145.45 L 603.67 146.48 L 603.98 146.48 L 604.30 148.21 L 604.62 148.21 L 604.93 149.08 L 605.25 149.94 L 605.57 149.94 L 605.88 150.10 L 606.20 150.81 L 606.52 151.68 L 606.83 152.54 L 607.15 152.54 L 607.47 153.41 L 607.78 153.41 L 608.10 154.20 L 608.42 154.28 L 608.73 153.41 L 609.05 153.41 L 609.37 153.41 L 609.68 153.41 L 610.00 152.54 L 610.32 152.54 L 610.63 152.54 L 610.95 151.24 L 611.27 150.81 L 611.58 151.68 L 611.90 150.81 L 612.21 150.81 L 612.53 150.81 L 612.85 150.81 L 613.16 150.81 L 613.48 150.81 L 613.80 150.81 L 614.11 151.68 L 614.43 151.95 L 614.75 151.68 L 615.06 151.68 L 615.38 151.68 L 615.70 151.68 L 616.01 151.68 L 616.33 150.81 L 616.65 149.94 L 616.96 149.94 L 617.28 148.08 L 617.60 147.08 L 617.91 146.48 L 618.23 146.48 L 618.55 145.61 L 618.86 144.74 L 619.18 144.74 L 619.49 144.00 L 619.81 144.74 L 620.13 143.87 L 620.44 143.87 L 620.76 144.74 L 621.08 145.61 L 621.39 146.57 L 621.71 148.14 L 622.03 148.21 L 622.34 147.52 L 622.66 147.34 L 622.98 147.34 L 623.29 146.53 L 623.61 147.14 L 623.93 146.48 L 624.24 147.34 L 624.56 147.34 L 624.88 146.89 L 625.19 145.61 L 625.51 145.61 L 625.83 146.07 L 626.14 146.48 L 626.46 147.20 L 626.78 147.34 L 627.09 146.48 L 627.41 145.85 L 627.72 145.46 L 628.04 144.50 L 628.36 143.87 L 628.67 143.87 L 628.99 143.87 L 629.31 144.74 L 629.62 145.35 L 629.94 146.28 L 630.26 147.32 L 630.57 149.51 L 630.89 150.81 L 631.21 152.70 L 631.52 153.51 L 631.84 155.15 L 632.16 155.80 L 632.47 157.09 L 632.79 158.49 L 633.11 159.48 L 633.42 160.90 L 633.74 162.08 L 634.06 164.23 L 634.37 166.37 L 634.69 167.77 L 635.00 169.03 L 635.32 171.27 L 635.64 172.84 L 635.95 174.93 L 636.27 178.13 L 636.59 180.09 L 636.90 183.34 L 637.22 185.49 L 637.54 186.70 L 637.85 189.93 L 638.17 193.15 L 638.49 195.78 L 638.80 198.69 L 639.12 201.10 L 639.44 201.91 L 639.75 202.84 L 640.07 204.29 L 640.39 205.44 L 640.70 207.35 L 641.02 209.77 L 641.34 210.81 L 641.65 213.39 L 641.97 215.74 L 642.28 217.66 L 642.60 219.31 L 642.92 219.31 L 643.23 219.31 L 643.55 219.52 L 643.87 219.31 L 644.18 220.18 L 644.50 222.17 L 644.82 223.60 L 645.13 225.68 L 645.45 229.32 L 645.77 231.68 L 646.08 233.33 L 646.40 234.05 L 646.72 234.43 L 647.03 235.78 L 647.35 236.54 L 647.67 237.20 L 647.98 236.65 L 648.30 235.02 L 648.62 241.85 L 648.93 246.02 L 649.25 248.38 L 649.57 248.46 L 649.88 247.06 L 650.20 248.21 L 650.51 248.79 L 650.83 249.10 L 651.15 248.19 L 651.46 244.43 L 651.78 241.85 L 652.10 240.99 L 652.41 240.12 L 652.73 238.39 L 653.05 236.65 L 653.36 236.05 L 653.68 235.78 L 654.00 233.18 L 654.31 238.39 L 654.63 244.05 L 654.95 244.56 L 655.26 244.05 L 655.58 246.25 L 655.90 247.06 L 656.21 247.92 L 656.53 247.92 L 656.85 248.79 L 657.16 250.61 L 657.48 253.34 L 657.79 256.79 L 658.11 260.09 L 658.43 264.40 L 658.74 268.05 L 659.06 271.30 L 659.38 273.85 L 659.69 276.02 L 660.01 278.86 L 660.33 282.37 L 660.64 284.57 L 660.96 286.88 L 661.28 291.28 L 661.59 293.09 L 661.91 294.75 L 662.23 294.91 L 662.54 297.34 L 662.86 298.85 L 663.18 301.50 L 663.49 304.42 L 663.81 308.62 L 664.13 312.88 L 664.44 316.17 L 664.76 318.16 L 665.08 320.76 L 665.39 321.63 L 665.71 324.00 L 666.02 325.16 L 666.34 325.96 L 666.66 325.96 L 666.97 327.46 L 667.29 329.43 L 667.61 331.28 L 667.92 332.51 L 668.24 333.36 L 668.56 333.93 L 668.87 335.00 L 669.19 336.02 L 669.51 336.83 L 669.82 338.62 L 670.14 340.07 L 670.46 341.55 L 670.77 342.87 L 671.09 343.30 L 671.41 344.17 L 671.72 345.72 L 672.04 347.64 L 672.36 341.74 L 672.67 346.89 L 672.99 348.97 L 673.30 354.57 L 673.62 353.73 L 673.94 353.71 L 674.25 353.71 L 674.57 353.71 L 674.89 352.47 L 675.20 350.24 L 675.52 350.24 L 675.84 348.79 L 676.15 347.64 L 676.47 346.77 L 676.79 347.46 L 677.10 346.29 L 677.42 346.13 L 677.74 344.93 L 678.05 345.04 L 678.37 343.40 L 678.69 341.21 L 679.00 341.38 L 679.32 339.83 L 679.64 338.10 L 679.95 337.53 L 680.27 338.10 L 680.59 338.10 L 680.90 337.58 L 681.22 336.24 L 681.53 335.12 L 681.85 331.98 L 682.17 331.16 L 682.48 331.16 L 682.80 332.37 L 683.12 332.90 L 683.43 333.65 L 683.75 335.27 L 684.07 336.40 L 684.38 337.45 L 684.70 338.10 L 685.02 339.83 L 685.33 340.70 L 685.65 341.57 L 685.97 343.30 L 686.28 344.07 L 686.60 344.39 L 686.92 345.04 L 687.23 345.04 L 687.55 345.04 L 687.87 345.89 L 688.18 345.04 L 688.50 344.17 L 688.81 344.17 L 689.13 344.17 L 689.45 344.14 L 689.76 343.30 L 690.08 343.30 L 690.40 343.30 L 690.71 343.30 L 691.03 343.30 L 691.35 343.30 L 691.66 343.30 L 691.98 342.53 L 692.30 342.44 L 692.61 342.44 L 692.93 340.93 L 693.25 340.70 L 693.56 340.70 L 693.88 340.70 L 694.20 341.49 L 694.51 341.57 L 694.83 341.57 L 695.15 341.57 L 695.46 341.57 L 695.78 341.57 L 696.09 341.57 L 696.41 341.57 L 696.73 341.57 L 697.04 341.57 L 697.36 341.57 L 697.68 341.57 L 697.99 341.16 L 698.31 339.83 L 698.63 339.83 L 698.94 338.97 L 699.26 338.10 L 699.58 337.35 L 699.89 338.52 L 700.21 338.56 L 700.53 338.10 L 700.84 337.59 L 701.16 337.23 L 701.48 337.23 L 701.79 337.23 L 702.11 337.23 L 702.43 337.23 L 702.74 336.67 L 703.06 336.37 L 703.38 335.57 L 703.69 334.67 L 704.01 333.76 L 704.32 333.76 L 704.64 334.57 L 704.96 333.76 L 705.27 333.76 L 705.59 333.36 L 705.91 332.26 L 706.22 332.03 L 706.54 332.88 L 706.86 332.90 L 707.17 332.90 L 707.49 332.90 L 707.81 332.90 L 708.12 333.76 L 708.44 334.19 L 708.76 334.63 L 709.07 334.63 L 709.39 335.02 L 709.71 335.50 L 710.02 335.50 L 710.34 334.98 L 710.66 334.63 L 710.97 335.50 L 711.29 335.50 L 711.60 334.69 L 711.92 334.63 L 712.24 333.96 L 712.55 332.90 L 712.87 331.16 L 713.19 330.18 L 713.50 328.96 L 713.82 327.69 L 714.14 327.02 L 714.45 326.83 L 714.77 325.09 L 715.09 324.23 L 715.40 325.09 L 715.72 325.91 L 716.04 326.83 L 716.35 326.83 L 716.67 327.69 L 716.99 327.20 L 717.30 327.69 L 717.62 326.91 L 717.94 325.85 L 718.25 324.96 L 718.57 324.23 L 718.89 324.72 L 719.20 325.09 L 719.52 326.73 L 719.83 327.41 L 720.15 326.83 L 720.47 328.49 L 720.78 329.73 L 721.10 331.16 L 721.42 331.16 L 721.73 331.16 L 722.05 330.30 L 722.37 329.43 L 722.68 330.01 L 723.00 330.30 L 723.32 329.43 L 723.63 327.69 L 723.95 326.83 L 724.27 325.09 L 724.58 324.23 L 724.90 323.57 L 725.22 323.92 L 725.53 322.49 L 725.85 322.49 L 726.17 322.49 L 726.48 321.04 L 726.80 320.76 L 727.11 319.02 L 727.43 317.29 L 727.75 319.02 L 728.06 319.02 L 728.38 319.89 L 728.70 319.02 L 729.01 319.15 L 729.33 319.77 L 729.65 319.80 L 729.96 321.12 L 730.28 321.09 L 730.60 321.41 L 730.91 321.63 L 731.23 322.99 L 731.55 324.23 L 731.86 326.74 L 732.18 326.83 L 732.50 326.83 L 732.81 326.83 L 733.13 328.19 L 733.45 329.43 L 733.76 329.43 L 734.08 331.98 L 734.40 334.87 L 734.71 337.23 L 735.03 337.23 L 735.34 336.37 L 735.66 337.25 L 735.98 339.12 L 736.29 339.83 L 736.61 340.50 L 736.93 342.93 L 737.24 346.91 L 737.56 348.50 L 737.88 347.72 L 738.19 345.90 L 738.51 345.90 L 738.83 345.04 L 739.14 344.17 L 739.46 342.44 L 739.78 341.57 L 740.09 340.70 L 740.41 340.70 L 740.73 340.45 L 741.04 337.37 L 741.36 336.89 L 741.68 336.37 L 741.99 334.63 L 742.31 332.74 L 742.62 333.95 L 742.94 332.03 L 743.26 331.52 L 743.57 332.03 L 743.89 332.03 L 744.21 331.16 L 744.52 331.16 L 744.84 332.03 L 745.16 334.06 L 745.47 337.23 L 745.79 338.97 L 746.11 340.41 L 746.42 340.70 L 746.74 340.75 L 747.06 340.70 L 747.37 342.29 L 747.69 343.18 L 748.01 340.70 L 748.32 337.57 L 748.64 336.59 L 748.96 330.59 L 749.27 331.15 L 749.59 329.77 L 749.90 330.30 L 750.22 327.63 L 750.54 325.09 L 750.85 322.19 L 751.17 318.54 L 751.49 317.29 L 751.80 323.06 L 752.12 321.63 L 752.44 320.57 L 752.75 319.14 L 753.07 317.29 L 753.39 315.61 L 753.70 313.82 L 754.02 307.75 L 754.34 311.42 L 754.65 312.57 L 754.97 312.95 L 755.29 307.31 L 755.60 305.24 L 755.92 308.62 L 756.24 306.22 L 756.55 304.83 L 756.87 303.42 L 757.19 303.42 L 757.50 302.51 L 757.82 299.95 L 758.13 299.46 L 758.45 294.75 L 758.77 295.03 L 759.08 293.01 L 759.40 292.97 L 759.72 291.28 L 760.03 289.54 L 760.35 284.12 L 760.67 284.91 L 760.98 285.21 L 761.30 284.01 L 761.62 283.41 L 761.93 275.67 L 762.25 280.01 L 762.57 278.27 L 762.88 277.34 L 763.20 275.86 L 763.52 273.07 L 763.83 271.33 L 764.15 270.70 L 764.47 268.31 L 764.78 267.01 L 765.10 264.40 L 765.41 263.64 L 765.73 260.06 L 766.05 260.85 L 766.36 259.06 L 766.68 257.80 L 767.00 256.59 L 767.31 256.19 L 767.63 252.99 L 767.95 251.39 L 768.26 250.81 L 768.58 248.79 L 768.90 248.22 L 769.21 248.57 L 769.53 247.92 L 769.85 246.19 L 770.16 244.46 L 770.48 242.72 L 770.80 242.72 L 771.11 242.72 L 771.43 241.85 L 771.75 242.14 L 772.06 241.88 L 772.38 240.73 L 772.70 239.25 L 773.01 240.81 L 773.33 244.22 L 773.64 245.11 L 773.96 246.37 L 774.28 249.51 L 774.59 250.52 L 774.91 250.15 L 775.23 248.42 L 775.54 247.06 L 775.86 244.70 L 776.18 243.48 L 776.49 241.03 L 776.81 239.25 L 777.13 238.27 L 777.44 237.52 L 777.76 237.33 L 778.08 236.65 L 778.39 235.78 L 778.71 234.92 L 779.03 236.65 L 779.34 237.77 L 779.66 238.94 L 779.98 240.12 L 780.29 240.12 L 780.61 240.63 L 780.92 241.93 L 781.24 242.72 L 781.56 242.79 L 781.87 243.59 L 782.19 244.32 L 782.51 245.86 L 782.82 247.73 L 783.14 247.84 L 783.46 246.19 L 783.77 245.74 L 784.09 244.46 L 784.41 243.68 L 784.72 243.59 L 785.04 243.59 L 785.36 242.72 L 785.67 242.63 L 785.99 241.52 L 786.31 240.37 L 786.62 240.12 L 786.94 240.99 L 787.26 241.56 L 787.57 241.85 L 787.89 241.85 L 788.21 240.12 L 788.52 236.53 L 788.84 234.05 L 789.15 232.32 L 789.47 229.51 L 789.79 226.53 L 790.10 224.51 L 790.42 223.58 L 790.74 222.78 L 791.05 222.34 L 791.37 221.91 L 791.69 221.91 L 792.00 222.78 L 792.32 223.54 L 792.64 222.78 L 792.95 223.65 L 793.27 222.78 L 793.59 223.65 L 793.90 223.65 L 794.22 223.65 L 794.54 222.46 L 794.85 221.33 L 795.17 221.04 L 795.49 219.96 L 795.80 217.58 L 796.12 217.58 L 796.43 215.84 L 796.75 214.94 L 797.07 213.09 L 797.38 212.37 L 797.70 210.57 L 798.02 207.17 L 798.33 204.74 L 798.65 202.76 L 798.97 199.76 L 799.28 197.28 L 799.60 195.44 L 799.92 194.17 L 800.23 192.43 L 800.55 190.70 L 800.87 191.51 L 801.18 195.23 L 801.50 199.80 L 801.82 202.54 L 802.13 204.14 L 802.45 205.44 L 802.77 206.30 L 803.08 207.17 L 803.40 208.23 L 803.71 208.91 L 804.03 209.77 L 804.35 209.77 L 804.66 208.91 L 804.98 206.67 L 805.30 206.30 L 805.61 204.61 L 805.93 203.70 L 806.25 203.70 L 806.56 205.44 L 806.88 206.92 L 807.20 208.04 L 807.51 210.12 L 807.83 211.51 L 808.15 212.35 L 808.46 213.24 L 808.78 214.97 L 809.10 217.75 L 809.41 219.76 L 809.73 221.74 L 810.05 224.13 L 810.36 226.69 L 810.68 228.85 L 811.00 230.58 L 811.31 231.45 L 811.63 234.05 L 811.94 235.78 L 812.26 239.64 L 812.58 242.17 L 812.89 245.11 L 813.21 248.23 L 813.53 251.25 L 813.84 252.26 L 814.16 253.99 L 814.48 254.86 L 814.79 254.22 L 815.11 251.39 L 815.43 250.52 L 815.74 247.92 L 816.06 247.06 L 816.38 246.19 L 816.69 245.86 L 817.01 243.98 L 817.33 241.85 L 817.64 241.80 L 817.96 241.85 L 818.28 243.59 L 818.59 242.89 L 818.91 242.72 L 819.22 244.46 L 819.54 244.46 L 819.86 245.17 L 820.17 246.19 L 820.49 246.19 L 820.81 245.32 L 821.12 245.32 L 821.44 245.32 L 821.76 242.72 L 822.07 240.99 L 822.39 240.99 L 822.71 242.72 L 823.02 244.27 L 823.34 245.32 L 823.66 246.33 L 823.97 248.79 L 824.29 250.75 L 824.61 253.09 L 824.92 254.98 L 825.24 257.68 L 825.56 259.03 L 825.87 260.93 L 826.19 260.08 L 826.51 259.20 L 826.82 259.20 L 827.14 259.94 L 827.45 261.18 L 827.77 261.80 L 828.09 262.64 L 828.40 264.40 L 828.72 264.40 L 829.04 264.40 L 829.35 266.13 L 829.67 265.58 L 829.99 266.82 L 830.30 267.87 L 830.62 270.68 L 830.94 273.07 L 831.25 275.21 L 831.57 277.40 L 831.89 279.29 L 832.20 281.74 L 832.52 283.47 L 832.84 284.67 L 833.15 287.09 L 833.47 288.43 L 833.79 289.76 L 834.10 291.45 L 834.42 293.81 L 834.73 295.90 L 835.05 298.73 L 835.37 300.82 L 835.68 302.60 L 836.00 304.42 L 836.32 306.89 L 836.63 309.55 L 836.95 311.84 L 837.27 312.09 L 837.58 312.09 L 837.90 314.36 L 838.22 314.69 L 838.53 315.34 L 838.85 316.10 L 839.17 316.42 L 839.48 317.81 L 839.80 319.42 L 840.12 320.76 L 840.43 322.49 L 840.75 324.10 L 841.07 325.09 L 841.38 325.09 L 841.70 325.85 L 842.01 326.13 L 842.33 326.83 L 842.65 326.34 L 842.96 324.23 L 843.28 324.23 L 843.60 324.00 L 843.91 323.35 L 844.23 323.23 L 844.55 323.36 L 844.86 323.36 L 845.18 323.36 L 845.50 322.49 L 845.81 322.49 L 846.13 320.76 L 846.45 320.04 L 846.76 318.54 L 847.08 314.69 L 847.40 312.95 L 847.71 311.37 L 848.03 309.80 L 848.35 307.78 L 848.66 305.50 L 848.98 302.55 L 849.30 300.40 L 849.61 298.17 L 849.93 296.03 L 850.24 294.22 L 850.56 292.22 L 850.88 290.41 L 851.19 289.32 L 851.51 287.62 L 851.83 285.21 L 852.14 284.34 L 852.46 281.74 L 852.78 279.26 L 853.09 276.54 L 853.41 275.69 L 853.73 273.93 L 854.04 272.25 L 854.36 270.47 L 854.68 268.26 L 854.99 266.10 L 855.31 264.40 L 855.63 263.82 L 855.94 260.23 L 856.26 259.20 L 856.58 258.54 L 856.89 256.98 L 857.21 255.73 L 857.52 254.93 L 857.84 253.97 L 858.16 251.39 L 858.47 249.87 L 858.79 246.72 L 859.11 246.19 L 859.42 243.81 L 859.74 242.69 L 860.06 241.09 L 860.37 240.12 L 860.69 240.12 L 861.01 240.99 L 861.32 240.12 L 861.64 238.88 L 861.96 238.39 L 862.27 237.52 L 862.59 236.22 L 862.91 235.66 L 863.22 234.92 L 863.54 233.18 L 863.86 231.14 L 864.17 227.32 L 864.49 226.50 L 864.81 224.51 L 865.12 222.54 L 865.44 221.31 L 865.75 219.31 L 866.07 218.44 L 866.39 215.84 L 866.70 214.11 L 867.02 211.51 L 867.34 210.64 L 867.65 209.77 L 867.97 209.02 L 868.29 208.04 L 868.60 207.03 L 868.92 206.30 L 869.24 203.70 L 869.55 200.89 L 869.87 198.99 L 870.19 197.81 L 870.50 196.77 L 870.82 195.78 L 871.14 194.16 L 871.45 192.51 L 871.77 193.30 L 872.09 191.78 L 872.40 189.04 L 872.72 187.24 L 873.03 188.10 L 873.35 186.54 L 873.67 185.49 L 873.98 184.84 L 874.30 184.63 L 874.62 185.49 L 874.93 186.36 L 875.25 185.49 L 875.57 184.36 L 875.88 183.76 L 876.20 181.88 L 876.52 180.20 L 876.83 178.70 L 877.15 176.82 L 877.47 175.96 L 877.78 174.72 L 878.10 174.22 L 878.42 173.37 L 878.73 170.75 L 879.05 169.89 L 879.37 168.33 L 879.68 168.15 L 880.00 168.50 L 880.32 169.02 L 880.63 169.03 L 880.95 170.75 L 881.26 171.26 L 881.58 170.86 L 881.90 170.75 L 882.21 171.62 L 882.53 170.75 L 882.85 169.57 L 883.16 167.28 L 883.48 165.55 L 883.80 165.55 L 884.11 164.82 L 884.43 164.14 L 884.75 162.95 L 885.06 162.08 L 885.38 161.36 L 885.70 162.08 L 886.01 162.77 L 886.33 164.07 L 886.65 166.68 L 886.96 169.02 L 887.28 169.08 L 887.60 170.75 L 887.91 171.62 L 888.23 171.62 L 888.54 171.62 L 888.86 171.99 L 889.18 173.75 L 889.49 175.50 L 889.81 176.36 L 890.13 176.82 L 890.44 176.82 L 890.76 176.82 L 891.08 176.82 L 891.39 176.82 L 891.71 175.24 L 892.03 174.22 L 892.34 173.87 L 892.66 172.49 L 892.98 173.35 L 893.29 175.96 L 893.61 176.82 L 893.93 177.69 L 894.24 178.23 L 894.56 176.11 L 894.88 176.82 L 895.19 177.58 L 895.51 177.74 L 895.82 179.69 L 896.14 180.29 L 896.46 180.15 L 896.77 179.80 L 897.09 179.64 L 897.41 180.19 L 897.72 181.16 L 898.04 182.28 L 898.36 183.43 L 898.67 184.39 L 898.99 182.97 L 899.31 183.76 L 899.62 183.02 L 899.94 181.16 L 900.26 180.94 L 900.57 178.62 L 900.89 176.43 L 901.21 174.28 L 901.52 172.08 L 901.84 170.84 L 902.16 168.15 L 902.47 166.42 L 902.79 168.23 L 903.11 164.15 L 903.42 162.91 L 903.74 160.78 L 904.05 162.46 L 904.37 162.38 L 904.69 160.46 L 905.00 158.61 L 905.32 157.09 L 905.64 154.28 L 905.95 152.66 L 906.27 150.77 L 906.59 150.81 L 906.90 149.94 L 907.22 148.73 L 907.54 147.34 L 907.85 145.41 L 908.17 144.74 L 908.49 143.87 L 908.80 144.83 L 909.12 145.69 L 909.44 147.16 L 909.75 148.21 L 910.07 150.57 L 910.39 152.20 L 910.70 154.28 L 911.02 155.15 L 911.33 156.84 L 911.65 159.23 L 911.97 162.49 L 912.28 163.04 L 912.60 165.03 L 912.92 167.00 L 913.23 166.42 L 913.55 167.04 L 913.87 166.43 L 914.18 167.29 L 914.50 168.15 L 914.82 170.24 L 915.13 170.75 L 915.45 171.59 L 915.77 171.62 L 916.08 171.62 L 916.40 170.76 L 916.72 169.22 L 917.03 169.02 L 917.35 169.89 L 917.67 171.61 L 917.98 170.42 L 918.30 169.02 L 918.62 167.72 L 918.93 167.29 L 919.25 167.29 L 919.56 166.42 L 919.88 165.14 L 920.20 164.41 L 920.51 163.82 L 920.83 163.82 L 921.15 164.51 L 921.46 163.27 L 921.78 161.70 L 922.10 160.30 L 922.41 159.48 L 922.73 159.48 L 923.05 158.19 L 923.36 156.88 L 923.68 156.88 L 924.00 156.88 L 924.31 158.10 L 924.63 158.28 L 924.95 156.00 L 925.26 154.42 L 925.58 156.01 L 925.90 156.97 L 926.21 158.61 L 926.53 158.61 L 926.84 159.13 L 927.16 160.35 L 927.48 160.35 L 927.79 161.36 L 928.11 162.10 L 928.43 162.58 L 928.74 162.08 L 929.06 162.08 L 929.38 161.24 L 929.69 159.86 L 930.01 156.88 L 930.33 156.88 L 930.64 156.88 L 930.96 156.88 L 931.28 156.37 L 931.59 154.28 L 931.91 156.64 L 932.23 157.75 L 932.54 156.88 L 932.86 156.88 L 933.18 159.48 L 933.49 160.35 L 933.81 161.45 L 934.13 162.63 L 934.44 162.95 L 934.76 162.28 L 935.07 160.77 L 935.39 160.35 L 935.71 160.35 L 936.02 160.88 L 936.34 160.35 L 936.66 160.35 L 936.97 159.54 L 937.29 157.75 L 937.61 155.96 L 937.92 154.28 L 938.24 154.28 L 938.56 155.15 L 938.87 155.71 L 939.19 156.01 L 939.51 156.81 L 939.82 156.14 L 940.14 157.10 L 940.46 158.61 L 940.77 158.61 L 941.09 159.23 L 941.41 163.19 L 941.72 164.68 L 942.04 167.29 L 942.35 170.94 L 942.67 173.61 L 942.99 176.87 L 943.30 178.40 L 943.62 176.49 L 943.94 175.09 L 944.25 174.22 L 944.57 174.22 L 944.89 175.09 L 945.20 175.09 L 945.52 175.09 L 945.84 175.96 L 946.15 176.82 L 946.47 177.63 L 946.79 179.22 L 947.10 179.25 L 947.42 178.52 L 947.74 176.47 L 948.05 175.09 L 948.37 172.87 L 948.69 171.62 L 949.00 171.00 L 949.32 170.46 L 949.63 169.02 L 949.95 167.59 L 950.27 167.29 L 950.58 166.63 L 950.90 165.66 L 951.22 165.55 L 951.53 165.55 L 951.85 166.49 L 952.17 168.47 L 952.48 169.02 L 952.80 167.04 L 953.12 165.55 L 953.43 165.95 L 953.75 167.29 L 954.07 167.29 L 954.38 167.48 L 954.70 169.02 L 955.02 169.02 L 955.33 170.42 L 955.65 171.62 L 955.97 172.86 L 956.28 174.29 L 956.60 175.27 L 956.92 176.21 L 957.23 177.96 L 957.55 178.88 L 957.86 180.17 L 958.18 182.03 L 958.50 183.41 L 958.81 184.13 L 959.13 185.49 L 959.45 189.44 L 959.76 190.71 L 960.08 192.50 L 960.40 194.16 L 960.71 195.64 L 961.03 196.72 L 961.35 198.33 L 961.66 200.02 L 961.98 200.24 L 962.30 201.10 L 962.61 202.51 L 962.93 203.63 L 963.25 205.44 L 963.56 206.76 L 963.88 207.70 L 964.20 209.48 L 964.51 210.59 L 964.83 212.63 L 965.14 215.61 L 965.46 216.56 L 965.78 217.48 L 966.09 219.31 L 966.41 220.36 L 966.73 223.37 L 967.04 224.51 L 967.36 226.57 L 967.68 227.98 L 967.99 229.72 L 968.31 231.45 L 968.63 233.19 L 968.94 234.53 L 969.26 235.98 L 969.58 239.02 L 969.89 240.99 L 970.21 241.85 L 970.53 242.72 L 970.84 243.68 L 971.16 247.21 L 971.48 248.52 L 971.79 250.03 L 972.11 251.50 L 972.43 252.54 L 972.74 254.86 L 973.06 256.42 L 973.37 256.59 L 973.69 257.81 L 974.01 258.62 L 974.32 259.26 L 974.64 260.36 L 974.96 260.93 L 975.27 262.61 L 975.59 264.40 L 975.91 264.40 L 976.22 264.40 L 976.54 265.27 L 976.86 265.27 L 977.17 265.27 L 977.49 266.13 L 977.81 268.21 L 978.12 268.73 L 978.44 269.60 L 978.76 267.87 L 979.07 267.00 L 979.39 267.66 L 979.71 268.73 L 980.02 269.60 L 980.34 270.33 L 980.65 269.74 L 980.97 270.49 L 981.29 271.33 L 981.60 271.51 L 981.92 272.20 L 982.24 272.20 L 982.55 273.07 L 982.87 273.07 L 983.19 273.78 L 983.50 274.16 L 983.82 275.24 L 984.14 275.67 L 984.45 275.67 L 984.77 275.30 L 985.09 273.94 L 985.40 273.94 L 985.72 273.94 L 986.04 272.20 L 986.35 270.84 L 986.67 269.60 L 986.99 269.60 L 987.30 269.60 L 987.62 268.73 L 987.94 269.61 L 988.25 272.40 L 988.57 273.07 L 988.88 272.20 L 989.20 272.20 L 989.52 272.65 L 989.83 273.07 L 990.15 273.94 L 990.47 273.94 L 990.78 274.73 L 991.10 275.67 L 991.42 277.24 L 991.73 280.87 L 992.05 280.87 L 992.37 280.87 L 992.68 280.01 L 993.00 279.14 L 993.32 279.14 L 993.63 279.77 L 993.95 280.49 L 994.27 282.31 L 994.58 283.47 L 994.90 283.72 L 995.22 284.34 L 995.53 284.34 L 995.85 284.34 L 996.16 285.64 L 996.48 286.87 L 996.80 287.81 L 997.11 287.94 L 997.43 286.08 L 997.75 287.00 L 998.06 288.68 L 998.38 288.68 L 998.70 288.68 L 999.01 289.54 L 999.33 290.41 L 999.65 291.28 L 999.96 292.36 L 1000.28 293.79 L 1000.60 293.41 L 1000.91 293.01 L 1001.23 293.95 L 1001.55 294.75 L 1001.86 295.17 L 1002.18 295.61 L 1002.50 296.48 L 1002.81 298.09 L 1003.13 299.76 L 1003.44 299.21 L 1003.76 297.90 L 1004.08 296.71 L 1004.39 295.95 L 1004.71 294.75 L 1005.03 293.88 L 1005.34 291.42 L 1005.66 290.41 L 1005.98 290.41 L 1006.29 290.41 L 1006.61 290.41 L 1006.93 290.41 L 1007.24 290.41 L 1007.56 289.44 L 1007.88 288.56 L 1008.19 288.14 L 1008.51 289.71 L 1008.83 290.74 L 1009.14 291.28 L 1009.46 290.41 L 1009.78 289.54 L 1010.09 289.54 L 1010.41 289.54 L 1010.73 289.54 L 1011.04 289.54 L 1011.36 289.54 L 1011.67 289.20 L 1011.99 287.49 L 1012.31 286.76 L 1012.62 286.08 L 1012.94 286.08 L 1013.26 286.08 L 1013.57 286.08 L 1013.89 286.08 L 1014.21 285.62 L 1014.52 284.34 L 1014.84 282.61 L 1015.16 282.61 L 1015.47 281.74 L 1015.79 281.74 L 1016.11 280.46 L 1016.42 280.01 L 1016.74 279.14 L 1017.06 278.05 L 1017.37 276.43 L 1017.69 274.80 L 1018.01 273.30 L 1018.32 273.94 L 1018.64 273.94 L 1018.95 273.40 L 1019.27 273.07 L 1019.59 273.06 L 1019.90 270.47 L 1020.22 269.60 L 1020.54 269.58 L 1020.85 270.47 L 1021.17 269.60 L 1021.49 268.63 L 1021.80 266.51 L 1022.12 259.61 L 1022.44 265.27 L 1022.75 264.92 L 1023.07 264.40 L 1023.39 263.67 L 1023.70 262.51 L 1024.02 261.78 L 1024.34 260.93 L 1024.65 260.49 L 1024.97 259.03 L 1025.29 253.17 L 1025.60 257.37 L 1025.92 256.59 L 1026.24 255.73 L 1026.55 254.86 L 1026.87 254.21 L 1027.18 253.88 L 1027.50 252.54 L 1027.82 251.40 L 1028.13 251.39 L 1028.45 250.52 L 1028.77 250.34 L 1029.08 249.66 L 1029.40 248.79 L 1029.72 247.92 L 1030.03 247.06 L 1030.35 245.73 L 1030.67 245.23 L 1030.98 244.46 L 1031.30 242.96 L 1031.62 242.57 L 1031.93 241.62 L 1032.25 240.93 L 1032.57 239.25 L 1032.88 238.52 L 1033.20 237.94 L 1033.52 236.69 L 1033.83 234.71 L 1034.15 233.07 L 1034.46 231.45 L 1034.78 230.58 L 1035.10 230.58 L 1035.41 228.85 L 1035.73 227.98 L 1036.05 225.38 L 1036.36 225.38 L 1036.68 224.84 L 1037.00 224.51 L 1037.31 224.51 L 1037.63 223.65 L 1037.95 222.78 L 1038.26 221.37 L 1038.58 220.58 L 1038.90 219.98 L 1039.21 218.84 L 1039.53 218.44 L 1039.85 219.31 L 1040.16 221.99 L 1040.48 224.55 L 1040.80 225.93 L 1041.11 226.25 L 1041.43 227.11 L 1041.74 227.98 L 1042.06 227.98 L 1042.38 227.70 L 1042.69 227.11 L 1043.01 227.11 L 1043.33 226.25 L 1043.64 225.38 L 1043.96 224.96 L 1044.28 223.65 L 1044.59 223.65 L 1044.91 223.65 L 1045.23 223.65 L 1045.54 223.65 L 1045.86 223.10 L 1046.18 222.77 L 1046.49 221.04 L 1046.81 221.04 L 1047.13 221.04 L 1047.44 221.04 L 1047.76 221.91 L 1048.08 221.91 L 1048.39 221.91 L 1048.71 222.78 L 1049.03 223.65 L 1049.34 224.11 L 1049.66 224.97 L 1049.97 226.60 L 1050.29 227.11 L 1050.61 227.11 L 1050.92 226.54 L 1051.24 225.28 L 1051.56 224.51 L 1051.87 223.65 L 1052.19 223.65 L 1052.51 223.65 L 1052.82 222.07 L 1053.14 220.78 L 1053.46 220.18 L 1053.77 218.95 L 1054.09 217.96 L 1054.41 216.73 L 1054.72 216.71 L 1055.04 217.13 L 1055.36 217.58 L 1055.67 217.58 L 1055.99 217.58 L 1056.31 217.25 L 1056.62 215.56 L 1056.94 214.97 L 1057.25 214.11 L 1057.57 213.24 L 1057.89 212.37 L 1058.20 211.08 L 1058.52 209.39 L 1058.84 207.24 L 1059.15 207.17 L 1059.47 206.30 L 1059.79 206.62 L 1060.10 207.65 L 1060.42 207.48 L 1060.74 206.30 L 1061.05 206.68 L 1061.37 208.91 L 1061.69 208.84 L 1062.00 208.04 L 1062.32 207.31 L 1062.64 205.95 L 1062.95 205.44 L 1063.27 205.44 L 1063.59 204.57 L 1063.90 203.70 L 1064.22 203.83 L 1064.54 203.70 L 1064.85 203.99 L 1065.17 204.57 L 1065.48 205.93 L 1065.80 207.17 L 1066.12 207.17 L 1066.43 208.04 L 1066.75 208.91 L 1067.07 208.68 L 1067.38 206.51 L 1067.70 205.90 L 1068.02 206.30 L 1068.33 207.01 L 1068.65 206.30 L 1068.97 206.30 L 1069.28 206.30 L 1069.60 206.30 L 1069.92 205.44 L 1070.23 204.57 L 1070.55 203.79 L 1070.87 203.38 L 1071.18 202.84 L 1071.50 200.23 L 1071.82 199.37 L 1072.13 199.37 L 1072.45 198.50 L 1072.76 197.70 L 1073.08 196.39 L 1073.40 195.03 L 1073.71 195.03 L 1074.03 194.16 L 1074.35 193.30 L 1074.66 192.34 L 1074.98 191.56 L 1075.30 190.70 L 1075.61 189.83 L 1075.93 188.60 L 1076.25 187.39 L 1076.56 187.23 L 1076.88 187.23 L 1077.20 188.10 L 1077.51 187.23 L 1077.83 185.68 L 1078.15 183.76 L 1078.46 182.89 L 1078.78 181.16 L 1079.10 178.54 L 1079.41 176.82 L 1079.73 174.22 L 1080.05 173.35 L 1080.36 172.74 L 1080.68 170.19 L 1080.99 169.02 L 1081.31 168.37 L 1081.63 167.39 L 1081.94 167.29 L 1082.26 167.29 L 1082.58 166.42 L 1082.89 165.55 L 1083.21 163.94 L 1083.53 163.16 L 1083.84 162.28 L 1084.16 161.22 L 1084.48 160.90 L 1084.79 160.02 L 1085.11 159.48 L 1085.43 159.48 L 1085.74 158.61 L 1086.06 159.02 L 1086.38 159.94 L 1086.69 160.96 L 1087.01 162.00 L 1087.33 162.95 L 1087.64 163.88 L 1087.96 165.25 L 1088.27 166.42 L 1088.59 168.68 L 1088.91 170.47 L 1089.22 172.49 L 1089.54 173.19 L 1089.86 175.09 L 1090.17 177.69 L 1090.49 178.86 L 1090.81 180.64 L 1091.12 183.17 L 1091.44 184.11 L 1091.76 184.63 L 1092.07 184.63 L 1092.39 184.63 L 1092.71 184.63 L 1093.02 185.68 L 1093.34 186.41 L 1093.66 189.83 L 1093.97 192.15 L 1094.29 194.40 L 1094.61 196.67 L 1094.92 197.63 L 1095.24 200.11 L 1095.55 202.69 L 1095.87 205.35 L 1096.19 207.17 L 1096.50 208.04 L 1096.82 208.91 L 1097.14 209.54 L 1097.45 210.64 L 1097.77 212.37 L 1098.09 214.11 L 1098.40 213.24 L 1098.72 213.24 L 1099.04 213.24 L 1099.35 213.24 L 1099.67 213.24 L 1099.99 214.11 L 1100.30 214.11 L 1100.62 214.63 L 1100.94 213.55 L 1101.25 213.24 L 1101.57 214.47 L 1101.89 217.39 L 1102.20 218.28 L 1102.52 219.89 L 1102.84 220.67 L 1103.15 221.70 L 1103.47 222.72 L 1103.78 223.39 L 1104.10 222.78 L 1104.42 221.91 L 1104.73 222.61 L 1105.05 223.98 L 1105.37 225.35 L 1105.68 226.09 L 1106.00 226.55 L 1106.32 228.32 L 1106.63 228.57 L 1106.95 227.11 L 1107.27 227.11 L 1107.58 226.25 L 1107.90 225.34 L 1108.22 223.99 L 1108.53 223.00 L 1108.85 221.93 L 1109.17 222.28 L 1109.48 221.91 L 1109.80 222.63 L 1110.12 221.48 L 1110.43 219.87 L 1110.75 219.31 L 1111.06 221.91 L 1111.38 223.65 L 1111.70 224.83 L 1112.01 225.54 L 1112.33 226.25 L 1112.65 226.35 L 1112.96 227.41 L 1113.28 227.98 L 1113.60 227.98 L 1113.91 227.96 L 1114.23 227.11 L 1114.55 226.63 L 1114.86 226.25 L 1115.18 226.25 L 1115.50 226.25 L 1115.81 226.79 L 1116.13 227.11 L 1116.45 227.98 L 1116.76 227.59 L 1117.08 227.11 L 1117.40 227.11 L 1117.71 226.25 L 1118.03 225.61 L 1118.35 223.66 L 1118.66 222.20 L 1118.98 221.04 L 1119.29 220.32 L 1119.61 220.18 L 1119.93 221.04 L 1120.24 222.26 L 1120.56 222.78 L 1120.88 222.78 L 1121.19 222.65 L 1121.51 221.27 L 1121.83 220.05 L 1122.14 217.78 L 1122.46 215.71 L 1122.78 214.97 L 1123.09 214.98 L 1123.41 216.21 L 1123.73 215.84 L 1124.04 215.84 L 1124.36 215.45 L 1124.68 214.76 L 1124.99 214.11 L 1125.31 212.91 L 1125.63 211.51 L 1125.94 210.20 L 1126.26 208.28 L 1126.57 206.30 L 1126.89 205.44 L 1127.21 204.57 L 1127.52 204.57 L 1127.84 204.57 L 1128.16 203.80 L 1128.47 202.22 L 1128.79 202.04 L 1129.11 202.84 L 1129.42 203.12 L 1129.74 205.40 L 1130.06 208.32 L 1130.37 210.64 L 1130.69 211.51 L 1131.01 213.65 L 1131.32 215.14 L 1131.64 216.59 L 1131.96 219.11 L 1132.27 224.66 L 1132.59 227.13 L 1132.91 230.07 L 1133.22 231.27 L 1133.54 231.34 L 1133.86 232.14 L 1134.17 234.05 L 1134.49 235.78 L 1134.80 236.54 L 1135.12 237.61 L 1135.44 240.12 L 1135.75 242.55 L 1136.07 244.46 L 1136.39 247.06 L 1136.70 248.79 L 1137.02 249.09 L 1137.34 249.66 L 1137.65 249.66 L 1137.97 248.90 L 1138.29 251.09 L 1138.60 254.27 L 1138.92 256.59 L 1139.24 258.32 L 1139.55 260.06 L 1139.87 260.74 L 1140.19 261.80 L 1140.50 263.53 L 1140.82 263.53 L 1141.14 263.90 L 1141.45 265.27 L 1141.77 266.06 L 1142.08 266.65 L 1142.40 268.71 L 1142.72 269.60 L 1143.03 268.72 L 1143.35 266.13 L 1143.67 261.86 L 1143.98 260.68 L 1144.30 259.28 L 1144.62 258.33 L 1144.93 257.46 L 1145.25 256.59 L 1145.57 256.59 L 1145.88 256.55 L 1146.20 255.29 L 1146.52 254.20 L 1146.83 252.36 L 1147.15 252.26 L 1147.47 251.39 L 1147.78 252.01 L 1148.10 250.52 L 1148.42 249.66 L 1148.73 249.81 L 1149.05 250.52 L 1149.36 249.75 L 1149.68 250.52 L 1150.00 250.52 L 1150.31 250.52 L 1150.63 252.33 L 1150.95 253.99 L 1151.26 255.85 L 1151.58 259.69 L 1151.90 263.14 L 1152.21 265.17 L 1152.53 267.01 L 1152.85 268.94 L 1153.16 269.60 L 1153.48 270.47 L 1153.80 272.91 L 1154.11 275.67 L 1154.43 276.62 L 1154.75 277.40 L 1155.06 276.71 L 1155.38 275.67 L 1155.70 274.52 L 1156.01 273.22 L 1156.33 272.20 L 1156.65 271.44 L 1156.96 271.33 L 1157.28 268.72 L 1157.59 267.48 L 1157.91 265.27 L 1158.23 264.40 L 1158.54 262.28 L 1158.86 259.41 L 1159.18 257.46 L 1159.49 256.41 L 1159.81 253.99 L 1160.13 249.66 L 1160.44 247.31 L 1160.76 245.30 L 1161.08 241.83 L 1161.39 237.49 L 1161.71 235.78 L 1162.03 233.90 L 1162.34 232.68 L 1162.66 232.32 L 1162.98 230.00 L 1163.29 229.17 L 1163.61 227.31 L 1163.93 227.11 L 1164.24 223.62 L 1164.56 221.04 L 1164.87 219.31 L 1165.19 217.02 L 1165.51 213.87 L 1165.82 212.37 L 1166.14 211.51 L 1166.46 210.64 L 1166.77 211.50 L 1167.09 211.80 L 1167.41 212.37 L 1167.72 212.37 L 1168.04 213.24 L 1168.36 213.47 L 1168.67 214.68 L 1168.99 215.84 L 1169.31 217.19 L 1169.62 217.58 L 1169.94 217.58 L 1170.26 217.58 L 1170.57 217.58 L 1170.89 216.71 L 1171.21 215.84 L 1171.52 215.69 L 1171.84 215.36 L 1172.16 216.71 L 1172.47 216.71 L 1172.79 215.84 L 1173.10 215.84 L 1173.42 215.84 L 1173.74 215.94 L 1174.05 216.11 L 1174.37 214.23 L 1174.69 214.11 L 1175.00 212.37 L 1175.32 213.08 L 1175.64 212.17 L 1175.95 211.51 L 1176.27 211.51 L 1176.59 211.51 L 1176.90 211.51 L 1177.22 211.51 L 1177.54 212.37 L 1177.85 213.21 L 1178.17 212.37 L 1178.49 213.89 L 1178.80 214.97 L 1179.12 217.47 L 1179.44 218.44 L 1179.75 219.19 L 1180.07 219.31 L 1180.38 220.91 L 1180.70 221.91 L 1181.02 221.91 L 1181.33 221.05 L 1181.65 223.42 L 1181.97 225.86 L 1182.28 225.41 L 1182.60 223.65 L 1182.92 224.41 L 1183.23 225.46 L 1183.55 226.75 L 1183.87 227.27 L 1184.18 226.98 L 1184.50 226.45 L 1184.82 227.64 L 1185.13 227.98 L 1185.45 226.35 L 1185.77 225.38 L 1186.08 225.38 L 1186.40 224.51 L 1186.72 222.78 L 1187.03 221.91 L 1187.35 221.91 L 1187.67 221.91 L 1187.98 220.51 L 1188.30 219.31 L 1188.61 218.44 L 1188.93 217.75 L 1189.25 216.71 L 1189.56 216.71 L 1189.88 217.65 L 1190.20 218.41 L 1190.51 217.96 L 1190.83 218.44 L 1191.15 220.18 L 1191.46 220.81 L 1191.78 221.91 L 1192.10 222.85 L 1192.41 223.60 L 1192.73 222.79 L 1193.05 222.20 L 1193.36 221.04 L 1193.68 218.44 L 1194.00 217.46 L 1194.31 215.84 L 1194.63 214.54 L 1194.95 214.11 L 1195.26 213.24 L 1195.58 213.18 L 1195.89 212.41 L 1196.21 211.51 L 1196.53 210.35 L 1196.84 208.91 L 1197.16 208.11 L 1197.48 207.17 L 1197.79 206.30 L 1198.11 205.44 L 1198.43 204.85 L 1198.74 204.57 L 1199.06 205.44 L 1199.38 205.61 L 1199.69 207.08 L 1200.01 207.41 L 1200.33 208.04 L 1200.64 208.04 L 1200.96 207.17 L 1201.28 206.05 L 1201.59 205.44 L 1201.91 205.22 L 1202.23 203.85 L 1202.54 202.45 L 1202.86 200.23 L 1203.17 197.78 L 1203.49 196.38 L 1203.81 193.75 L 1204.12 191.56 L 1204.44 191.56 L 1204.76 191.01 L 1205.07 193.30 L 1205.39 194.16 L 1205.71 194.16 L 1206.02 193.58 L 1206.34 194.16 L 1206.66 193.50 L 1206.97 192.43 L 1207.29 191.56 L 1207.61 189.62 L 1207.92 186.44 L 1208.24 185.65 L 1208.56 183.76 L 1208.87 182.03 L 1209.19 182.03 L 1209.51 182.29 L 1209.82 182.03 L 1210.14 182.03 L 1210.46 182.03 L 1210.77 182.00 L 1211.09 181.16 L 1211.40 181.63 L 1211.72 180.01 L 1212.04 179.42 L 1212.35 179.42 L 1212.67 180.44 L 1212.99 179.42 L 1213.30 178.73 L 1213.62 175.96 L 1213.94 176.05 L 1214.25 176.82 L 1214.57 176.82 L 1214.89 176.82 L 1215.20 176.82 L 1215.52 176.82 L 1215.84 177.69 L 1216.15 179.12 L 1216.47 180.97 L 1216.79 182.03 L 1217.10 182.03 L 1217.42 182.03 L 1217.74 182.71 L 1218.05 181.18 L 1218.37 182.03 L 1218.68 182.03 L 1219.00 182.03 L 1219.32 182.71 L 1219.63 182.89 L 1219.95 182.04 L 1220.27 181.16 L 1220.58 180.21 L 1220.90 180.14 L 1221.22 182.03 L 1221.53 182.03 L 1221.85 181.95 L 1222.17 181.16 L 1222.48 181.16 L 1222.80 181.16 L 1223.12 181.61 L 1223.43 182.89 L 1223.75 183.76 L 1224.07 183.76 L 1224.38 182.95 L 1224.70 183.31 L 1225.02 184.63 L 1225.33 183.94 L 1225.65 183.76 L 1225.97 182.89 L 1226.28 183.93 L 1226.60 184.63 L 1226.91 184.63 L 1227.23 184.73 L 1227.55 185.49 L 1227.86 185.49 L 1228.18 184.08 L 1228.50 182.51 L 1228.81 181.40 L 1229.13 180.53 L 1229.45 179.42 L 1229.76 177.54 L 1230.08 176.48 L 1230.40 175.96 L 1230.71 173.35 L 1231.03 170.75 L 1231.35 169.30 L 1231.66 169.02 L 1231.98 168.15 L 1232.30 167.29 L 1232.61 163.82 L 1232.93 161.89 L 1233.25 160.35 L 1233.56 159.44 L 1233.88 158.61 L 1234.19 157.75 L 1234.51 156.64 L 1234.83 155.15 L 1235.14 153.41 L 1235.46 152.74 L 1235.78 154.06 L 1236.09 155.05 L 1236.41 156.11 L 1236.73 158.51 L 1237.04 162.08 L 1237.36 164.59 L 1237.68 166.42 L 1237.99 167.85 L 1238.31 168.72 L 1238.63 169.73 L 1238.94 171.26 L 1239.26 173.29 L 1239.58 175.28 L 1239.89 178.00 L 1240.21 180.86 L 1240.53 184.22 L 1240.84 187.54 L 1241.16 189.44 L 1241.47 192.14 L 1241.79 193.42 L 1242.11 195.28 L 1242.42 197.48 L 1242.74 198.63 L 1243.06 200.20 L 1243.37 201.24 L 1243.69 202.76 L 1244.01 203.67 L 1244.32 204.37 L 1244.64 205.39 L 1244.96 206.30 L 1245.27 207.17 L 1245.59 206.82 L 1245.91 206.30 L 1246.22 206.64 L 1246.54 206.30 L 1246.86 205.47 L 1247.17 204.75 L 1247.49 205.44 L 1247.81 206.52 L 1248.12 208.53 L 1248.44 209.77 L 1248.76 211.00 L 1249.07 212.37 L 1249.39 213.24 L 1249.70 215.84 L 1250.02 218.08 L 1250.34 220.55 L 1250.65 222.41 L 1250.97 225.66 L 1251.29 227.98 L 1251.60 229.85 L 1251.92 232.18 L 1252.24 234.95 L 1252.55 236.79 L 1252.87 239.00 L 1253.19 241.01 L 1253.50 243.69 L 1253.82 246.19 L 1254.14 248.59 L 1254.45 252.66 L 1254.77 254.46 L 1255.09 255.73 L 1255.40 257.46 L 1255.72 259.10 L 1256.04 260.06 L 1256.35 261.04 L 1256.67 261.99 L 1256.98 263.41 L 1257.30 264.40 L 1257.62 265.72 L 1257.93 267.69 L 1258.25 268.73 L 1258.57 270.02 L 1258.88 271.90 L 1259.20 273.94 L 1259.52 273.94 L 1259.83 277.41 L 1260.15 280.16 L 1260.47 281.91 L 1260.78 283.47 L 1261.10 284.64 L 1261.42 285.93 L 1261.73 286.94 L 1262.05 287.81 L 1262.37 288.68 L 1262.68 289.54 L 1263.00 290.41 L 1263.32 292.00 L 1263.63 293.18 L 1263.95 295.08 L 1264.27 296.24 L 1264.58 297.70 L 1264.90 299.27 L 1265.21 300.82 L 1265.53 302.61 L 1265.85 303.96 L 1266.16 305.15 L 1266.48 306.49 L 1266.80 307.63 L 1267.11 309.49 L 1267.43 311.35 L 1267.75 312.58 L 1268.06 313.67 L 1268.38 315.47 L 1268.70 317.29 L 1269.01 319.07 L 1269.33 321.12 L 1269.65 323.22 L 1269.96 325.29 L 1270.28 327.72 L 1270.60 329.06 L 1270.91 330.64 L 1271.23 332.03 L 1271.55 333.18 L 1271.86 335.02 L 1272.18 337.04 L 1272.49 338.30 L 1272.81 340.70 L 1273.13 344.17 L 1273.44 345.78 L 1273.76 347.64 L 1274.08 352.59 L 1274.39 353.71 L 1274.71 354.11 L 1275.03 353.71 L 1275.34 354.42 L 1275.66 354.98 L 1275.98 357.01 L 1276.29 358.04 L 1276.61 358.04 L 1276.93 357.18 L 1277.24 357.18 L 1277.56 358.91 L 1277.88 360.64 L 1278.19 362.38 L 1278.51 364.03 L 1278.83 365.52 L 1279.14 366.75 L 1279.46 367.85 L 1279.78 368.72 L 1280.09 370.17 L 1280.41 371.05 L 1280.72 372.05 L 1281.04 373.54 L 1281.36 374.78 L 1281.67 376.93 L 1281.99 379.27 L 1282.31 380.59 L 1282.62 381.71 L 1282.94 383.37 L 1283.26 385.47 L 1283.57 386.66 L 1283.89 388.47 L 1284.21 389.34 L 1284.52 390.99 L 1284.84 391.29 L 1285.16 391.86 L 1285.47 391.21 L 1285.79 390.99 L 1286.11 390.28 L 1286.42 389.57 L 1286.74 389.98 L 1287.06 390.12 L 1287.37 389.66 L 1287.69 388.49 L 1288.00 386.85 L 1288.32 386.66 L 1288.64 386.66 L 1288.95 387.21 L 1289.27 388.39 L 1289.59 387.52 L 1289.90 387.52 L 1290.22 387.52 L 1290.54 386.68 L 1290.85 387.52 L 1291.17 387.52 L 1291.49 387.52 L 1291.80 387.52 L 1292.12 387.52 L 1292.44 387.14 L 1292.75 386.66 L 1293.07 386.66 L 1293.39 385.79 L 1293.70 385.79 L 1294.02 385.79 L 1294.34 385.31 L 1294.65 384.92 L 1294.97 384.06 L 1295.28 384.06 L 1295.60 382.80 L 1295.92 382.32 L 1296.23 382.32 L 1296.55 381.45 L 1296.87 380.59 L 1297.18 379.72 L 1297.50 378.85 L 1297.82 377.99 L 1298.13 377.99 L 1298.45 377.15 L 1298.77 376.30 L 1299.08 376.22 L 1299.40 375.35 L 1299.72 374.52 L 1300.03 373.14 L 1300.35 371.92 L 1300.67 371.05 L 1300.98 370.66 L 1301.30 369.31 L 1301.62 367.14 L 1301.93 364.98 L 1302.25 362.27 L 1302.57 360.64 L 1302.88 359.78 L 1303.20 357.31 L 1303.51 354.57 L 1303.83 352.56 L 1304.15 351.11 L 1304.46 351.11 L 1304.78 351.03 L 1305.10 351.11 L 1305.41 351.11 L 1305.73 350.24 L 1306.05 350.24 L 1306.36 350.60 L 1306.68 351.11 L 1307.00 350.24 L 1307.31 350.24 L 1307.63 351.11 L 1307.95 351.11 L 1308.26 351.11 L 1308.58 351.11 L 1308.90 351.14 L 1309.21 351.97 L 1309.53 352.84 L 1309.85 352.84 L 1310.16 352.84 L 1310.48 352.84 L 1310.79 353.15 L 1311.11 353.71 L 1311.43 353.71 L 1311.74 354.57 L 1312.06 353.71 L 1312.38 353.71 L 1312.69 353.71 L 1313.01 353.71 L 1313.33 354.57 L 1313.64 355.19 L 1313.96 355.44 L 1314.28 356.31 L 1314.59 356.31 L 1314.91 357.88 L 1315.23 358.90 L 1315.54 360.64 L 1315.86 362.51 L 1316.18 364.23 L 1316.49 365.85 L 1316.81 367.81 L 1317.13 369.84 L 1317.44 371.49 L 1317.76 374.11 L 1318.08 376.25 L 1318.39 378.95 L 1318.71 380.52 L 1319.02 381.45 L 1319.34 383.84 L 1319.66 386.28 L 1319.97 387.52 L 1320.29 388.39 L 1320.61 389.26 L 1320.92 389.26 L 1321.24 390.12 L 1321.56 390.63 L 1321.87 390.99 L 1322.19 391.86 L 1322.51 392.54 L 1322.82 392.76 L 1323.14 393.59 L 1323.46 394.43 L 1323.77 394.46 L 1324.09 394.46 L 1324.41 394.15 L 1324.72 391.86 L 1325.04 390.30 L 1325.36 386.68 L 1325.67 384.48 L 1325.99 381.45 L 1326.30 377.48 L 1326.62 373.23 L 1326.94 368.62 L 1327.25 365.82 L 1327.57 363.25 L 1327.89 360.38 L 1328.20 357.18 L 1328.52 351.97 L 1328.84 349.37 L 1329.15 344.17 L 1329.47 342.44 L 1329.79 340.70 L 1330.10 339.83 L 1330.42 337.06 L 1330.74 335.50 L 1331.05 335.99 L 1331.37 336.37 L 1331.69 337.23 L 1332.00 337.88 L 1332.32 338.10 L 1332.64 338.97 L 1332.95 339.75 L 1333.27 340.47 L 1333.59 341.16 L 1333.90 341.71 L 1334.22 343.01 L 1334.53 345.14 L 1334.85 345.90 L 1335.17 345.90 L 1335.48 346.56 L 1335.80 346.77 L 1330.00 470.00 Z" fill="url(#profileGrad)" stroke="#3A6B5C" stroke-width="1.5" stroke-linejoin="round"/>
<line x1="70" y1="470" x2="1330" y2="470" stroke="#7A8A8A" stroke-width="1.5"/>
<line x1="70.0" y1="470" x2="70.0" y2="475" stroke="#7A8A8A" stroke-width="1.5"/>
<text x="70.0" y="488" font-family="Arial, sans-serif" font-size="11" fill="#2C3E50" text-anchor="middle" font-weight="600">0</text>
<line x1="196.0" y1="470" x2="196.0" y2="475" stroke="#7A8A8A" stroke-width="1.5"/>
<text x="196.0" y="488" font-family="Arial, sans-serif" font-size="11" fill="#2C3E50" text-anchor="middle" font-weight="600">5</text>
<line x1="322.0" y1="470" x2="322.0" y2="475" stroke="#7A8A8A" stroke-width="1.5"/>
<text x="322.0" y="488" font-family="Arial, sans-serif" font-size="11" fill="#2C3E50" text-anchor="middle" font-weight="600">10</text>
<line x1="448.0" y1="470" x2="448.0" y2="475" stroke="#7A8A8A" stroke-width="1.5"/>
<text x="448.0" y="488" font-family="Arial, sans-serif" font-size="11" fill="#2C3E50" text-anchor="middle" font-weight="600">15</text>
<line x1="574.0" y1="470" x2="574.0" y2="475" stroke="#7A8A8A" stroke-width="1.5"/>
<text x="574.0" y="488" font-family="Arial, sans-serif" font-size="11" fill="#2C3E50" text-anchor="middle" font-weight="600">20</text>
<line x1="700.0" y1="470" x2="700.0" y2="475" stroke="#7A8A8A" stroke-width="1.5"/>
<text x="700.0" y="488" font-family="Arial, sans-serif" font-size="11" fill="#2C3E50" text-anchor="middle" font-weight="600">25</text>
<line x1="826.0" y1="470" x2="826.0" y2="475" stroke="#7A8A8A" stroke-width="1.5"/>
<text x="826.0" y="488" font-family="Arial, sans-serif" font-size="11" fill="#2C3E50" text-anchor="middle" font-weight="600">30</text>
<line x1="952.0" y1="470" x2="952.0" y2="475" stroke="#7A8A8A" stroke-width="1.5"/>
<text x="952.0" y="488" font-family="Arial, sans-serif" font-size="11" fill="#2C3E50" text-anchor="middle" font-weight="600">35</text>
<line x1="1078.0" y1="470" x2="1078.0" y2="475" stroke="#7A8A8A" stroke-width="1.5"/>
<text x="1078.0" y="488" font-family="Arial, sans-serif" font-size="11" fill="#2C3E50" text-anchor="middle" font-weight="600">40</text>
<line x1="1204.0" y1="470" x2="1204.0" y2="475" stroke="#7A8A8A" stroke-width="1.5"/>
<text x="1204.0" y="488" font-family="Arial, sans-serif" font-size="11" fill="#2C3E50" text-anchor="middle" font-weight="600">45</text>
<line x1="1330.0" y1="470" x2="1330.0" y2="475" stroke="#7A8A8A" stroke-width="1.5"/>
<text x="1330.0" y="488" font-family="Arial, sans-serif" font-size="11" fill="#2C3E50" text-anchor="middle" font-weight="600">50</text>
<text x="700.0" y="505" font-family="Arial, sans-serif" font-size="10" fill="#7A8A8A" text-anchor="middle" letter-spacing="3">MILES</text>
<line x1="70.0" y1="418.5" x2="70.0" y2="520" stroke="#E8E8E8" stroke-width="1" stroke-dasharray="2,2"/>
<g class="station-marker" data-index="0" style="cursor:pointer">
<circle cx="70.0" cy="413.5" r="8" fill="#9B6B9E" opacity="0.15"/>
<circle cx="70.0" cy="413.5" r="5" fill="#9B6B9E" stroke="#B88ABB" stroke-width="1.5"/>
</g>
<text x="70.0" y="595" font-family="Arial, sans-serif" font-size="10" fill="#2C3E50" text-anchor="end" transform="rotate(-50 70.0 595)" font-weight="600">Start</text>
<text x="74.0" y="607" font-family="Arial, sans-serif" font-size="8" fill="#7A8A8A" text-anchor="end" transform="rotate(-50 74.0 607)">mi 0</text>
<line x1="238.8" y1="406.1" x2="238.8" y2="520" stroke="#E8E8E8" stroke-width="1" stroke-dasharray="2,2"/>
<g class="station-marker" data-index="1" style="cursor:pointer">
<circle cx="238.8" cy="401.1" r="4" fill="#8AABA3" stroke="#fff" stroke-width="1"/>
</g>
<text x="238.8" y="595" font-family="Arial, sans-serif" font-size="10" fill="#2C3E50" text-anchor="end" transform="rotate(-50 238.8 595)" font-weight="600">Finish Loop #1</text>
<text x="242.8" y="607" font-family="Arial, sans-serif" font-size="8" fill="#7A8A8A" text-anchor="end" transform="rotate(-50 242.8 607)">mi 6.7</text>
<line x1="420.3" y1="415.9" x2="420.3" y2="520" stroke="#E8E8E8" stroke-width="1" stroke-dasharray="2,2"/>
<g class="station-marker" data-index="2" style="cursor:pointer">
<circle cx="420.3" cy="410.9" r="4" fill="#8AABA3" stroke="#fff" stroke-width="1"/>
</g>
<text x="420.3" y="595" font-family="Arial, sans-serif" font-size="10" fill="#2C3E50" text-anchor="end" transform="rotate(-50 420.3 595)" font-weight="600">Finish Loop #2</text>
<text x="424.3" y="607" font-family="Arial, sans-serif" font-size="8" fill="#7A8A8A" text-anchor="end" transform="rotate(-50 424.3 607)">mi 13.9</text>
<line x1="609.3" y1="158.4" x2="609.3" y2="520" stroke="#E8E8E8" stroke-width="1" stroke-dasharray="2,2"/>
<g class="station-marker" data-index="3" style="cursor:pointer">
<circle cx="609.3" cy="153.4" r="4" fill="#8AABA3" stroke="#fff" stroke-width="1"/>
</g>
<text x="609.3" y="595" font-family="Arial, sans-serif" font-size="10" fill="#2C3E50" text-anchor="end" transform="rotate(-50 609.3 595)" font-weight="600">John's Mtn</text>
<text x="613.3" y="607" font-family="Arial, sans-serif" font-size="8" fill="#7A8A8A" text-anchor="end" transform="rotate(-50 613.3 607)">mi 21.4</text>
<line x1="692.4" y1="347.4" x2="692.4" y2="520" stroke="#E8E8E8" stroke-width="1" stroke-dasharray="2,2"/>
<g class="station-marker" data-index="4" style="cursor:pointer">
<circle cx="692.4" cy="342.4" r="4" fill="#8AABA3" stroke="#fff" stroke-width="1"/>
</g>
<text x="692.4" y="595" font-family="Arial, sans-serif" font-size="10" fill="#2C3E50" text-anchor="end" transform="rotate(-50 692.4 595)" font-weight="600">Pocket Rd.</text>
<text x="696.4" y="607" font-family="Arial, sans-serif" font-size="8" fill="#7A8A8A" text-anchor="end" transform="rotate(-50 696.4 607)">mi 24.7</text>
<line x1="856.2" y1="264.2" x2="856.2" y2="520" stroke="#E8E8E8" stroke-width="1" stroke-dasharray="2,2"/>
<g class="station-marker" data-index="5" style="cursor:pointer">
<circle cx="856.2" cy="259.2" r="8" fill="#9B6B9E" opacity="0.15"/>
<circle cx="856.2" cy="259.2" r="5" fill="#9B6B9E" stroke="#B88ABB" stroke-width="1.5"/>
</g>
<text x="856.2" y="595" font-family="Arial, sans-serif" font-size="10" fill="#2C3E50" text-anchor="end" transform="rotate(-50 856.2 595)" font-weight="600">Snake Creek</text>
<text x="860.2" y="607" font-family="Arial, sans-serif" font-size="8" fill="#7A8A8A" text-anchor="end" transform="rotate(-50 860.2 607)">mi 31.2</text>
<line x1="1037.7" y1="228.6" x2="1037.7" y2="520" stroke="#E8E8E8" stroke-width="1" stroke-dasharray="2,2"/>
<g class="station-marker" data-index="6" style="cursor:pointer">
<circle cx="1037.7" cy="223.6" r="4" fill="#8AABA3" stroke="#fff" stroke-width="1"/>
</g>
<text x="1037.7" y="595" font-family="Arial, sans-serif" font-size="10" fill="#2C3E50" text-anchor="end" transform="rotate(-50 1037.7 595)" font-weight="600">Stover</text>
<text x="1041.7" y="607" font-family="Arial, sans-serif" font-size="8" fill="#7A8A8A" text-anchor="end" transform="rotate(-50 1041.7 607)">mi 38.4</text>
<line x1="1249.4" y1="218.2" x2="1249.4" y2="520" stroke="#E8E8E8" stroke-width="1" stroke-dasharray="2,2"/>
<g class="station-marker" data-index="7" style="cursor:pointer">
<circle cx="1249.4" cy="213.2" r="4" fill="#8AABA3" stroke="#fff" stroke-width="1"/>
</g>
<text x="1249.4" y="595" font-family="Arial, sans-serif" font-size="10" fill="#2C3E50" text-anchor="end" transform="rotate(-50 1249.4 595)" font-weight="600">Powerlines</text>
<text x="1253.4" y="607" font-family="Arial, sans-serif" font-size="8" fill="#7A8A8A" text-anchor="end" transform="rotate(-50 1253.4 607)">mi 46.8</text>
<line x1="1330.0" y1="344.8" x2="1330.0" y2="520" stroke="#E8E8E8" stroke-width="1" stroke-dasharray="2,2"/>
<g class="station-marker" data-index="8" style="cursor:pointer">
<circle cx="1330.0" cy="339.8" r="8" fill="#9B6B9E" opacity="0.15"/>
<circle cx="1330.0" cy="339.8" r="5" fill="#9B6B9E" stroke="#B88ABB" stroke-width="1.5"/>
</g>
<text x="1330.0" y="595" font-family="Arial, sans-serif" font-size="10" fill="#2C3E50" text-anchor="end" transform="rotate(-50 1330.0 595)" font-weight="600">Convention Center</text>
<text x="1334.0" y="607" font-family="Arial, sans-serif" font-size="8" fill="#7A8A8A" text-anchor="end" transform="rotate(-50 1334.0 607)">mi 50</text>
<rect x="1180" y="104" width="190" height="65" rx="6" fill="#fff" stroke="#E8E8E8" stroke-width="1"/>
<text x="1190" y="118" font-family="Arial, sans-serif" font-size="8" fill="#7A8A8A" font-weight="bold" letter-spacing="2">LEGEND</text>
<circle cx="1196" cy="136" r="4" fill="#9B6B9E" stroke="#B88ABB" stroke-width="1"/>
<text x="1208" y="140" font-family="Arial, sans-serif" font-size="9" fill="#2C3E50">Crew Access / Drop Bags</text>
<circle cx="1196" cy="154" r="3" fill="#8AABA3" stroke="#fff" stroke-width="1"/>
<text x="1208" y="158" font-family="Arial, sans-serif" font-size="9" fill="#2C3E50">Aid Station (No Crew/Drops)</text>
<rect x="65" y="104" width="160" height="65" rx="6" fill="#fff" stroke="#E8E8E8" stroke-width="1"/>
<text x="75" y="118" font-family="Arial, sans-serif" font-size="8" fill="#7A8A8A" font-weight="bold" letter-spacing="2">COURSE STATS</text>
<text x="75" y="136" font-family="Arial, sans-serif" font-size="9" fill="#2C3E50">Distance: 50 miles</text>
<text x="75" y="150" font-family="Arial, sans-serif" font-size="9" fill="#2C3E50">Elevation: 780' – 1,922'</text>
<text x="75" y="164" font-family="Arial, sans-serif" font-size="9" fill="#2C3E50">Gain: ~8,000'</text>
<text x="1385" y="690" font-family="Arial, sans-serif" font-size="8" fill="#7A8A8A" text-anchor="end">georgiajewel.com</text>
</svg>