<svg xmlns="http://www.w3.org/2000/svg" viewBox="0 0 1400 700" preserveAspectRatio="xMidYMid meet" shape-rendering="geometricPrecision">
<defs>
  <linearGradient id="profileGrad" x1="0%" y1="0%" x2="0%" y2="100%">
    <stop offset="0%" style="stop-color:#5B9A8B"/>
    <stop offset="50%" style="stop-color:#4A8377"/>
    <stop offset="100%" style="stop-color:#3A6B5C"/>
  </linearGradient>
  <linearGradient id="headerGrad" x1="0%" y1="0%" x2="100%" y2="0%">
    <stop offset="0%" style="stop-color:#4A8377;stop-opacity:0"/>
    <stop offset="50%" style="stop-color:#4A8377;stop-opacity:0.3"/>
    <stop offset="100%" style="stop-color:#4A8377;stop-opacity:0"/>
  </linearGradient>
</defs>
<rect width="100%" height="100%" fill="#FAFAFA"/>
<rect x="0" y="58" width="1400" height="1" fill="url(#headerGrad)"/>
<text x="700.0" y="40" font-family="Georgia, Times, serif" font-size="32" font-weight="bold" fill="#3A6B5C" text-anchor="middle" letter-spacing="4">THE GEORGIA JEWEL</text>
<text x="700.0" y="72" font-family="Arial, sans-serif" font-size="11" fill="#7A8A8A" text-anchor="middle" letter-spacing="3">100 MILE ULTRAMARATHON  •  ELEVATION PROFILE</text>
<line x1="70" y1="470.0" x2="1330" y2="470.0" stroke="#E8E8E8" stroke-width="1"/>
<text x="62" y="474.0" font-family="Arial, sans-serif" font-size="10" fill="#7A8A8A" text-anchor="end">600'</text>
<line x1="70" y1="417.1" x2="1330" y2="417.1" stroke="#E8E8E8" stroke-width="1"/>
<text x="62" y="421.1" font-family="Arial, sans-serif" font-size="10" fill="#7A8A8A" text-anchor="end">800'</text>
<line x1="70" y1="364.3" x2="1330" y2="364.3" stroke="#E8E8E8" stroke-width="1"/>
<text x="62" y="368.3" font-family="Arial, sans-serif" font-size="10" fill="#7A8A8A" text-anchor="end">1,000'</text>
<line x1="70" y1="311.4" x2="1330" y2="311.4" stroke="#E8E8E8" stroke-width="1"/>
<text x="62" y="315.4" font-family="Arial, sans-serif" font-size="10" fill="#7A8A8A" text-anchor="end">1,200'</text>
<line x1="70" y1="258.6" x2="1330" y2="258.6" stroke="#E8E8E8" stroke-width="1"/>
<text x="62" y="262.6" font-family="Arial, sans-serif" font-size="10" fill="#7A8A8A" text-anchor="end">1,400'</text>
<line x1="70" y1="205.7" x2="1330" y2="205.7" stroke="#E8E8E8" stroke-width="1"/>
<text x="62" y="209.7" font-family="Arial, sans-serif" font-size="10" fill="#7A8A8A" text-anchor="end">1,600'</text>
<line x1="70" y1="152.9" x2="1330" y2="152.9" stroke="#E8E8E8" stroke-width="1"/>
<text x="62" y="156.9" font-family="Arial, sans-serif" font-size="10" fill="#7A8A8A" text-anchor="end">1,800'</text>
<line x1="70" y1="100.0" x2="1330" y2="100.0" stroke="#E8E8E8" stroke-width="1"/>
<text x="62" y="104.0" font-family="Arial, sans-serif" font-size="10" fill="#7A8A8A" text-anchor="end">2,000'</text>
<line x1="70.0" y1="100" x2="70.0" y2="470" stroke="#E8E8E8" stroke-width="1" stroke-dasharray="3,5"/>
<line x1="196.0" y1="100" x2="196.0" y2="470" stroke="#E8E8E8" stroke-width="1" stroke-dasharray="3,5"/>
<line x1="322.0" y1="100" x2="322.0" y2="470" stroke="#E8E8E8" stroke-width="1" stroke-dasharray="3,5"/>
<line x1="448.0" y1="100" x2="448.0" y2="470" stroke="#E8E8E8" stroke-width="1" stroke-dasharray="3,5"/>
<line x1="574.0" y1="100" x2="574.0" y2="470" stroke="#E8E8E8" stroke-width="1" stroke-dasharray="3,5"/>
<line x1="700.0" y1="100" x2="700.0" y2="470" stroke="#E8E8E8" stroke-width="1" stroke-dasharray="3,5"/>
<line x1="826.0" y1="100" x2="826.0" y2="470" stroke="#E8E8E8" stroke-width="1" stroke-dasharray="3,5"/>
<line x1="952.0" y1="100" x2="952.0" y2="470" stroke="#E8E8E8" stroke-width="1" stroke-dasharray="3,5"/>
<line x1="1078.0" y1="100" x2="1078.0" y2="470" stroke="#E8E8E8" stroke-width="1" stroke-dasharray="3,5"/>
<line x1="1204.0" y1="100" x2="1204.0" y2="470" stroke="#E8E8E8" stroke-width="1" stroke-dasharray="3,5"/>
<line x1="1330.0" y1="100" x2="1330.0" y2="470" stroke="#E8E8E8" stroke-width="1" stroke-dasharray="3,5"/>
<path d="M 70.00 470.00 L 70.00 351.11 L 70.32 349.14 L 70.63 344.17 L 70.95 336.37 L 71.26 331.16 L 71.58 331.16 L 71.89 334.63 L 72.21 336.37 L 72.52 338.10 L 72.84 339.83 L 73.15 345.90 L 73.47 357.17 L 73.78 370.18 L 74.10 378.90 L 74.41 388.39 L 74.73 397.93 L 75.04 398.80 L 75.36 399.66 L 75.67 399.66 L 75.99 397.93 L 76.30 394.46 L 76.62 393.59 L 76.93 392.73 L 77.25 389.46 L 77.56 384.92 L 77.88 380.59 L 78.19 376.25 L 78.51 371.92 L 78.82 367.58 L 79.14 363.84 L 79.45 360.64 L 79.77 358.54 L 80.08 357.18 L 80.40 356.31 L 80.71 356.31 L 81.03 356.31 L 81.34 355.44 L 81.66 353.71 L 81.97 353.71 L 82.29 351.97 L 82.60 351.65 L 82.92 351.14 L 83.23 352.70 L 83.55 352.84 L 83.86 353.80 L 84.18 354.27 L 84.49 354.57 L 84.81 358.56 L 85.12 363.25 L 85.44 369.04 L 85.75 374.52 L 86.07 377.12 L 86.38 379.72 L 86.70 381.67 L 87.01 383.45 L 87.33 385.20 L 87.64 386.95 L 87.96 389.26 L 88.27 390.99 L 88.59 392.67 L 88.90 394.46 L 89.22 395.33 L 89.53 396.19 L 89.85 397.06 L 90.17 397.93 L 90.48 398.80 L 90.80 398.80 L 91.11 397.93 L 91.43 398.80 L 91.74 398.80 L 92.06 398.80 L 92.37 400.67 L 92.69 403.13 L 93.00 403.13 L 93.32 404.00 L 93.63 404.00 L 93.95 402.11 L 94.26 398.80 L 94.58 394.46 L 94.89 390.12 L 95.21 386.66 L 95.52 383.19 L 95.84 381.45 L 96.15 379.72 L 96.47 377.12 L 96.78 375.38 L 97.10 371.92 L 97.41 369.31 L 97.73 367.58 L 98.04 365.85 L 98.36 364.11 L 98.67 361.56 L 98.99 358.04 L 99.30 355.44 L 99.62 352.84 L 99.93 354.57 L 100.25 349.37 L 100.56 341.57 L 100.88 337.23 L 101.19 331.16 L 101.51 328.05 L 101.82 327.43 L 102.14 322.49 L 102.45 318.16 L 102.77 313.38 L 103.08 308.62 L 103.40 304.28 L 103.71 299.95 L 104.03 294.13 L 104.34 295.61 L 104.66 295.61 L 104.97 296.48 L 105.29 294.17 L 105.60 285.21 L 105.92 283.37 L 106.23 274.80 L 106.55 274.80 L 106.86 269.60 L 107.18 269.60 L 107.49 264.40 L 107.81 265.27 L 108.12 256.59 L 108.44 249.18 L 108.75 242.72 L 109.07 239.25 L 109.38 235.78 L 109.70 228.89 L 110.02 223.94 L 110.33 220.18 L 110.65 215.84 L 110.96 212.37 L 111.28 209.77 L 111.59 208.04 L 111.91 209.77 L 112.22 209.77 L 112.54 210.64 L 112.85 210.43 L 113.17 208.43 L 113.48 206.30 L 113.80 203.70 L 114.11 200.23 L 114.43 195.90 L 114.74 190.70 L 115.06 183.34 L 115.37 176.80 L 115.69 171.62 L 116.00 168.15 L 116.32 162.95 L 116.63 158.61 L 116.95 154.28 L 117.26 151.68 L 117.58 152.85 L 117.89 156.01 L 118.21 157.75 L 118.52 160.35 L 118.84 165.19 L 119.15 168.15 L 119.47 169.89 L 119.78 173.72 L 120.10 176.82 L 120.41 179.42 L 120.73 182.03 L 121.04 184.63 L 121.36 184.63 L 121.67 183.76 L 121.99 182.89 L 122.30 183.76 L 122.62 183.10 L 122.93 183.45 L 123.25 182.03 L 123.56 181.16 L 123.88 181.16 L 124.19 181.16 L 124.51 180.29 L 124.82 182.03 L 125.14 182.89 L 125.45 182.89 L 125.77 182.89 L 126.08 182.89 L 126.40 182.89 L 126.71 180.29 L 127.03 177.44 L 127.34 176.82 L 127.66 176.82 L 127.97 177.69 L 128.29 180.78 L 128.60 180.29 L 128.92 181.16 L 129.23 182.03 L 129.55 182.89 L 129.86 182.89 L 130.18 182.89 L 130.50 183.93 L 130.81 187.95 L 131.13 192.43 L 131.44 194.16 L 131.76 195.03 L 132.07 195.03 L 132.39 192.43 L 132.70 192.43 L 133.02 197.63 L 133.33 201.97 L 133.65 205.44 L 133.96 207.17 L 134.28 208.91 L 134.59 209.77 L 134.91 208.04 L 135.22 206.30 L 135.54 205.44 L 135.85 207.40 L 136.17 209.77 L 136.48 212.37 L 136.80 214.11 L 137.11 214.97 L 137.43 216.59 L 137.74 219.31 L 138.06 223.63 L 138.37 225.38 L 138.69 224.51 L 139.00 222.78 L 139.32 221.04 L 139.63 220.18 L 139.95 218.44 L 140.26 219.31 L 140.58 221.77 L 140.89 223.65 L 141.21 224.51 L 141.52 226.25 L 141.84 228.23 L 142.15 230.58 L 142.47 229.72 L 142.78 229.72 L 143.10 227.98 L 143.41 227.98 L 143.73 226.25 L 144.04 224.51 L 144.36 223.65 L 144.67 221.04 L 144.99 218.44 L 145.30 215.84 L 145.62 214.97 L 145.93 214.11 L 146.25 213.24 L 146.56 214.11 L 146.88 214.97 L 147.19 215.84 L 147.51 218.44 L 147.82 218.44 L 148.14 218.44 L 148.45 218.44 L 148.77 218.44 L 149.08 220.18 L 149.40 221.04 L 149.71 220.18 L 150.03 219.28 L 150.35 216.71 L 150.66 214.97 L 150.98 214.11 L 151.29 213.24 L 151.61 215.84 L 151.92 221.91 L 152.24 226.50 L 152.55 231.45 L 152.87 234.92 L 153.18 238.39 L 153.50 242.72 L 153.81 248.79 L 154.13 256.59 L 154.44 264.40 L 154.76 268.92 L 155.07 274.09 L 155.39 278.27 L 155.70 282.48 L 156.02 285.21 L 156.33 287.81 L 156.65 289.54 L 156.96 286.94 L 157.28 281.74 L 157.59 280.01 L 157.91 274.80 L 158.22 268.07 L 158.54 263.53 L 158.85 260.93 L 159.17 260.06 L 159.48 260.06 L 159.80 260.93 L 160.11 262.66 L 160.43 263.53 L 160.74 266.13 L 161.06 268.73 L 161.37 269.60 L 161.69 272.20 L 162.00 275.67 L 162.32 281.74 L 162.63 280.87 L 162.95 278.27 L 163.26 275.67 L 163.58 272.52 L 163.89 266.54 L 164.21 259.20 L 164.52 250.52 L 164.84 243.59 L 165.15 238.39 L 165.47 232.32 L 165.78 224.79 L 166.10 221.04 L 166.41 216.84 L 166.73 213.24 L 167.04 209.77 L 167.36 208.91 L 167.67 209.77 L 167.99 210.64 L 168.30 212.37 L 168.62 215.84 L 168.93 219.31 L 169.25 221.91 L 169.56 223.65 L 169.88 223.65 L 170.20 222.73 L 170.51 224.51 L 170.83 227.98 L 171.14 230.58 L 171.46 229.72 L 171.77 227.98 L 172.09 227.98 L 172.40 230.58 L 172.72 234.05 L 173.03 234.92 L 173.35 235.78 L 173.66 234.92 L 173.98 234.29 L 174.29 234.92 L 174.61 235.78 L 174.92 236.65 L 175.24 235.78 L 175.55 234.05 L 175.87 232.32 L 176.18 228.85 L 176.50 227.98 L 176.81 229.72 L 177.13 229.72 L 177.44 231.45 L 177.76 233.99 L 178.07 235.78 L 178.39 236.61 L 178.70 234.92 L 179.02 232.32 L 179.33 230.58 L 179.65 230.58 L 179.96 230.58 L 180.28 227.98 L 180.59 225.38 L 180.91 221.91 L 181.22 221.04 L 181.54 221.91 L 181.85 221.04 L 182.17 221.04 L 182.48 220.18 L 182.80 219.82 L 183.11 217.19 L 183.43 214.97 L 183.74 211.51 L 184.06 207.03 L 184.37 202.84 L 184.69 198.50 L 185.00 193.30 L 185.32 190.70 L 185.63 189.83 L 185.95 189.83 L 186.26 186.36 L 186.58 182.89 L 186.89 178.56 L 187.21 175.09 L 187.52 170.75 L 187.84 168.15 L 188.15 165.55 L 188.47 162.95 L 188.78 162.08 L 189.10 162.08 L 189.41 163.82 L 189.73 165.55 L 190.05 167.42 L 190.36 170.04 L 190.68 170.75 L 190.99 172.05 L 191.31 175.09 L 191.62 177.69 L 191.94 181.52 L 192.25 185.49 L 192.57 188.53 L 192.88 191.56 L 193.20 191.56 L 193.51 192.43 L 193.83 194.16 L 194.14 196.77 L 194.46 198.50 L 194.77 199.37 L 195.09 201.10 L 195.40 202.84 L 195.72 204.57 L 196.03 206.53 L 196.35 208.04 L 196.66 209.77 L 196.98 210.64 L 197.29 210.64 L 197.61 210.64 L 197.92 211.51 L 198.24 212.37 L 198.55 211.51 L 198.87 209.79 L 199.18 208.04 L 199.50 208.04 L 199.81 208.04 L 200.13 208.91 L 200.44 210.64 L 200.76 212.37 L 201.07 212.37 L 201.39 210.64 L 201.70 210.64 L 202.02 210.64 L 202.33 212.37 L 202.65 215.30 L 202.96 218.07 L 203.28 220.18 L 203.59 221.91 L 203.91 222.78 L 204.22 221.91 L 204.54 221.91 L 204.85 223.65 L 205.17 226.25 L 205.48 228.27 L 205.80 229.72 L 206.11 230.58 L 206.43 232.32 L 206.74 232.32 L 207.06 230.58 L 207.37 228.85 L 207.69 227.11 L 208.00 226.25 L 208.32 226.25 L 208.63 227.98 L 208.95 228.85 L 209.26 229.72 L 209.58 229.72 L 209.89 231.45 L 210.21 232.51 L 210.53 234.05 L 210.84 234.05 L 211.16 233.18 L 211.47 231.45 L 211.79 227.98 L 212.10 224.51 L 212.42 225.38 L 212.73 227.11 L 213.05 228.85 L 213.36 229.72 L 213.68 230.58 L 213.99 232.32 L 214.31 235.78 L 214.62 242.72 L 214.94 244.46 L 215.25 247.06 L 215.57 249.66 L 215.88 251.39 L 216.20 253.99 L 216.51 255.73 L 216.83 257.48 L 217.14 260.06 L 217.46 260.93 L 217.77 263.35 L 218.09 265.27 L 218.40 267.00 L 218.72 268.73 L 219.03 269.60 L 219.35 271.33 L 219.66 273.94 L 219.98 275.67 L 220.29 277.40 L 220.61 280.01 L 220.92 282.61 L 221.24 284.34 L 221.55 286.86 L 221.87 288.68 L 222.18 290.40 L 222.50 290.41 L 222.81 292.81 L 223.13 295.61 L 223.44 297.35 L 223.76 299.08 L 224.07 300.82 L 224.39 302.55 L 224.70 304.28 L 225.02 304.28 L 225.33 305.15 L 225.65 306.89 L 225.96 308.62 L 226.28 308.62 L 226.59 309.27 L 226.91 309.49 L 227.22 310.35 L 227.54 309.49 L 227.85 309.43 L 228.17 310.35 L 228.48 310.35 L 228.80 310.35 L 229.11 312.95 L 229.43 316.42 L 229.74 318.16 L 230.06 320.76 L 230.38 320.76 L 230.69 319.02 L 231.01 318.16 L 231.32 317.29 L 231.64 316.42 L 231.95 315.56 L 232.27 313.82 L 232.58 312.09 L 232.90 311.22 L 233.21 310.35 L 233.53 311.22 L 233.84 310.35 L 234.16 309.49 L 234.47 308.62 L 234.79 307.75 L 235.10 306.02 L 235.42 304.28 L 235.73 306.02 L 236.05 306.02 L 236.36 302.55 L 236.68 299.95 L 236.99 299.08 L 237.31 298.21 L 237.62 298.21 L 237.94 296.48 L 238.25 295.61 L 238.57 295.61 L 238.88 298.21 L 239.20 299.95 L 239.51 301.10 L 239.83 302.55 L 240.14 301.68 L 240.46 300.16 L 240.77 299.08 L 241.09 298.21 L 241.40 297.35 L 241.72 295.61 L 242.03 293.88 L 242.35 292.14 L 242.66 291.28 L 242.98 290.41 L 243.29 289.54 L 243.61 287.81 L 243.92 286.94 L 244.24 285.21 L 244.55 282.61 L 244.87 280.87 L 245.18 278.27 L 245.50 275.67 L 245.81 272.20 L 246.13 268.73 L 246.44 264.40 L 246.76 260.06 L 247.07 257.91 L 247.39 253.99 L 247.70 250.52 L 248.02 247.06 L 248.33 243.59 L 248.65 240.12 L 248.96 235.78 L 249.28 232.87 L 249.59 228.85 L 249.91 224.51 L 250.23 221.91 L 250.54 218.44 L 250.86 215.84 L 251.17 214.11 L 251.49 210.64 L 251.80 206.30 L 252.12 202.84 L 252.43 199.37 L 252.75 195.90 L 253.06 192.43 L 253.38 189.83 L 253.69 187.23 L 254.01 184.63 L 254.32 182.89 L 254.64 180.29 L 254.95 178.56 L 255.27 178.56 L 255.58 178.56 L 255.90 179.42 L 256.21 177.69 L 256.53 177.69 L 256.84 178.56 L 257.16 180.29 L 257.47 182.89 L 257.79 184.78 L 258.10 188.57 L 258.42 192.43 L 258.73 192.43 L 259.05 190.70 L 259.36 189.83 L 259.68 188.10 L 259.99 188.96 L 260.31 189.83 L 260.62 188.10 L 260.94 182.03 L 261.25 175.96 L 261.57 172.49 L 261.88 169.89 L 262.20 168.15 L 262.51 167.29 L 262.83 166.42 L 263.14 167.29 L 263.46 170.75 L 263.77 171.62 L 264.09 171.62 L 264.40 172.49 L 264.72 174.22 L 265.03 173.35 L 265.35 170.75 L 265.66 168.15 L 265.98 167.29 L 266.29 167.17 L 266.61 167.29 L 266.92 168.15 L 267.24 172.49 L 267.55 174.22 L 267.87 174.22 L 268.18 172.49 L 268.50 171.62 L 268.81 170.75 L 269.13 168.15 L 269.44 167.42 L 269.76 169.02 L 270.08 168.15 L 270.39 169.02 L 270.71 171.62 L 271.02 174.22 L 271.34 176.82 L 271.65 176.82 L 271.97 177.69 L 272.28 179.42 L 272.60 180.29 L 272.91 182.89 L 273.23 182.89 L 273.54 182.89 L 273.86 184.63 L 274.17 185.49 L 274.49 183.76 L 274.80 182.03 L 275.12 181.16 L 275.43 180.35 L 275.75 178.56 L 276.06 174.22 L 276.38 169.75 L 276.69 166.42 L 277.01 162.95 L 277.32 159.48 L 277.64 156.88 L 277.95 156.88 L 278.27 159.48 L 278.58 162.08 L 278.90 163.17 L 279.21 166.68 L 279.53 170.75 L 279.84 174.22 L 280.16 173.35 L 280.47 175.69 L 280.79 178.56 L 281.10 182.03 L 281.42 185.49 L 281.73 190.70 L 282.05 194.16 L 282.36 196.77 L 282.68 196.77 L 282.99 195.03 L 283.31 193.30 L 283.62 192.43 L 283.94 191.80 L 284.25 189.83 L 284.57 188.96 L 284.88 188.96 L 285.20 187.88 L 285.51 184.63 L 285.83 184.63 L 286.14 186.36 L 286.46 187.63 L 286.77 188.10 L 287.09 187.23 L 287.40 185.49 L 287.72 182.89 L 288.03 182.03 L 288.35 180.29 L 288.66 177.69 L 288.98 174.22 L 289.29 172.49 L 289.61 172.49 L 289.92 175.09 L 290.24 176.69 L 290.56 179.39 L 290.87 182.03 L 291.19 182.03 L 291.50 182.03 L 291.82 180.29 L 292.13 178.56 L 292.45 179.42 L 292.76 182.03 L 293.08 185.49 L 293.39 187.23 L 293.71 189.83 L 294.02 194.16 L 294.34 196.77 L 294.65 198.50 L 294.97 198.50 L 295.28 199.37 L 295.60 201.10 L 295.91 202.84 L 296.23 206.30 L 296.54 208.53 L 296.86 210.64 L 297.17 213.24 L 297.49 217.58 L 297.80 221.04 L 298.12 223.65 L 298.43 224.54 L 298.75 227.98 L 299.06 231.68 L 299.38 235.78 L 299.69 239.25 L 300.01 243.59 L 300.32 250.52 L 300.64 251.39 L 300.95 252.26 L 301.27 252.61 L 301.58 255.47 L 301.90 258.33 L 302.21 261.80 L 302.53 265.59 L 302.84 267.87 L 303.16 270.14 L 303.47 272.21 L 303.79 276.36 L 304.10 279.67 L 304.42 283.47 L 304.73 286.94 L 305.05 289.40 L 305.36 293.88 L 305.68 297.35 L 305.99 300.82 L 306.31 303.50 L 306.62 307.71 L 306.94 311.22 L 307.25 317.98 L 307.57 319.89 L 307.88 321.63 L 308.20 324.23 L 308.51 326.59 L 308.83 329.43 L 309.14 330.30 L 309.46 331.16 L 309.77 331.16 L 310.09 331.16 L 310.41 332.82 L 310.72 333.76 L 311.04 332.90 L 311.35 332.03 L 311.67 330.15 L 311.98 326.83 L 312.30 324.23 L 312.61 323.36 L 312.93 321.63 L 313.24 319.56 L 313.56 316.42 L 313.87 311.22 L 314.19 306.89 L 314.50 303.42 L 314.82 299.08 L 315.13 294.75 L 315.45 291.28 L 315.76 287.81 L 316.08 283.62 L 316.39 279.14 L 316.71 274.51 L 317.02 271.36 L 317.34 270.47 L 317.65 269.60 L 317.97 267.00 L 318.28 265.27 L 318.60 265.27 L 318.91 265.93 L 319.23 262.66 L 319.54 257.46 L 319.86 252.26 L 320.17 248.79 L 320.49 248.73 L 320.80 250.52 L 321.12 251.39 L 321.43 251.39 L 321.75 250.52 L 322.06 248.79 L 322.38 247.92 L 322.69 247.92 L 323.01 251.39 L 323.32 253.99 L 323.64 257.46 L 323.95 260.93 L 324.27 258.33 L 324.58 253.13 L 324.90 246.88 L 325.21 240.65 L 325.53 236.65 L 325.84 232.32 L 326.16 227.98 L 326.47 223.65 L 326.79 219.31 L 327.10 216.71 L 327.42 213.24 L 327.73 209.77 L 328.05 208.91 L 328.36 210.64 L 328.68 212.74 L 328.99 214.11 L 329.31 213.24 L 329.62 211.31 L 329.94 208.04 L 330.26 203.70 L 330.57 196.77 L 330.89 193.30 L 331.20 195.90 L 331.52 199.37 L 331.83 204.57 L 332.15 210.64 L 332.46 215.84 L 332.78 219.15 L 333.09 221.91 L 333.41 224.51 L 333.72 227.11 L 334.04 228.85 L 334.35 228.85 L 334.67 228.85 L 334.98 228.41 L 335.30 227.63 L 335.61 227.11 L 335.93 228.85 L 336.24 231.45 L 336.56 236.65 L 336.87 242.72 L 337.19 247.06 L 337.50 247.92 L 337.82 247.92 L 338.13 247.92 L 338.45 249.66 L 338.76 251.39 L 339.08 253.13 L 339.39 255.73 L 339.71 256.59 L 340.02 253.99 L 340.34 252.26 L 340.65 250.52 L 340.97 249.66 L 341.28 247.92 L 341.60 245.32 L 341.91 244.46 L 342.23 245.32 L 342.54 247.06 L 342.86 249.66 L 343.17 253.99 L 343.49 258.33 L 343.80 260.06 L 344.12 258.13 L 344.43 253.99 L 344.75 250.52 L 345.06 252.26 L 345.38 252.26 L 345.69 253.13 L 346.01 255.42 L 346.32 258.33 L 346.64 259.20 L 346.95 261.80 L 347.27 264.40 L 347.58 267.00 L 347.90 270.19 L 348.21 273.07 L 348.53 277.40 L 348.84 280.58 L 349.16 284.05 L 349.47 287.52 L 349.79 291.00 L 350.11 294.47 L 350.42 297.94 L 350.74 301.41 L 351.05 304.88 L 351.37 308.36 L 351.68 311.83 L 352.00 315.30 L 352.31 318.77 L 352.63 322.69 L 352.94 325.96 L 353.26 326.83 L 353.57 327.69 L 353.89 333.76 L 354.20 338.97 L 354.52 342.44 L 354.83 345.04 L 355.15 349.85 L 355.46 353.71 L 355.78 357.10 L 356.09 362.38 L 356.41 363.25 L 356.72 362.38 L 357.04 359.01 L 357.35 354.57 L 357.67 351.97 L 357.98 351.97 L 358.30 351.11 L 358.61 351.97 L 358.93 355.59 L 359.24 357.45 L 359.56 359.78 L 359.87 361.09 L 360.19 363.21 L 360.50 364.41 L 360.82 364.98 L 361.13 364.11 L 361.45 360.64 L 361.76 358.04 L 362.08 356.31 L 362.39 354.57 L 362.71 352.84 L 363.02 349.37 L 363.34 345.90 L 363.65 344.17 L 363.97 343.30 L 364.28 341.57 L 364.60 338.97 L 364.91 337.23 L 365.23 336.37 L 365.54 335.50 L 365.86 335.69 L 366.17 337.42 L 366.49 339.16 L 366.80 340.89 L 367.12 342.62 L 367.43 344.35 L 367.75 346.77 L 368.06 348.85 L 368.38 349.37 L 368.69 349.88 L 369.01 350.24 L 369.32 349.37 L 369.64 346.77 L 369.95 345.90 L 370.27 343.44 L 370.59 343.30 L 370.90 345.04 L 371.22 345.90 L 371.53 345.90 L 371.85 345.04 L 372.16 343.30 L 372.48 343.30 L 372.79 345.04 L 373.11 346.77 L 373.42 349.21 L 373.74 351.11 L 374.05 352.84 L 374.37 352.84 L 374.68 351.97 L 375.00 352.84 L 375.31 352.84 L 375.63 351.97 L 375.94 351.11 L 376.26 351.11 L 376.57 351.11 L 376.89 351.11 L 377.20 351.97 L 377.52 352.84 L 377.83 352.84 L 378.15 353.71 L 378.46 355.44 L 378.78 356.31 L 379.09 356.31 L 379.41 357.18 L 379.72 357.18 L 380.04 357.18 L 380.35 358.04 L 380.67 359.78 L 380.98 361.51 L 381.30 362.38 L 381.61 363.25 L 381.93 363.25 L 382.24 364.11 L 382.56 364.11 L 382.87 364.11 L 383.19 364.11 L 383.50 364.11 L 383.82 366.71 L 384.13 367.58 L 384.45 368.45 L 384.76 368.45 L 385.08 369.31 L 385.39 370.18 L 385.71 370.18 L 386.02 369.31 L 386.34 369.31 L 386.65 368.45 L 386.97 366.71 L 387.28 364.98 L 387.60 363.25 L 387.91 360.64 L 388.23 358.76 L 388.54 356.31 L 388.86 354.57 L 389.17 353.71 L 389.49 353.71 L 389.80 354.57 L 390.12 356.31 L 390.44 358.04 L 390.75 359.78 L 391.07 362.38 L 391.38 364.98 L 391.70 367.58 L 392.01 369.85 L 392.33 371.92 L 392.64 372.78 L 392.96 372.78 L 393.27 371.05 L 393.59 370.18 L 393.90 368.45 L 394.22 366.71 L 394.53 364.11 L 394.85 362.38 L 395.16 359.78 L 395.48 358.04 L 395.79 355.44 L 396.11 352.84 L 396.42 350.24 L 396.74 345.90 L 397.05 342.44 L 397.37 338.97 L 397.68 335.50 L 398.00 332.90 L 398.31 329.43 L 398.63 325.96 L 398.94 322.49 L 399.26 319.89 L 399.57 316.42 L 399.89 312.95 L 400.20 309.49 L 400.52 306.02 L 400.83 303.28 L 401.15 299.95 L 401.46 296.48 L 401.78 293.01 L 402.09 289.54 L 402.41 286.24 L 402.72 283.47 L 403.04 280.01 L 403.35 276.54 L 403.67 273.07 L 403.98 269.75 L 404.30 267.00 L 404.61 263.53 L 404.93 260.06 L 405.24 256.59 L 405.56 253.13 L 405.87 251.39 L 406.19 251.39 L 406.50 250.52 L 406.82 248.79 L 407.13 247.92 L 407.45 244.27 L 407.76 239.25 L 408.08 235.78 L 408.39 234.92 L 408.71 234.92 L 409.02 233.18 L 409.34 228.85 L 409.65 223.65 L 409.97 220.18 L 410.29 217.58 L 410.60 215.84 L 410.92 211.19 L 411.23 205.44 L 411.55 199.37 L 411.86 195.03 L 412.18 189.13 L 412.49 184.63 L 412.81 181.16 L 413.12 178.56 L 413.44 175.09 L 413.75 172.49 L 414.07 169.89 L 414.38 167.29 L 414.70 164.68 L 415.01 161.70 L 415.33 158.61 L 415.64 156.88 L 415.96 156.01 L 416.27 156.88 L 416.59 158.61 L 416.90 159.48 L 417.22 158.99 L 417.53 157.75 L 417.85 158.61 L 418.16 159.48 L 418.48 158.61 L 418.79 158.61 L 419.11 159.48 L 419.42 159.48 L 419.74 157.75 L 420.05 156.01 L 420.37 156.01 L 420.68 156.01 L 421.00 156.88 L 421.31 157.75 L 421.63 159.48 L 421.94 161.66 L 422.26 162.95 L 422.57 163.82 L 422.89 163.82 L 423.20 163.82 L 423.52 162.95 L 423.83 162.95 L 424.15 162.95 L 424.46 162.95 L 424.78 163.82 L 425.09 164.68 L 425.41 165.55 L 425.72 165.55 L 426.04 165.66 L 426.35 166.42 L 426.67 165.55 L 426.98 164.68 L 427.30 163.82 L 427.61 162.95 L 427.93 162.08 L 428.24 161.22 L 428.56 159.48 L 428.87 157.75 L 429.19 154.28 L 429.50 150.81 L 429.82 148.66 L 430.14 146.48 L 430.45 144.74 L 430.77 143.01 L 431.08 141.27 L 431.40 140.08 L 431.71 138.67 L 432.03 136.94 L 432.34 135.20 L 432.66 134.34 L 432.97 135.20 L 433.29 134.34 L 433.60 134.34 L 433.92 135.20 L 434.23 135.20 L 434.55 135.20 L 434.86 134.34 L 435.18 134.34 L 435.49 134.34 L 435.81 134.34 L 436.12 136.07 L 436.44 139.54 L 436.75 142.37 L 437.07 145.69 L 437.38 149.08 L 437.70 152.51 L 438.01 155.60 L 438.33 158.61 L 438.64 161.57 L 438.96 164.57 L 439.27 167.29 L 439.59 170.75 L 439.90 174.09 L 440.22 176.82 L 440.53 180.29 L 440.85 182.89 L 441.16 186.36 L 441.48 188.96 L 441.79 191.56 L 442.11 194.61 L 442.42 197.63 L 442.74 200.23 L 443.05 202.90 L 443.37 207.17 L 443.68 210.03 L 444.00 214.11 L 444.31 217.64 L 444.63 221.91 L 444.94 230.58 L 445.26 232.32 L 445.57 235.78 L 445.89 240.12 L 446.20 241.85 L 446.52 241.85 L 446.83 240.99 L 447.15 241.85 L 447.46 243.59 L 447.78 243.59 L 448.09 243.59 L 448.41 242.72 L 448.72 241.85 L 449.04 241.85 L 449.35 243.82 L 449.67 245.32 L 449.98 247.92 L 450.30 251.57 L 450.62 253.99 L 450.93 258.33 L 451.25 261.80 L 451.56 264.40 L 451.88 267.00 L 452.19 267.00 L 452.51 267.00 L 452.82 265.27 L 453.14 264.40 L 453.45 263.53 L 453.77 264.40 L 454.08 263.53 L 454.40 262.66 L 454.71 261.80 L 455.03 263.53 L 455.34 265.27 L 455.66 264.40 L 455.97 260.93 L 456.29 258.33 L 456.60 256.59 L 456.92 256.59 L 457.23 255.73 L 457.55 254.86 L 457.86 253.13 L 458.18 250.57 L 458.49 246.19 L 458.81 243.59 L 459.12 243.92 L 459.44 245.32 L 459.75 247.60 L 460.07 249.66 L 460.38 249.66 L 460.70 248.79 L 461.01 247.06 L 461.33 248.79 L 461.64 249.66 L 461.96 247.92 L 462.27 245.32 L 462.59 244.46 L 462.90 244.46 L 463.22 242.72 L 463.53 241.85 L 463.85 241.85 L 464.16 244.28 L 464.48 245.32 L 464.79 247.06 L 465.11 247.92 L 465.42 246.19 L 465.74 247.06 L 466.05 247.92 L 466.37 247.92 L 466.68 247.92 L 467.00 251.39 L 467.31 254.47 L 467.63 256.59 L 467.94 258.33 L 468.26 260.06 L 468.57 263.53 L 468.89 267.00 L 469.20 272.20 L 469.52 274.80 L 469.83 278.43 L 470.15 281.74 L 470.47 284.34 L 470.78 289.54 L 471.10 293.88 L 471.41 295.61 L 471.73 297.35 L 472.04 299.08 L 472.36 301.68 L 472.67 305.15 L 472.99 307.75 L 473.30 310.35 L 473.62 312.09 L 473.93 313.82 L 474.25 316.03 L 474.56 319.89 L 474.88 323.36 L 475.19 325.09 L 475.51 326.83 L 475.82 325.09 L 476.14 326.83 L 476.45 331.16 L 476.77 336.02 L 477.08 342.44 L 477.40 344.17 L 477.71 343.30 L 478.03 342.44 L 478.34 341.60 L 478.66 340.70 L 478.97 339.83 L 479.29 337.23 L 479.60 337.23 L 479.92 336.37 L 480.23 335.50 L 480.55 334.63 L 480.86 335.50 L 481.18 336.37 L 481.49 338.10 L 481.81 341.48 L 482.12 343.30 L 482.44 345.90 L 482.75 347.64 L 483.07 348.50 L 483.38 347.64 L 483.70 346.77 L 484.01 345.04 L 484.33 345.04 L 484.64 345.04 L 484.96 343.30 L 485.27 341.57 L 485.59 339.83 L 485.90 338.97 L 486.22 337.23 L 486.53 336.37 L 486.85 336.30 L 487.16 336.37 L 487.48 337.23 L 487.79 337.23 L 488.11 338.10 L 488.42 338.10 L 488.74 339.98 L 489.05 340.70 L 489.37 340.70 L 489.68 340.70 L 490.00 338.97 L 490.32 338.97 L 490.63 338.10 L 490.95 336.37 L 491.26 336.37 L 491.58 339.83 L 491.89 342.44 L 492.21 345.04 L 492.52 347.66 L 492.84 351.11 L 493.15 353.36 L 493.47 353.71 L 493.78 354.57 L 494.10 356.31 L 494.41 359.78 L 494.73 363.25 L 495.04 366.71 L 495.36 370.18 L 495.67 373.65 L 495.99 376.25 L 496.30 379.72 L 496.62 382.32 L 496.93 384.92 L 497.25 388.39 L 497.56 390.99 L 497.88 395.51 L 498.19 399.66 L 498.51 404.87 L 498.82 408.33 L 499.14 410.93 L 499.45 413.54 L 499.77 416.14 L 500.08 418.74 L 500.40 420.47 L 500.71 419.83 L 501.03 419.61 L 501.34 418.74 L 501.66 418.74 L 501.97 417.87 L 502.29 417.87 L 502.60 417.87 L 502.92 418.74 L 503.23 417.87 L 503.55 417.00 L 503.86 414.40 L 504.18 412.67 L 504.49 412.67 L 504.81 410.93 L 505.12 408.77 L 505.44 405.73 L 505.75 404.87 L 506.07 404.00 L 506.38 404.00 L 506.70 403.13 L 507.01 402.26 L 507.33 399.13 L 507.64 396.19 L 507.96 395.33 L 508.27 397.93 L 508.59 401.40 L 508.90 404.87 L 509.22 408.33 L 509.53 407.47 L 509.85 405.07 L 510.17 404.87 L 510.48 406.60 L 510.80 410.07 L 511.11 415.27 L 511.43 418.74 L 511.74 417.87 L 512.06 416.14 L 512.37 416.14 L 512.69 417.00 L 513.00 417.87 L 513.32 417.00 L 513.63 417.87 L 513.95 418.74 L 514.26 418.74 L 514.58 418.74 L 514.89 418.74 L 515.21 417.87 L 515.52 417.00 L 515.84 415.27 L 516.15 414.40 L 516.47 413.54 L 516.78 412.67 L 517.10 413.54 L 517.41 417.00 L 517.73 418.74 L 518.04 419.61 L 518.36 419.61 L 518.67 418.74 L 518.99 418.74 L 519.30 418.74 L 519.62 418.74 L 519.93 418.74 L 520.25 420.47 L 520.56 421.34 L 520.88 421.34 L 521.19 420.47 L 521.51 420.47 L 521.82 420.47 L 522.14 421.34 L 522.45 420.47 L 522.77 420.47 L 523.08 421.34 L 523.40 421.36 L 523.71 422.21 L 524.03 422.21 L 524.34 421.34 L 524.66 421.34 L 524.97 422.21 L 525.29 423.07 L 525.60 423.07 L 525.92 423.07 L 526.23 423.94 L 526.55 423.94 L 526.86 423.07 L 527.18 420.74 L 527.49 418.74 L 527.81 416.14 L 528.12 415.27 L 528.44 415.27 L 528.75 415.27 L 529.07 417.00 L 529.38 417.87 L 529.70 417.87 L 530.02 417.87 L 530.33 417.87 L 530.65 417.87 L 530.96 418.74 L 531.28 418.74 L 531.59 418.74 L 531.91 418.74 L 532.22 417.87 L 532.54 417.87 L 532.85 417.87 L 533.17 417.87 L 533.48 417.87 L 533.80 417.87 L 534.11 417.87 L 534.43 417.00 L 534.74 416.14 L 535.06 414.11 L 535.37 411.80 L 535.69 411.80 L 536.00 414.40 L 536.32 417.87 L 536.63 419.61 L 536.95 420.47 L 537.26 420.47 L 537.58 419.61 L 537.89 419.61 L 538.21 420.47 L 538.52 420.47 L 538.84 419.61 L 539.15 420.47 L 539.47 421.34 L 539.78 421.61 L 540.10 422.21 L 540.41 422.21 L 540.73 423.07 L 541.04 423.07 L 541.36 422.48 L 541.67 422.21 L 541.99 422.21 L 542.30 423.07 L 542.62 423.07 L 542.93 423.07 L 543.25 423.07 L 543.56 421.34 L 543.88 419.61 L 544.19 418.74 L 544.51 417.87 L 544.82 417.00 L 545.14 417.00 L 545.45 417.00 L 545.77 417.00 L 546.08 416.14 L 546.40 418.74 L 546.71 419.61 L 547.03 420.47 L 547.34 421.34 L 547.66 421.34 L 547.97 421.34 L 548.29 419.61 L 548.60 417.87 L 548.92 417.00 L 549.23 417.00 L 549.55 416.14 L 549.86 414.40 L 550.18 411.80 L 550.50 410.07 L 550.81 408.33 L 551.13 407.47 L 551.44 409.20 L 551.76 412.67 L 552.07 416.14 L 552.39 417.87 L 552.70 418.98 L 553.02 420.47 L 553.33 417.87 L 553.65 417.00 L 553.96 418.74 L 554.28 419.61 L 554.59 419.61 L 554.91 419.61 L 555.22 418.74 L 555.54 417.87 L 555.85 417.87 L 556.17 418.74 L 556.48 418.74 L 556.80 418.74 L 557.11 418.74 L 557.43 419.61 L 557.74 420.47 L 558.06 420.47 L 558.37 422.21 L 558.69 423.94 L 559.00 424.81 L 559.32 425.67 L 559.63 425.67 L 559.95 425.67 L 560.26 425.67 L 560.58 426.54 L 560.89 426.54 L 561.21 426.54 L 561.52 426.54 L 561.84 425.67 L 562.15 423.94 L 562.47 423.94 L 562.78 423.07 L 563.10 422.21 L 563.41 421.33 L 563.73 420.47 L 564.04 420.47 L 564.36 420.47 L 564.67 421.34 L 564.99 420.47 L 565.30 419.61 L 565.62 417.00 L 565.93 415.27 L 566.25 414.03 L 566.56 411.03 L 566.88 409.12 L 567.19 406.60 L 567.51 404.87 L 567.82 403.13 L 568.14 403.13 L 568.45 404.87 L 568.77 406.60 L 569.08 408.33 L 569.40 410.07 L 569.71 412.67 L 570.03 416.14 L 570.35 417.00 L 570.66 417.00 L 570.98 415.27 L 571.29 413.54 L 571.61 412.67 L 571.92 410.07 L 572.24 407.47 L 572.55 405.73 L 572.87 404.00 L 573.18 401.40 L 573.50 399.66 L 573.81 399.66 L 574.13 401.40 L 574.44 400.53 L 574.76 400.53 L 575.07 399.66 L 575.39 398.80 L 575.70 400.53 L 576.02 402.26 L 576.33 404.00 L 576.65 406.60 L 576.96 409.06 L 577.28 410.93 L 577.59 412.67 L 577.91 411.80 L 578.22 408.86 L 578.54 404.87 L 578.85 401.64 L 579.17 397.92 L 579.48 394.46 L 579.80 392.73 L 580.11 391.86 L 580.43 392.73 L 580.74 392.73 L 581.06 391.86 L 581.37 392.73 L 581.69 393.59 L 582.00 394.46 L 582.32 396.19 L 582.63 397.93 L 582.95 397.24 L 583.26 397.06 L 583.58 397.06 L 583.89 397.93 L 584.21 398.80 L 584.52 399.66 L 584.84 399.66 L 585.15 398.80 L 585.47 398.80 L 585.78 399.93 L 586.10 401.40 L 586.41 402.26 L 586.73 402.26 L 587.04 403.13 L 587.36 403.13 L 587.67 401.40 L 587.99 399.66 L 588.30 398.80 L 588.62 399.53 L 588.93 399.66 L 589.25 400.53 L 589.56 401.40 L 589.88 402.26 L 590.20 402.26 L 590.51 404.00 L 590.83 406.27 L 591.14 407.47 L 591.46 409.20 L 591.77 410.93 L 592.09 410.93 L 592.40 410.93 L 592.72 410.93 L 593.03 411.80 L 593.35 411.80 L 593.66 412.67 L 593.98 412.67 L 594.29 410.93 L 594.61 410.93 L 594.92 409.20 L 595.24 408.33 L 595.55 408.33 L 595.87 410.93 L 596.18 413.54 L 596.50 415.86 L 596.81 415.27 L 597.13 413.17 L 597.44 412.67 L 597.76 411.80 L 598.07 412.67 L 598.39 414.40 L 598.70 417.00 L 599.02 419.61 L 599.33 421.34 L 599.65 423.07 L 599.96 423.94 L 600.28 424.81 L 600.59 423.94 L 600.91 421.34 L 601.22 419.61 L 601.54 418.74 L 601.85 418.74 L 602.17 417.87 L 602.48 416.14 L 602.80 413.67 L 603.11 412.67 L 603.43 410.07 L 603.74 407.44 L 604.06 404.87 L 604.37 404.87 L 604.69 403.79 L 605.00 400.53 L 605.32 398.80 L 605.63 399.66 L 605.95 402.26 L 606.26 403.13 L 606.58 403.13 L 606.89 400.53 L 607.21 400.53 L 607.52 403.13 L 607.84 404.87 L 608.15 406.60 L 608.47 408.33 L 608.78 409.20 L 609.10 408.33 L 609.41 408.33 L 609.73 408.33 L 610.05 408.33 L 610.36 409.20 L 610.68 409.20 L 610.99 406.25 L 611.31 403.13 L 611.62 401.40 L 611.94 398.80 L 612.25 394.46 L 612.57 390.99 L 612.88 390.12 L 613.20 390.12 L 613.51 391.86 L 613.83 394.46 L 614.14 395.33 L 614.46 396.37 L 614.77 398.80 L 615.09 401.40 L 615.40 404.00 L 615.72 407.47 L 616.03 408.33 L 616.35 407.47 L 616.66 405.73 L 616.98 404.87 L 617.29 404.87 L 617.61 404.87 L 617.92 405.73 L 618.24 406.60 L 618.55 406.60 L 618.87 407.47 L 619.18 409.20 L 619.50 411.80 L 619.81 415.17 L 620.13 417.87 L 620.44 418.74 L 620.76 418.74 L 621.07 418.74 L 621.39 417.87 L 621.70 417.87 L 622.02 416.14 L 622.33 415.27 L 622.65 415.27 L 622.96 415.27 L 623.28 416.14 L 623.59 418.74 L 623.91 421.34 L 624.22 423.07 L 624.54 423.94 L 624.85 423.94 L 625.17 423.07 L 625.48 423.07 L 625.80 423.07 L 626.11 422.21 L 626.43 421.34 L 626.74 421.34 L 627.06 422.21 L 627.37 422.21 L 627.69 421.34 L 628.00 421.34 L 628.32 420.47 L 628.63 420.47 L 628.95 421.34 L 629.26 420.47 L 629.58 420.47 L 629.89 420.47 L 630.21 421.34 L 630.53 421.34 L 630.84 420.47 L 631.16 418.74 L 631.47 417.87 L 631.79 418.74 L 632.10 418.74 L 632.42 418.74 L 632.73 419.53 L 633.05 419.61 L 633.36 418.74 L 633.68 417.30 L 633.99 414.40 L 634.31 412.67 L 634.62 413.54 L 634.94 414.40 L 635.25 414.40 L 635.57 416.14 L 635.88 417.87 L 636.20 418.74 L 636.51 418.74 L 636.83 418.74 L 637.14 418.74 L 637.46 417.87 L 637.77 417.00 L 638.09 417.87 L 638.40 417.87 L 638.72 417.00 L 639.03 416.14 L 639.35 417.00 L 639.66 418.74 L 639.98 417.57 L 640.29 413.54 L 640.61 409.20 L 640.92 405.73 L 641.24 404.00 L 641.55 405.73 L 641.87 408.33 L 642.18 408.33 L 642.50 404.00 L 642.81 400.53 L 643.13 397.93 L 643.44 395.33 L 643.76 392.73 L 644.07 390.12 L 644.39 385.79 L 644.70 382.32 L 645.02 378.85 L 645.33 376.25 L 645.65 374.32 L 645.96 371.92 L 646.28 371.92 L 646.59 374.52 L 646.91 375.38 L 647.22 377.12 L 647.54 378.85 L 647.85 380.59 L 648.17 381.45 L 648.48 381.45 L 648.80 380.59 L 649.11 377.99 L 649.43 377.12 L 649.74 377.12 L 650.06 377.12 L 650.38 377.12 L 650.69 380.59 L 651.01 383.19 L 651.32 387.50 L 651.64 390.12 L 651.95 393.59 L 652.27 396.41 L 652.58 399.66 L 652.90 401.40 L 653.21 401.40 L 653.53 401.40 L 653.84 400.53 L 654.16 398.80 L 654.47 397.06 L 654.79 395.66 L 655.10 394.46 L 655.42 393.59 L 655.73 391.86 L 656.05 390.12 L 656.36 388.39 L 656.68 387.52 L 656.99 385.79 L 657.31 384.06 L 657.62 382.32 L 657.94 381.45 L 658.25 380.59 L 658.57 378.85 L 658.88 377.99 L 659.20 378.85 L 659.51 380.59 L 659.83 381.45 L 660.14 382.32 L 660.46 382.32 L 660.77 380.59 L 661.09 377.99 L 661.40 375.38 L 661.72 372.78 L 662.03 370.18 L 662.35 368.45 L 662.66 366.71 L 662.98 366.71 L 663.29 365.85 L 663.61 364.11 L 663.92 362.38 L 664.24 362.38 L 664.55 364.11 L 664.87 365.85 L 665.18 365.85 L 665.50 366.71 L 665.81 369.31 L 666.13 371.92 L 666.44 374.52 L 666.76 376.25 L 667.07 377.99 L 667.39 379.72 L 667.70 380.59 L 668.02 380.59 L 668.33 379.13 L 668.65 377.99 L 668.96 378.85 L 669.28 379.72 L 669.59 378.85 L 669.91 377.12 L 670.23 376.25 L 670.54 375.38 L 670.86 376.25 L 671.17 378.85 L 671.49 382.32 L 671.80 385.26 L 672.12 389.26 L 672.43 391.86 L 672.75 394.46 L 673.06 398.80 L 673.38 403.81 L 673.69 407.47 L 674.01 411.80 L 674.32 412.67 L 674.64 410.93 L 674.95 406.60 L 675.27 403.13 L 675.58 400.53 L 675.90 400.53 L 676.21 401.40 L 676.53 398.80 L 676.84 395.33 L 677.16 393.59 L 677.47 391.86 L 677.79 390.12 L 678.10 388.39 L 678.42 385.79 L 678.73 384.06 L 679.05 382.32 L 679.36 379.72 L 679.68 377.12 L 679.99 374.52 L 680.31 373.65 L 680.62 373.65 L 680.94 373.65 L 681.25 372.78 L 681.57 372.78 L 681.88 374.83 L 682.20 376.25 L 682.51 377.99 L 682.83 379.72 L 683.14 383.19 L 683.46 385.79 L 683.77 389.26 L 684.09 391.86 L 684.40 396.19 L 684.72 398.80 L 685.03 400.53 L 685.35 403.13 L 685.66 406.83 L 685.98 410.07 L 686.29 410.93 L 686.61 410.93 L 686.92 409.20 L 687.24 409.20 L 687.55 408.33 L 687.87 409.03 L 688.18 404.87 L 688.50 402.28 L 688.81 401.40 L 689.13 397.42 L 689.44 393.29 L 689.76 390.12 L 690.08 390.12 L 690.39 390.12 L 690.71 392.73 L 691.02 394.46 L 691.34 396.19 L 691.65 397.06 L 691.97 398.80 L 692.28 402.26 L 692.60 404.00 L 692.91 407.47 L 693.23 408.33 L 693.54 407.47 L 693.86 405.73 L 694.17 404.87 L 694.49 404.87 L 694.80 404.87 L 695.12 405.73 L 695.43 406.54 L 695.75 406.60 L 696.06 407.47 L 696.38 408.67 L 696.69 411.80 L 697.01 414.40 L 697.32 416.14 L 697.64 417.87 L 697.95 417.87 L 698.27 417.87 L 698.58 417.87 L 698.90 418.74 L 699.21 418.74 L 699.53 418.74 L 699.84 417.87 L 700.16 417.87 L 700.47 417.87 L 700.79 417.87 L 701.10 417.87 L 701.42 417.87 L 701.73 417.00 L 702.05 415.27 L 702.36 412.67 L 702.68 411.80 L 702.99 412.67 L 703.31 416.14 L 703.62 418.74 L 703.94 420.47 L 704.25 420.47 L 704.57 420.47 L 704.88 419.61 L 705.20 419.61 L 705.51 420.47 L 705.83 420.47 L 706.14 419.61 L 706.46 420.47 L 706.77 421.34 L 707.09 421.34 L 707.40 422.21 L 707.72 422.21 L 708.03 422.21 L 708.35 423.07 L 708.66 423.07 L 708.98 422.21 L 709.29 422.21 L 709.61 423.07 L 709.92 423.07 L 710.24 423.07 L 710.56 423.07 L 710.87 422.21 L 711.19 420.47 L 711.50 418.81 L 711.82 418.74 L 712.13 417.87 L 712.45 417.00 L 712.76 417.00 L 713.08 417.00 L 713.39 417.00 L 713.71 416.14 L 714.02 417.87 L 714.34 419.61 L 714.65 420.47 L 714.97 421.34 L 715.28 421.34 L 715.60 421.34 L 715.91 419.84 L 716.23 418.74 L 716.54 417.00 L 716.86 417.00 L 717.17 416.14 L 717.49 414.40 L 717.80 412.67 L 718.12 410.07 L 718.43 408.33 L 718.75 407.47 L 719.06 408.33 L 719.38 411.80 L 719.69 415.27 L 720.01 417.87 L 720.32 418.74 L 720.64 420.47 L 720.95 417.01 L 721.27 417.00 L 721.58 418.74 L 721.90 419.61 L 722.21 419.61 L 722.53 419.61 L 722.84 418.74 L 723.16 417.87 L 723.47 417.87 L 723.79 418.74 L 724.10 418.74 L 724.42 418.74 L 724.73 418.74 L 725.05 419.61 L 725.36 420.47 L 725.68 420.47 L 725.99 421.54 L 726.31 423.07 L 726.62 424.81 L 726.94 425.67 L 727.25 425.67 L 727.57 425.67 L 727.88 425.67 L 728.20 426.54 L 728.51 426.54 L 728.83 426.54 L 729.14 426.54 L 729.46 426.54 L 729.77 424.81 L 730.09 423.94 L 730.41 423.07 L 730.72 422.21 L 731.04 421.34 L 731.35 420.47 L 731.67 420.47 L 731.98 420.47 L 732.30 421.34 L 732.61 420.47 L 732.93 419.61 L 733.24 417.87 L 733.56 415.27 L 733.87 414.40 L 734.19 411.80 L 734.50 409.20 L 734.82 407.47 L 735.13 405.73 L 735.45 404.00 L 735.76 403.13 L 736.08 404.87 L 736.39 406.60 L 736.71 407.47 L 737.02 409.20 L 737.34 412.39 L 737.65 416.14 L 737.97 417.00 L 738.28 417.00 L 738.60 415.27 L 738.91 413.54 L 739.23 412.67 L 739.54 410.07 L 739.86 407.47 L 740.17 405.73 L 740.49 403.13 L 740.80 401.40 L 741.12 399.66 L 741.43 399.66 L 741.75 401.40 L 742.06 400.53 L 742.38 400.53 L 742.69 399.66 L 743.01 398.80 L 743.32 400.53 L 743.64 403.13 L 743.95 404.87 L 744.27 406.60 L 744.58 409.20 L 744.90 411.80 L 745.21 413.54 L 745.53 411.72 L 745.84 408.33 L 746.16 404.87 L 746.47 401.40 L 746.79 397.06 L 747.10 394.46 L 747.42 392.73 L 747.73 391.86 L 748.05 392.73 L 748.36 392.73 L 748.68 392.73 L 748.99 392.73 L 749.31 393.59 L 749.62 395.33 L 749.94 396.19 L 750.26 397.93 L 750.57 397.06 L 750.89 397.06 L 751.20 397.06 L 751.52 398.80 L 751.83 398.93 L 752.15 399.66 L 752.46 399.66 L 752.78 398.80 L 753.09 398.80 L 753.41 400.53 L 753.72 401.40 L 754.04 402.26 L 754.35 402.26 L 754.67 403.13 L 754.98 403.13 L 755.30 400.53 L 755.61 399.66 L 755.93 398.80 L 756.24 399.66 L 756.56 399.66 L 756.87 400.53 L 757.19 401.40 L 757.50 402.26 L 757.82 402.26 L 758.13 404.87 L 758.45 406.60 L 758.76 407.47 L 759.08 409.20 L 759.39 410.93 L 759.71 410.93 L 760.02 410.93 L 760.34 410.93 L 760.65 411.80 L 760.97 412.67 L 761.28 412.67 L 761.60 411.80 L 761.91 410.93 L 762.23 410.07 L 762.54 409.20 L 762.86 408.33 L 763.17 409.20 L 763.49 411.80 L 763.80 414.40 L 764.12 416.14 L 764.43 414.40 L 764.75 412.67 L 765.06 412.67 L 765.38 411.80 L 765.69 413.54 L 766.01 415.27 L 766.32 417.88 L 766.64 420.47 L 766.95 422.21 L 767.27 423.42 L 767.58 424.81 L 767.90 423.94 L 768.21 422.21 L 768.53 419.61 L 768.84 418.74 L 769.16 418.74 L 769.47 418.74 L 769.79 417.00 L 770.11 414.40 L 770.42 412.67 L 770.74 410.93 L 771.05 407.47 L 771.37 405.73 L 771.68 404.87 L 772.00 404.00 L 772.31 401.40 L 772.63 399.66 L 772.94 399.66 L 773.26 401.40 L 773.57 403.13 L 773.89 403.13 L 774.20 401.40 L 774.52 399.66 L 774.83 402.26 L 775.15 404.00 L 775.46 405.73 L 775.78 407.47 L 776.09 408.50 L 776.41 408.33 L 776.72 408.33 L 777.04 408.33 L 777.35 408.33 L 777.67 409.20 L 777.98 410.07 L 778.30 407.47 L 778.61 404.00 L 778.93 402.26 L 779.24 399.66 L 779.56 395.78 L 779.87 391.86 L 780.19 390.12 L 780.50 390.12 L 780.82 390.99 L 781.13 393.59 L 781.45 395.33 L 781.76 396.19 L 782.08 397.93 L 782.39 400.53 L 782.71 403.13 L 783.02 405.73 L 783.34 408.33 L 783.65 408.33 L 783.97 406.60 L 784.28 405.73 L 784.60 404.87 L 784.91 404.00 L 785.23 405.73 L 785.54 405.73 L 785.86 406.60 L 786.17 407.47 L 786.49 408.33 L 786.80 410.93 L 787.12 413.54 L 787.43 416.14 L 787.75 417.87 L 788.06 417.87 L 788.38 418.74 L 788.69 418.74 L 789.01 418.74 L 789.32 418.74 L 789.64 417.87 L 789.95 417.87 L 790.27 417.87 L 790.59 416.14 L 790.90 415.27 L 791.22 415.27 L 791.53 415.27 L 791.85 417.00 L 792.16 419.61 L 792.48 421.34 L 792.79 423.94 L 793.11 423.94 L 793.42 423.82 L 793.74 423.07 L 794.05 423.07 L 794.37 422.21 L 794.68 422.21 L 795.00 421.34 L 795.31 421.34 L 795.63 422.21 L 795.94 422.21 L 796.26 421.34 L 796.57 420.47 L 796.89 420.47 L 797.20 421.34 L 797.52 420.47 L 797.83 420.47 L 798.15 420.47 L 798.46 420.47 L 798.78 421.34 L 799.09 421.20 L 799.41 419.61 L 799.72 418.74 L 800.04 418.74 L 800.35 418.74 L 800.67 418.74 L 800.98 418.74 L 801.30 419.61 L 801.61 419.61 L 801.93 417.87 L 802.24 414.54 L 802.56 412.67 L 802.87 413.54 L 803.19 414.40 L 803.50 414.40 L 803.82 416.14 L 804.13 417.87 L 804.45 418.74 L 804.76 418.74 L 805.08 418.74 L 805.39 418.74 L 805.71 417.87 L 806.02 417.00 L 806.34 417.87 L 806.65 417.87 L 806.97 417.00 L 807.28 416.14 L 807.60 417.00 L 807.91 418.74 L 808.23 417.00 L 808.54 412.67 L 808.86 408.33 L 809.17 405.73 L 809.49 404.00 L 809.80 406.60 L 810.12 408.33 L 810.44 406.60 L 810.75 403.13 L 811.07 399.66 L 811.38 396.19 L 811.70 394.46 L 812.01 391.86 L 812.33 388.39 L 812.64 384.92 L 812.96 380.59 L 813.27 377.99 L 813.59 375.38 L 813.90 373.16 L 814.22 371.92 L 814.53 373.65 L 814.85 375.38 L 815.16 376.25 L 815.48 377.99 L 815.79 379.72 L 816.11 380.59 L 816.42 381.45 L 816.74 381.45 L 817.05 378.85 L 817.37 377.12 L 817.68 377.12 L 818.00 377.12 L 818.31 377.12 L 818.63 378.85 L 818.94 382.32 L 819.26 385.79 L 819.57 389.26 L 819.89 391.86 L 820.20 395.33 L 820.52 398.80 L 820.83 401.40 L 821.15 401.40 L 821.46 401.40 L 821.78 401.40 L 822.09 399.66 L 822.41 397.93 L 822.72 396.19 L 823.04 395.33 L 823.35 394.46 L 823.67 392.73 L 823.98 390.49 L 824.30 389.26 L 824.61 387.52 L 824.93 386.03 L 825.24 384.06 L 825.56 383.19 L 825.87 381.45 L 826.19 380.59 L 826.50 379.72 L 826.82 377.99 L 827.13 378.85 L 827.45 380.34 L 827.76 381.45 L 828.08 382.32 L 828.39 382.32 L 828.71 380.59 L 829.02 377.99 L 829.34 375.38 L 829.65 372.78 L 829.97 370.18 L 830.29 368.45 L 830.60 366.71 L 830.92 366.71 L 831.23 365.85 L 831.55 364.11 L 831.86 362.38 L 832.18 362.38 L 832.49 364.11 L 832.81 365.85 L 833.12 365.85 L 833.44 366.71 L 833.75 369.31 L 834.07 372.78 L 834.38 374.52 L 834.70 376.25 L 835.01 378.85 L 835.33 380.59 L 835.64 380.59 L 835.96 380.59 L 836.27 378.85 L 836.59 377.99 L 836.90 378.85 L 837.22 379.72 L 837.53 378.85 L 837.85 377.12 L 838.16 375.38 L 838.48 375.38 L 838.79 377.12 L 839.11 379.72 L 839.42 383.19 L 839.74 386.66 L 840.05 390.79 L 840.37 392.73 L 840.68 396.19 L 841.00 401.30 L 841.31 405.53 L 841.63 409.20 L 841.94 412.67 L 842.26 411.80 L 842.57 408.33 L 842.89 404.00 L 843.20 401.40 L 843.52 400.53 L 843.83 401.40 L 844.15 400.53 L 844.46 396.19 L 844.78 394.46 L 845.09 392.73 L 845.41 390.88 L 845.72 388.39 L 846.04 385.89 L 846.35 384.06 L 846.67 382.32 L 846.98 380.28 L 847.30 377.67 L 847.61 374.52 L 847.93 373.65 L 848.24 373.65 L 848.56 373.65 L 848.87 372.78 L 849.19 372.78 L 849.50 374.52 L 849.82 376.25 L 850.14 377.96 L 850.45 379.72 L 850.77 382.49 L 851.08 384.92 L 851.40 388.39 L 851.71 390.99 L 852.03 395.33 L 852.34 397.93 L 852.66 400.53 L 852.97 402.26 L 853.29 405.73 L 853.60 409.20 L 853.92 410.93 L 854.23 410.93 L 854.55 410.07 L 854.86 409.20 L 855.18 408.33 L 855.49 409.20 L 855.81 406.60 L 856.12 403.13 L 856.44 401.73 L 856.75 398.80 L 857.07 394.46 L 857.38 390.99 L 857.70 390.12 L 858.01 390.12 L 858.33 391.86 L 858.64 393.97 L 858.96 395.33 L 859.27 396.19 L 859.59 398.80 L 859.90 401.40 L 860.22 403.13 L 860.53 406.78 L 860.85 408.33 L 861.16 408.33 L 861.48 406.60 L 861.79 404.87 L 862.11 404.87 L 862.42 404.87 L 862.74 405.73 L 863.05 405.73 L 863.37 406.60 L 863.68 407.47 L 864.00 408.99 L 864.31 411.80 L 864.63 414.40 L 864.94 416.14 L 865.26 417.87 L 865.57 418.74 L 865.89 418.74 L 866.20 418.74 L 866.52 418.74 L 866.83 417.87 L 867.15 417.87 L 867.46 417.87 L 867.78 416.14 L 868.09 415.27 L 868.41 415.27 L 868.72 415.27 L 869.04 416.14 L 869.35 417.87 L 869.67 420.47 L 869.98 422.64 L 870.30 423.94 L 870.62 423.94 L 870.93 423.07 L 871.25 423.94 L 871.56 423.94 L 871.88 423.94 L 872.19 423.94 L 872.51 423.94 L 872.82 423.07 L 873.14 423.07 L 873.45 423.07 L 873.77 422.21 L 874.08 421.56 L 874.40 421.34 L 874.71 421.34 L 875.03 422.21 L 875.34 422.21 L 875.66 421.34 L 875.97 420.47 L 876.29 420.47 L 876.60 421.34 L 876.92 420.47 L 877.23 420.47 L 877.55 420.47 L 877.86 421.34 L 878.18 421.34 L 878.49 420.47 L 878.81 419.61 L 879.12 417.87 L 879.44 418.74 L 879.75 418.74 L 880.07 418.74 L 880.38 418.74 L 880.70 419.61 L 881.01 419.61 L 881.33 417.87 L 881.64 415.27 L 881.96 412.67 L 882.27 412.67 L 882.59 414.40 L 882.90 414.40 L 883.22 415.27 L 883.53 417.87 L 883.85 418.74 L 884.16 418.74 L 884.48 418.74 L 884.79 418.74 L 885.11 417.87 L 885.42 417.00 L 885.74 417.00 L 886.05 417.87 L 886.37 417.00 L 886.68 416.14 L 887.00 416.14 L 887.31 417.87 L 887.63 417.87 L 887.94 414.40 L 888.26 410.07 L 888.57 406.60 L 888.89 404.75 L 889.20 405.73 L 889.52 408.33 L 889.83 408.33 L 890.15 404.00 L 890.47 400.53 L 890.78 397.44 L 891.10 394.46 L 891.41 397.06 L 891.73 399.66 L 892.04 402.26 L 892.36 403.22 L 892.67 404.00 L 892.99 404.37 L 893.30 404.87 L 893.62 406.60 L 893.93 409.33 L 894.25 411.80 L 894.56 412.67 L 894.88 413.54 L 895.19 415.27 L 895.51 417.00 L 895.82 418.74 L 896.14 418.74 L 896.45 417.87 L 896.77 417.87 L 897.08 417.87 L 897.40 418.74 L 897.71 418.74 L 898.03 419.61 L 898.34 420.47 L 898.66 420.47 L 898.97 418.74 L 899.29 416.14 L 899.60 414.04 L 899.92 411.04 L 900.23 408.33 L 900.55 405.73 L 900.86 400.68 L 901.18 396.19 L 901.49 391.86 L 901.81 388.39 L 902.12 385.79 L 902.44 383.19 L 902.75 379.72 L 903.07 377.12 L 903.38 373.65 L 903.70 370.18 L 904.01 366.71 L 904.33 362.71 L 904.64 358.91 L 904.96 356.31 L 905.27 354.57 L 905.59 353.71 L 905.90 352.84 L 906.22 350.24 L 906.53 346.96 L 906.85 344.17 L 907.16 341.57 L 907.48 338.97 L 907.79 336.37 L 908.11 337.23 L 908.42 338.97 L 908.74 338.97 L 909.05 338.97 L 909.37 340.70 L 909.68 340.70 L 910.00 340.70 L 910.32 338.97 L 910.63 338.10 L 910.95 338.10 L 911.26 336.37 L 911.58 337.23 L 911.89 335.50 L 912.21 336.37 L 912.52 337.23 L 912.84 338.10 L 913.15 338.97 L 913.47 340.41 L 913.78 341.58 L 914.10 343.41 L 914.41 345.04 L 914.73 345.04 L 915.04 345.90 L 915.36 346.77 L 915.67 347.64 L 915.99 348.50 L 916.30 347.64 L 916.62 345.90 L 916.93 343.30 L 917.25 340.70 L 917.56 338.10 L 917.88 335.50 L 918.19 335.50 L 918.51 334.63 L 918.82 336.37 L 919.14 336.37 L 919.45 337.23 L 919.77 338.10 L 920.08 339.83 L 920.40 341.57 L 920.71 342.44 L 921.03 342.44 L 921.34 344.00 L 921.66 344.17 L 921.97 339.83 L 922.29 333.76 L 922.60 329.43 L 922.92 325.09 L 923.23 325.96 L 923.55 325.96 L 923.86 324.23 L 924.18 321.63 L 924.49 318.16 L 924.81 314.69 L 925.12 312.73 L 925.44 311.22 L 925.75 309.49 L 926.07 306.89 L 926.38 303.42 L 926.70 300.82 L 927.01 298.21 L 927.33 297.35 L 927.64 294.75 L 927.96 293.88 L 928.27 288.74 L 928.59 284.34 L 928.90 281.74 L 929.22 278.27 L 929.53 275.04 L 929.85 272.20 L 930.17 267.87 L 930.48 264.40 L 930.80 260.93 L 931.11 258.33 L 931.43 257.46 L 931.74 255.73 L 932.06 252.26 L 932.37 249.66 L 932.69 247.06 L 933.00 247.92 L 933.32 247.92 L 933.63 247.06 L 933.95 246.19 L 934.26 247.92 L 934.58 247.06 L 934.89 245.32 L 935.21 243.59 L 935.52 241.85 L 935.84 241.85 L 936.15 242.72 L 936.47 244.46 L 936.78 244.46 L 937.10 246.12 L 937.41 247.92 L 937.73 249.66 L 938.04 248.79 L 938.36 247.06 L 938.67 248.79 L 938.99 249.66 L 939.30 249.66 L 939.62 247.92 L 939.93 245.32 L 940.25 244.46 L 940.56 243.59 L 940.88 245.32 L 941.19 249.66 L 941.51 252.58 L 941.82 254.86 L 942.14 255.73 L 942.45 256.59 L 942.77 256.59 L 943.08 257.46 L 943.40 260.06 L 943.71 263.53 L 944.03 265.27 L 944.34 264.40 L 944.66 262.32 L 944.97 262.66 L 945.29 263.53 L 945.60 264.40 L 945.92 263.53 L 946.23 263.53 L 946.55 265.27 L 946.86 266.13 L 947.18 267.00 L 947.49 267.00 L 947.81 265.27 L 948.12 262.66 L 948.44 259.20 L 948.75 254.86 L 949.07 252.26 L 949.38 248.79 L 949.70 245.32 L 950.02 244.46 L 950.33 242.72 L 950.65 241.85 L 950.96 242.72 L 951.28 243.59 L 951.59 244.41 L 951.91 243.59 L 952.22 242.72 L 952.54 240.99 L 952.85 241.85 L 953.17 241.85 L 953.48 240.99 L 953.80 236.65 L 954.11 232.32 L 954.43 230.51 L 954.74 222.78 L 955.06 218.44 L 955.37 214.11 L 955.69 209.77 L 956.00 206.30 L 956.32 202.84 L 956.63 199.37 L 956.95 196.77 L 957.26 194.16 L 957.58 190.70 L 957.89 188.10 L 958.21 185.49 L 958.52 182.03 L 958.84 179.42 L 959.15 175.96 L 959.47 173.22 L 959.78 169.62 L 960.10 166.42 L 960.41 163.82 L 960.73 160.35 L 961.04 157.75 L 961.36 154.28 L 961.67 150.81 L 961.99 148.01 L 962.30 144.74 L 962.62 141.27 L 962.93 137.80 L 963.25 135.20 L 963.56 134.34 L 963.88 134.34 L 964.19 134.34 L 964.51 135.20 L 964.82 135.20 L 965.14 135.20 L 965.45 134.34 L 965.77 134.34 L 966.08 135.20 L 966.40 134.34 L 966.71 135.20 L 967.03 136.94 L 967.34 138.67 L 967.66 140.41 L 967.97 142.14 L 968.29 143.87 L 968.60 145.61 L 968.92 147.34 L 969.23 149.94 L 969.55 153.41 L 969.86 156.01 L 970.18 158.61 L 970.50 160.35 L 970.81 162.08 L 971.13 162.95 L 971.44 162.95 L 971.76 164.68 L 972.07 165.55 L 972.39 166.42 L 972.70 166.42 L 973.02 165.55 L 973.33 165.55 L 973.65 164.68 L 973.96 163.82 L 974.28 162.95 L 974.59 162.95 L 974.91 162.95 L 975.22 162.95 L 975.54 163.82 L 975.85 163.82 L 976.17 163.82 L 976.48 162.95 L 976.80 161.22 L 977.11 159.48 L 977.43 157.75 L 977.74 156.88 L 978.06 156.01 L 978.37 156.01 L 978.69 156.01 L 979.00 158.61 L 979.32 159.48 L 979.63 159.48 L 979.95 158.61 L 980.26 158.61 L 980.58 159.48 L 980.89 158.15 L 981.21 157.75 L 981.52 159.48 L 981.84 159.48 L 982.15 158.11 L 982.47 156.88 L 982.78 156.01 L 983.10 156.88 L 983.41 159.48 L 983.73 162.08 L 984.04 165.05 L 984.36 168.09 L 984.67 170.75 L 984.99 173.35 L 985.30 175.96 L 985.62 179.42 L 985.93 182.03 L 986.25 185.49 L 986.56 190.70 L 986.88 195.90 L 987.19 201.10 L 987.51 207.17 L 987.82 212.37 L 988.14 216.71 L 988.45 218.44 L 988.77 221.12 L 989.08 225.38 L 989.40 230.47 L 989.71 234.05 L 990.03 234.92 L 990.35 234.05 L 990.66 236.71 L 990.98 240.99 L 991.29 246.19 L 991.61 247.92 L 991.92 249.66 L 992.24 251.39 L 992.55 251.39 L 992.87 251.39 L 993.18 251.39 L 993.50 255.12 L 993.81 259.11 L 994.13 262.66 L 994.44 266.13 L 994.76 269.60 L 995.07 273.07 L 995.39 276.54 L 995.70 280.01 L 996.02 283.47 L 996.33 286.94 L 996.65 290.41 L 996.96 293.88 L 997.28 297.35 L 997.59 300.82 L 997.91 304.55 L 998.22 307.75 L 998.54 311.22 L 998.85 314.69 L 999.17 318.16 L 999.48 321.63 L 999.80 325.09 L 1000.11 329.16 L 1000.43 332.90 L 1000.74 336.37 L 1001.06 339.83 L 1001.37 343.36 L 1001.69 347.64 L 1002.00 351.30 L 1002.32 353.71 L 1002.63 356.31 L 1002.95 358.91 L 1003.26 361.51 L 1003.58 363.25 L 1003.89 365.85 L 1004.21 367.58 L 1004.52 368.45 L 1004.84 369.31 L 1005.15 369.31 L 1005.47 371.05 L 1005.78 372.78 L 1006.10 372.78 L 1006.41 371.92 L 1006.73 370.18 L 1007.04 367.58 L 1007.36 364.98 L 1007.67 362.38 L 1007.99 359.78 L 1008.30 358.04 L 1008.62 356.31 L 1008.93 354.57 L 1009.25 353.71 L 1009.56 353.71 L 1009.88 354.57 L 1010.20 356.31 L 1010.51 358.91 L 1010.83 361.19 L 1011.14 363.25 L 1011.46 365.85 L 1011.77 367.58 L 1012.09 368.45 L 1012.40 369.31 L 1012.72 369.31 L 1013.03 370.18 L 1013.35 369.31 L 1013.66 369.31 L 1013.98 368.45 L 1014.29 368.45 L 1014.61 367.58 L 1014.92 365.85 L 1015.24 364.11 L 1015.55 364.11 L 1015.87 364.11 L 1016.18 364.11 L 1016.50 364.11 L 1016.81 363.25 L 1017.13 362.38 L 1017.44 362.38 L 1017.76 361.05 L 1018.07 359.19 L 1018.39 358.04 L 1018.70 357.18 L 1019.02 357.18 L 1019.33 357.18 L 1019.65 356.31 L 1019.96 355.44 L 1020.28 354.57 L 1020.59 352.84 L 1020.91 352.84 L 1021.22 351.97 L 1021.54 351.11 L 1021.85 351.11 L 1022.17 351.11 L 1022.48 351.11 L 1022.80 351.97 L 1023.11 352.84 L 1023.43 352.84 L 1023.74 351.97 L 1024.06 352.84 L 1024.37 352.84 L 1024.69 351.11 L 1025.00 348.50 L 1025.32 346.77 L 1025.63 345.04 L 1025.95 342.44 L 1026.26 344.17 L 1026.58 345.04 L 1026.89 345.90 L 1027.21 345.90 L 1027.52 344.17 L 1027.84 343.30 L 1028.15 345.04 L 1028.47 346.77 L 1028.78 349.37 L 1029.10 350.24 L 1029.41 349.37 L 1029.73 349.37 L 1030.05 348.50 L 1030.36 345.90 L 1030.68 342.60 L 1030.99 339.83 L 1031.31 338.10 L 1031.62 336.37 L 1031.94 334.63 L 1032.25 335.50 L 1032.57 335.50 L 1032.88 336.37 L 1033.20 337.23 L 1033.51 338.10 L 1033.83 341.18 L 1034.14 343.30 L 1034.46 344.17 L 1034.77 345.90 L 1035.09 349.37 L 1035.40 353.71 L 1035.72 354.57 L 1036.03 357.18 L 1036.35 358.91 L 1036.66 363.25 L 1036.98 364.98 L 1037.29 364.98 L 1037.61 363.25 L 1037.92 361.51 L 1038.24 359.78 L 1038.55 357.18 L 1038.87 355.44 L 1039.18 351.97 L 1039.50 351.11 L 1039.81 351.97 L 1040.13 351.97 L 1040.44 355.44 L 1040.76 359.78 L 1041.07 362.38 L 1041.39 363.25 L 1041.70 362.38 L 1042.02 357.18 L 1042.33 353.71 L 1042.65 350.24 L 1042.96 345.04 L 1043.28 342.44 L 1043.59 338.97 L 1043.91 334.07 L 1044.22 330.30 L 1044.54 327.69 L 1044.85 326.83 L 1045.17 325.96 L 1045.48 321.63 L 1045.80 317.29 L 1046.11 314.69 L 1046.43 312.09 L 1046.74 308.62 L 1047.06 304.28 L 1047.37 300.82 L 1047.69 298.21 L 1048.00 295.31 L 1048.32 293.01 L 1048.63 290.41 L 1048.95 286.08 L 1049.26 282.61 L 1049.58 279.14 L 1049.89 274.80 L 1050.21 271.66 L 1050.53 268.60 L 1050.84 265.87 L 1051.16 262.66 L 1051.47 260.93 L 1051.79 259.20 L 1052.10 257.46 L 1052.42 253.99 L 1052.73 253.13 L 1053.05 252.26 L 1053.36 251.39 L 1053.68 252.13 L 1053.99 255.73 L 1054.31 259.20 L 1054.62 260.06 L 1054.94 256.83 L 1055.25 252.26 L 1055.57 248.02 L 1055.88 246.19 L 1056.20 244.46 L 1056.51 244.46 L 1056.83 246.19 L 1057.14 248.79 L 1057.46 249.66 L 1057.77 251.39 L 1058.09 252.26 L 1058.40 254.86 L 1058.72 256.59 L 1059.03 254.86 L 1059.35 252.26 L 1059.66 251.39 L 1059.98 249.66 L 1060.29 247.92 L 1060.61 247.92 L 1060.92 247.92 L 1061.24 247.06 L 1061.55 241.85 L 1061.87 235.93 L 1062.18 230.58 L 1062.50 227.98 L 1062.81 227.11 L 1063.13 227.98 L 1063.44 228.85 L 1063.76 228.85 L 1064.07 228.85 L 1064.39 228.85 L 1064.70 227.11 L 1065.02 224.51 L 1065.33 221.91 L 1065.65 219.31 L 1065.96 215.84 L 1066.28 210.64 L 1066.59 204.57 L 1066.91 199.37 L 1067.22 195.90 L 1067.54 193.30 L 1067.85 197.56 L 1068.17 204.40 L 1068.48 208.04 L 1068.80 211.51 L 1069.11 213.24 L 1069.43 214.11 L 1069.74 212.37 L 1070.06 210.43 L 1070.38 208.91 L 1070.69 210.64 L 1071.01 214.11 L 1071.32 216.71 L 1071.64 220.18 L 1071.95 223.90 L 1072.27 227.98 L 1072.58 233.18 L 1072.90 236.65 L 1073.21 241.85 L 1073.53 247.97 L 1073.84 254.86 L 1074.16 259.20 L 1074.47 260.45 L 1074.79 256.59 L 1075.10 253.13 L 1075.42 250.52 L 1075.73 247.92 L 1076.05 247.92 L 1076.36 248.79 L 1076.68 250.52 L 1076.99 251.39 L 1077.31 251.39 L 1077.62 249.66 L 1077.94 247.06 L 1078.25 246.00 L 1078.57 253.24 L 1078.88 257.46 L 1079.20 261.80 L 1079.51 267.87 L 1079.83 269.60 L 1080.14 267.24 L 1080.46 261.80 L 1080.77 255.13 L 1081.09 256.59 L 1081.40 273.40 L 1081.72 276.54 L 1082.03 283.20 L 1082.35 286.08 L 1082.66 291.28 L 1082.98 293.88 L 1083.29 293.01 L 1083.61 298.21 L 1083.92 302.55 L 1084.24 312.51 L 1084.55 316.76 L 1084.87 323.36 L 1085.18 323.36 L 1085.50 325.09 L 1085.81 326.83 L 1086.13 328.56 L 1086.44 330.30 L 1086.76 332.03 L 1087.07 332.90 L 1087.39 333.76 L 1087.70 332.90 L 1088.02 331.16 L 1088.33 331.16 L 1088.65 331.16 L 1088.96 331.16 L 1089.28 331.16 L 1089.59 331.16 L 1089.91 330.30 L 1090.23 329.80 L 1090.54 325.96 L 1090.86 321.63 L 1091.17 318.21 L 1091.49 313.66 L 1091.80 309.49 L 1092.12 305.15 L 1092.43 302.55 L 1092.75 299.08 L 1093.06 295.71 L 1093.38 292.14 L 1093.69 287.81 L 1094.01 286.08 L 1094.32 282.61 L 1094.64 278.27 L 1094.95 275.45 L 1095.27 271.76 L 1095.58 269.60 L 1095.90 267.00 L 1096.21 265.27 L 1096.53 260.93 L 1096.84 257.61 L 1097.16 254.86 L 1097.47 252.26 L 1097.79 252.26 L 1098.10 251.39 L 1098.42 250.13 L 1098.73 241.54 L 1099.05 238.39 L 1099.36 234.05 L 1099.68 230.98 L 1099.99 227.11 L 1100.31 224.51 L 1100.62 223.65 L 1100.94 221.91 L 1101.25 218.44 L 1101.57 214.77 L 1101.88 211.51 L 1102.20 209.77 L 1102.51 208.04 L 1102.83 206.30 L 1103.14 202.84 L 1103.46 201.10 L 1103.77 199.01 L 1104.09 198.50 L 1104.40 198.50 L 1104.72 196.77 L 1105.03 194.16 L 1105.35 189.83 L 1105.66 187.23 L 1105.98 184.63 L 1106.29 181.34 L 1106.61 178.90 L 1106.92 179.42 L 1107.24 181.16 L 1107.55 182.03 L 1107.87 182.62 L 1108.18 182.03 L 1108.50 178.56 L 1108.81 175.96 L 1109.13 175.09 L 1109.44 172.49 L 1109.76 172.49 L 1110.08 174.22 L 1110.39 178.56 L 1110.71 180.79 L 1111.02 182.03 L 1111.34 182.95 L 1111.65 186.36 L 1111.97 188.10 L 1112.28 188.10 L 1112.60 187.23 L 1112.91 185.49 L 1113.23 183.76 L 1113.54 185.49 L 1113.86 188.10 L 1114.17 188.96 L 1114.49 188.96 L 1114.80 190.70 L 1115.12 192.43 L 1115.43 192.43 L 1115.75 194.16 L 1116.06 195.90 L 1116.38 196.77 L 1116.69 195.90 L 1117.01 193.34 L 1117.32 189.83 L 1117.64 184.63 L 1117.95 181.16 L 1118.27 177.69 L 1118.58 175.09 L 1118.90 173.35 L 1119.21 173.35 L 1119.53 169.89 L 1119.84 165.55 L 1120.16 162.95 L 1120.47 162.08 L 1120.79 158.61 L 1121.10 156.01 L 1121.42 156.88 L 1121.73 159.89 L 1122.05 163.82 L 1122.36 167.29 L 1122.68 170.75 L 1122.99 175.96 L 1123.31 178.81 L 1123.62 181.16 L 1123.94 181.16 L 1124.25 182.89 L 1124.57 184.63 L 1124.88 185.49 L 1125.20 184.63 L 1125.51 182.89 L 1125.83 183.76 L 1126.14 182.03 L 1126.46 180.29 L 1126.77 179.42 L 1127.09 176.82 L 1127.40 176.82 L 1127.72 175.96 L 1128.03 173.35 L 1128.35 170.75 L 1128.66 169.02 L 1128.98 168.15 L 1129.29 169.89 L 1129.61 167.29 L 1129.92 168.50 L 1130.24 170.75 L 1130.56 171.62 L 1130.87 172.49 L 1131.19 174.22 L 1131.50 173.35 L 1131.82 170.75 L 1132.13 167.29 L 1132.45 167.29 L 1132.76 166.42 L 1133.08 167.53 L 1133.39 168.66 L 1133.71 171.62 L 1134.02 173.35 L 1134.34 174.22 L 1134.65 172.49 L 1134.97 171.62 L 1135.28 171.62 L 1135.60 169.89 L 1135.91 166.42 L 1136.23 166.42 L 1136.54 167.29 L 1136.86 169.02 L 1137.17 170.48 L 1137.49 172.49 L 1137.80 176.87 L 1138.12 182.89 L 1138.43 188.96 L 1138.75 189.83 L 1139.06 188.10 L 1139.38 188.41 L 1139.69 189.83 L 1140.01 191.56 L 1140.32 192.43 L 1140.64 191.56 L 1140.95 188.10 L 1141.27 184.63 L 1141.58 182.03 L 1141.90 180.29 L 1142.21 178.56 L 1142.53 176.82 L 1142.84 177.90 L 1143.16 179.42 L 1143.47 177.69 L 1143.79 178.56 L 1144.10 179.42 L 1144.42 181.16 L 1144.73 183.76 L 1145.05 186.36 L 1145.36 188.96 L 1145.68 191.56 L 1145.99 194.16 L 1146.31 197.63 L 1146.62 201.40 L 1146.94 205.44 L 1147.25 208.91 L 1147.57 212.80 L 1147.88 214.97 L 1148.20 217.58 L 1148.51 221.04 L 1148.83 223.65 L 1149.14 227.98 L 1149.46 232.32 L 1149.77 235.78 L 1150.09 240.12 L 1150.41 243.59 L 1150.72 247.06 L 1151.04 250.52 L 1151.35 254.87 L 1151.67 258.33 L 1151.98 260.93 L 1152.30 265.27 L 1152.61 269.60 L 1152.93 273.07 L 1153.24 276.54 L 1153.56 279.14 L 1153.87 281.74 L 1154.19 284.34 L 1154.50 286.08 L 1154.82 287.81 L 1155.13 288.68 L 1155.45 290.41 L 1155.76 291.28 L 1156.08 291.28 L 1156.39 293.01 L 1156.71 294.75 L 1157.02 296.48 L 1157.34 298.21 L 1157.65 299.08 L 1157.97 299.95 L 1158.28 301.68 L 1158.60 302.55 L 1158.91 301.68 L 1159.23 299.95 L 1159.54 298.21 L 1159.86 295.68 L 1160.17 295.61 L 1160.49 296.64 L 1160.80 298.21 L 1161.12 298.21 L 1161.43 299.08 L 1161.75 299.95 L 1162.06 303.42 L 1162.38 306.02 L 1162.69 305.15 L 1163.01 305.15 L 1163.32 306.89 L 1163.64 307.75 L 1163.95 308.62 L 1164.27 309.49 L 1164.58 310.35 L 1164.90 310.35 L 1165.21 311.22 L 1165.53 312.09 L 1165.84 313.82 L 1166.16 315.56 L 1166.47 316.42 L 1166.79 317.29 L 1167.10 318.16 L 1167.42 319.66 L 1167.73 320.76 L 1168.05 319.89 L 1168.36 317.29 L 1168.68 314.69 L 1168.99 311.22 L 1169.31 310.35 L 1169.62 310.35 L 1169.94 309.49 L 1170.26 308.62 L 1170.57 310.35 L 1170.89 309.49 L 1171.20 309.49 L 1171.52 308.62 L 1171.83 308.62 L 1172.15 306.89 L 1172.46 305.15 L 1172.78 304.28 L 1173.09 304.28 L 1173.41 302.55 L 1173.72 299.95 L 1174.04 299.08 L 1174.35 297.35 L 1174.67 295.61 L 1174.98 293.01 L 1175.30 290.41 L 1175.61 290.41 L 1175.93 288.68 L 1176.24 286.89 L 1176.56 284.34 L 1176.87 282.08 L 1177.19 280.01 L 1177.50 277.40 L 1177.82 275.67 L 1178.13 273.94 L 1178.45 271.33 L 1178.76 269.60 L 1179.08 268.73 L 1179.39 267.00 L 1179.71 265.27 L 1180.02 263.53 L 1180.34 260.93 L 1180.65 260.06 L 1180.97 257.46 L 1181.28 255.73 L 1181.60 253.99 L 1181.91 251.39 L 1182.23 249.66 L 1182.54 247.06 L 1182.86 245.32 L 1183.17 241.85 L 1183.49 237.52 L 1183.80 234.92 L 1184.12 232.32 L 1184.43 230.58 L 1184.75 229.72 L 1185.06 228.85 L 1185.38 227.11 L 1185.69 225.38 L 1186.01 225.30 L 1186.32 228.85 L 1186.64 231.45 L 1186.95 233.18 L 1187.27 234.05 L 1187.58 233.52 L 1187.90 232.32 L 1188.21 231.45 L 1188.53 229.72 L 1188.84 229.72 L 1189.16 228.85 L 1189.47 227.11 L 1189.79 226.25 L 1190.11 227.11 L 1190.42 227.33 L 1190.74 228.85 L 1191.05 230.58 L 1191.37 232.32 L 1191.68 232.32 L 1192.00 230.58 L 1192.31 229.72 L 1192.63 227.98 L 1192.94 225.97 L 1193.26 223.65 L 1193.57 221.91 L 1193.89 221.91 L 1194.20 222.78 L 1194.52 221.91 L 1194.83 220.18 L 1195.15 217.58 L 1195.46 214.97 L 1195.78 211.90 L 1196.09 210.64 L 1196.41 210.64 L 1196.72 210.64 L 1197.04 212.37 L 1197.35 212.37 L 1197.67 209.77 L 1197.98 208.91 L 1198.30 208.04 L 1198.61 208.04 L 1198.93 208.91 L 1199.24 210.64 L 1199.56 212.37 L 1199.87 212.37 L 1200.19 210.64 L 1200.50 211.51 L 1200.82 210.64 L 1201.13 210.64 L 1201.45 208.91 L 1201.76 207.21 L 1202.08 205.44 L 1202.39 203.70 L 1202.71 201.97 L 1203.02 200.23 L 1203.34 199.37 L 1203.65 197.63 L 1203.97 195.03 L 1204.28 193.30 L 1204.60 191.56 L 1204.91 191.56 L 1205.23 189.83 L 1205.54 187.23 L 1205.86 183.76 L 1206.17 179.42 L 1206.49 176.82 L 1206.80 173.35 L 1207.12 171.62 L 1207.43 170.75 L 1207.75 169.89 L 1208.06 166.42 L 1208.38 164.68 L 1208.69 162.95 L 1209.01 162.08 L 1209.32 162.08 L 1209.64 163.82 L 1209.95 166.42 L 1210.27 169.02 L 1210.59 172.49 L 1210.90 175.96 L 1211.22 179.42 L 1211.53 183.76 L 1211.85 187.75 L 1212.16 189.83 L 1212.48 189.83 L 1212.79 190.70 L 1213.11 193.30 L 1213.42 198.50 L 1213.74 202.84 L 1214.05 207.17 L 1214.37 211.51 L 1214.68 214.97 L 1215.00 216.99 L 1215.31 219.31 L 1215.63 220.18 L 1215.94 221.04 L 1216.26 221.04 L 1216.57 221.91 L 1216.89 221.04 L 1217.20 221.12 L 1217.52 224.51 L 1217.83 227.11 L 1218.15 229.72 L 1218.46 230.58 L 1218.78 230.58 L 1219.09 232.19 L 1219.41 234.05 L 1219.72 235.78 L 1220.04 235.78 L 1220.35 234.05 L 1220.67 231.45 L 1220.98 230.58 L 1221.30 229.72 L 1221.61 228.85 L 1221.93 227.98 L 1222.24 231.45 L 1222.56 234.05 L 1222.87 234.92 L 1223.19 236.65 L 1223.50 236.65 L 1223.82 234.92 L 1224.13 234.05 L 1224.45 234.92 L 1224.76 235.78 L 1225.08 235.78 L 1225.39 234.92 L 1225.71 232.98 L 1226.02 229.45 L 1226.34 227.98 L 1226.65 227.98 L 1226.97 230.58 L 1227.28 229.72 L 1227.60 227.11 L 1227.91 223.65 L 1228.23 222.78 L 1228.54 223.65 L 1228.86 222.78 L 1229.17 221.04 L 1229.49 217.88 L 1229.80 214.11 L 1230.12 210.97 L 1230.44 210.64 L 1230.75 209.43 L 1231.07 208.91 L 1231.38 211.51 L 1231.70 214.97 L 1232.01 218.70 L 1232.33 222.78 L 1232.64 227.98 L 1232.96 235.56 L 1233.27 240.37 L 1233.59 246.57 L 1233.90 254.86 L 1234.22 261.90 L 1234.53 269.60 L 1234.85 273.94 L 1235.16 276.54 L 1235.48 279.14 L 1235.79 281.74 L 1236.11 280.01 L 1236.42 275.67 L 1236.74 273.07 L 1237.05 271.33 L 1237.37 270.47 L 1237.68 268.73 L 1238.00 264.40 L 1238.31 262.66 L 1238.63 261.80 L 1238.94 260.06 L 1239.26 260.06 L 1239.57 260.06 L 1239.89 260.93 L 1240.20 262.66 L 1240.52 266.13 L 1240.83 271.59 L 1241.15 277.40 L 1241.46 280.64 L 1241.78 282.61 L 1242.09 286.94 L 1242.41 289.54 L 1242.72 288.15 L 1243.04 286.08 L 1243.35 283.47 L 1243.67 279.14 L 1243.98 275.67 L 1244.30 271.33 L 1244.61 266.13 L 1244.93 260.06 L 1245.24 253.13 L 1245.56 245.32 L 1245.87 240.55 L 1246.19 236.65 L 1246.50 233.18 L 1246.82 229.72 L 1247.13 224.51 L 1247.45 220.18 L 1247.76 214.97 L 1248.08 213.24 L 1248.39 214.11 L 1248.71 215.84 L 1249.02 217.58 L 1249.34 219.31 L 1249.65 220.18 L 1249.97 221.04 L 1250.29 220.18 L 1250.60 218.44 L 1250.92 218.44 L 1251.23 218.44 L 1251.55 218.44 L 1251.86 218.44 L 1252.18 215.84 L 1252.49 214.97 L 1252.81 214.11 L 1253.12 213.24 L 1253.44 214.11 L 1253.75 214.97 L 1254.07 215.80 L 1254.38 218.44 L 1254.70 221.04 L 1255.01 223.65 L 1255.33 224.51 L 1255.64 226.25 L 1255.96 227.98 L 1256.27 227.98 L 1256.59 229.72 L 1256.90 229.72 L 1257.22 230.58 L 1257.53 228.85 L 1257.85 227.11 L 1258.16 224.51 L 1258.48 223.65 L 1258.79 221.91 L 1259.11 219.52 L 1259.42 218.44 L 1259.74 220.18 L 1260.05 220.18 L 1260.37 222.65 L 1260.68 224.51 L 1261.00 225.38 L 1261.31 223.65 L 1261.63 220.18 L 1261.94 216.71 L 1262.26 214.97 L 1262.57 214.11 L 1262.89 212.37 L 1263.20 209.77 L 1263.52 208.04 L 1263.83 205.69 L 1264.15 205.44 L 1264.46 207.17 L 1264.78 208.91 L 1265.09 209.77 L 1265.41 208.04 L 1265.72 206.30 L 1266.04 202.99 L 1266.35 199.37 L 1266.67 194.35 L 1266.98 191.56 L 1267.30 194.16 L 1267.61 195.03 L 1267.93 195.03 L 1268.24 193.30 L 1268.56 189.83 L 1268.87 185.49 L 1269.19 182.89 L 1269.50 182.89 L 1269.82 182.89 L 1270.14 182.89 L 1270.45 182.03 L 1270.77 180.29 L 1271.08 181.16 L 1271.40 179.42 L 1271.71 176.82 L 1272.03 176.82 L 1272.34 176.82 L 1272.66 178.56 L 1272.97 181.16 L 1273.29 182.89 L 1273.60 182.89 L 1273.92 182.89 L 1274.23 182.89 L 1274.55 182.89 L 1274.86 181.16 L 1275.18 180.29 L 1275.49 181.16 L 1275.81 181.16 L 1276.12 181.16 L 1276.44 182.03 L 1276.75 183.76 L 1277.07 183.76 L 1277.38 183.76 L 1277.70 182.89 L 1278.01 183.76 L 1278.33 184.63 L 1278.64 184.63 L 1278.96 182.03 L 1279.27 179.42 L 1279.59 176.82 L 1279.90 174.22 L 1280.22 170.75 L 1280.53 168.15 L 1280.85 165.55 L 1281.16 160.87 L 1281.48 158.61 L 1281.79 156.01 L 1282.11 153.59 L 1282.42 151.68 L 1282.74 153.41 L 1283.05 156.88 L 1283.37 161.22 L 1283.68 166.42 L 1284.00 170.75 L 1284.31 174.28 L 1284.63 180.29 L 1284.94 187.81 L 1285.26 194.16 L 1285.57 198.50 L 1285.89 201.97 L 1286.20 204.57 L 1286.52 207.17 L 1286.83 209.77 L 1287.15 210.64 L 1287.46 210.64 L 1287.78 209.77 L 1288.09 208.69 L 1288.41 208.91 L 1288.72 211.51 L 1289.04 214.11 L 1289.35 217.58 L 1289.67 222.16 L 1289.98 226.25 L 1290.30 234.85 L 1290.62 246.13 L 1290.93 250.52 L 1291.25 252.26 L 1291.56 254.57 L 1291.88 259.20 L 1292.19 267.00 L 1292.51 271.33 L 1292.82 273.94 L 1293.14 272.20 L 1293.45 277.14 L 1293.77 277.40 L 1294.08 283.92 L 1294.40 286.94 L 1294.71 292.14 L 1295.03 296.48 L 1295.34 295.61 L 1295.66 295.00 L 1295.97 297.35 L 1296.29 302.02 L 1296.60 306.13 L 1296.92 310.99 L 1297.23 315.56 L 1297.55 319.02 L 1297.86 324.75 L 1298.18 328.56 L 1298.49 329.41 L 1298.81 331.85 L 1299.12 336.71 L 1299.44 339.83 L 1299.75 347.64 L 1300.07 348.50 L 1300.38 352.82 L 1300.70 356.31 L 1301.01 359.78 L 1301.33 363.25 L 1301.64 364.98 L 1301.96 366.51 L 1302.27 368.02 L 1302.59 370.18 L 1302.90 373.65 L 1303.22 376.25 L 1303.53 378.85 L 1303.85 380.59 L 1304.16 382.32 L 1304.48 384.92 L 1304.79 388.82 L 1305.11 392.73 L 1305.42 397.60 L 1305.74 401.40 L 1306.05 403.40 L 1306.37 404.00 L 1306.68 404.00 L 1307.00 403.13 L 1307.31 401.40 L 1307.63 398.80 L 1307.94 398.80 L 1308.26 398.80 L 1308.57 398.80 L 1308.89 398.80 L 1309.20 398.80 L 1309.52 398.31 L 1309.83 397.93 L 1310.15 397.06 L 1310.47 396.19 L 1310.78 395.33 L 1311.10 393.59 L 1311.41 391.86 L 1311.73 390.12 L 1312.04 388.39 L 1312.36 386.66 L 1312.67 384.92 L 1312.99 383.19 L 1313.30 380.59 L 1313.62 378.85 L 1313.93 376.25 L 1314.25 372.78 L 1314.56 367.58 L 1314.88 362.38 L 1315.19 358.04 L 1315.51 354.57 L 1315.82 353.67 L 1316.14 353.00 L 1316.45 351.97 L 1316.77 351.11 L 1317.08 351.97 L 1317.40 351.97 L 1317.71 352.84 L 1318.03 352.84 L 1318.34 353.71 L 1318.66 355.83 L 1318.97 356.31 L 1319.29 356.31 L 1319.60 356.47 L 1319.92 358.04 L 1320.23 358.91 L 1320.55 361.51 L 1320.86 364.98 L 1321.18 369.31 L 1321.49 373.65 L 1321.81 377.99 L 1322.12 382.75 L 1322.44 387.23 L 1322.75 391.45 L 1323.07 393.59 L 1323.38 393.59 L 1323.70 395.73 L 1324.01 400.53 L 1324.33 401.40 L 1324.64 401.08 L 1324.96 399.66 L 1325.27 395.33 L 1325.59 384.06 L 1325.90 378.37 L 1326.22 369.31 L 1326.53 356.31 L 1326.85 346.77 L 1327.16 341.57 L 1327.48 337.23 L 1327.79 335.50 L 1328.11 334.63 L 1328.42 330.60 L 1328.74 332.90 L 1329.05 338.10 L 1329.37 345.90 L 1329.68 350.59 L 1330.00 353.71 L 1330.00 470.00 Z" fill="url(#profileGrad)" stroke="#3A6B5C" stroke-width="1.5" stroke-linejoin="round"/>
<line x1="70" y1="470" x2="1330" y2="470" stroke="#7A8A8A" stroke-width="1.5"/>
<line x1="70.0" y1="470" x2="70.0" y2="475" stroke="#7A8A8A" stroke-width="1.5"/>
<text x="70.0" y="488" font-family="Arial, sans-serif" font-size="11" fill="#2C3E50" text-anchor="middle" font-weight="600">0</text>
<line x1="196.0" y1="470" x2="196.0" y2="475" stroke="#7A8A8A" stroke-width="1.5"/>
<text x="196.0" y="488" font-family="Arial, sans-serif" font-size="11" fill="#2C3E50" text-anchor="middle" font-weight="600">10</text>
<line x1="322.0" y1="470" x2="322.0" y2="475" stroke="#7A8A8A" stroke-width="1.5"/>
<text x="322.0" y="488" font-family="Arial, sans-serif" font-size="11" fill="#2C3E50" text-anchor="middle" font-weight="600">20</text>
<line x1="448.0" y1="470" x2="448.0" y2="475" stroke="#7A8A8A" stroke-width="1.5"/>
<text x="448.0" y="488" font-family="Arial, sans-serif" font-size="11" fill="#2C3E50" text-anchor="middle" font-weight="600">30</text>
<line x1="574.0" y1="470" x2="574.0" y2="475" stroke="#7A8A8A" stroke-width="1.5"/>
<text x="574.0" y="488" font-family="Arial, sans-serif" font-size="11" fill="#2C3E50" text-anchor="middle" font-weight="600">40</text>
<line x1="700.0" y1="470" x2="700.0" y2="475" stroke="#7A8A8A" stroke-width="1.5"/>
<text x="700.0" y="488" font-family="Arial, sans-serif" font-size="11" fill="#2C3E50" text-anchor="middle" font-weight="600">50</text>
<line x1="826.0" y1="470" x2="826.0" y2="475" stroke="#7A8A8A" stroke-width="1.5"/>
<text x="826.0" y="488" font-family="Arial, sans-serif" font-size="11" fill="#2C3E50" text-anchor="middle" font-weight="600">60</text>
<line x1="952.0" y1="470" x2="952.0" y2="475" stroke="#7A8A8A" stroke-width="1.5"/>
<text x="952.0" y="488" font-family="Arial, sans-serif" font-size="11" fill="#2C3E50" text-anchor="middle" font-weight="600">70</text>
<line x1="1078.0" y1="470" x2="1078.0" y2="475" stroke="#7A8A8A" stroke-width="1.5"/>
<text x="1078.0" y="488" font-family="Arial, sans-serif" font-size="11" fill="#2C3E50" text-anchor="middle" font-weight="600">80</text>
<line x1="1204.0" y1="470" x2="1204.0" y2="475" stroke="#7A8A8A" stroke-width="1.5"/>
<text x="1204.0" y="488" font-family="Arial, sans-serif" font-size="11" fill="#2C3E50" text-anchor="middle" font-weight="600">90</text>
<line x1="1330.0" y1="470" x2="1330.0" y2="475" stroke="#7A8A8A" stroke-width="1.5"/>
<text x="1330.0" y="488" font-family="Arial, sans-serif" font-size="11" fill="#2C3E50" text-anchor="middle" font-weight="600">100</text>
<text x="700.0" y="505" font-family="Arial, sans-serif" font-size="10" fill="#7A8A8A" text-anchor="middle" letter-spacing="3">MILES</text>
<line x1="70.0" y1="356.1" x2="70.0" y2="520" stroke="#E8E8E8" stroke-width="1" stroke-dasharray="2,2"/>
<g class="station-marker" data-index="0" style="cursor:pointer">
<circle cx="70.0" cy="351.1" r="8" fill="#9B6B9E" opacity="0.15"/>
<circle cx="70.0" cy="351.1" r="5" fill="#9B6B9E" stroke="#B88ABB" stroke-width="1.5"/>
</g>
<text x="70.0" y="595" font-family="Arial, sans-serif" font-size="10" fill="#2C3E50" text-anchor="end" transform="rotate(-50 70.0 595)" font-weight="600">Convention Center</text>
<text x="74.0" y="607" font-family="Arial, sans-serif" font-size="8" fill="#7A8A8A" text-anchor="end" transform="rotate(-50 74.0 607)">mi 0</text>
<line x1="110.3" y1="225.2" x2="110.3" y2="520" stroke="#E8E8E8" stroke-width="1" stroke-dasharray="2,2"/>
<g class="station-marker" data-index="1" style="cursor:pointer">
<circle cx="110.3" cy="220.2" r="4" fill="#8AABA3" stroke="#fff" stroke-width="1"/>
</g>
<text x="110.3" y="595" font-family="Arial, sans-serif" font-size="10" fill="#2C3E50" text-anchor="end" transform="rotate(-50 110.3 595)" font-weight="600">Powerlines</text>
<text x="114.3" y="607" font-family="Arial, sans-serif" font-size="8" fill="#7A8A8A" text-anchor="end" transform="rotate(-50 114.3 607)">mi 3.2</text>
<line x1="216.2" y1="259.0" x2="216.2" y2="520" stroke="#E8E8E8" stroke-width="1" stroke-dasharray="2,2"/>
<g class="station-marker" data-index="2" style="cursor:pointer">
<circle cx="216.2" cy="254.0" r="4" fill="#8AABA3" stroke="#fff" stroke-width="1"/>
</g>
<text x="216.2" y="595" font-family="Arial, sans-serif" font-size="10" fill="#2C3E50" text-anchor="end" transform="rotate(-50 216.2 595)" font-weight="600">Stover</text>
<text x="220.2" y="607" font-family="Arial, sans-serif" font-size="8" fill="#7A8A8A" text-anchor="end" transform="rotate(-50 220.2 607)">mi 11.6</text>
<line x1="306.9" y1="316.2" x2="306.9" y2="520" stroke="#E8E8E8" stroke-width="1" stroke-dasharray="2,2"/>
<g class="station-marker" data-index="3" style="cursor:pointer">
<circle cx="306.9" cy="311.2" r="8" fill="#9B6B9E" opacity="0.15"/>
<circle cx="306.9" cy="311.2" r="5" fill="#9B6B9E" stroke="#B88ABB" stroke-width="1.5"/>
</g>
<text x="306.9" y="595" font-family="Arial, sans-serif" font-size="10" fill="#2C3E50" text-anchor="end" transform="rotate(-50 306.9 595)" font-weight="600">Snake</text>
<text x="310.9" y="607" font-family="Arial, sans-serif" font-size="8" fill="#7A8A8A" text-anchor="end" transform="rotate(-50 310.9 607)">mi 18.8</text>
<line x1="388.8" y1="359.6" x2="388.8" y2="520" stroke="#E8E8E8" stroke-width="1" stroke-dasharray="2,2"/>
<g class="station-marker" data-index="4" style="cursor:pointer">
<circle cx="388.8" cy="354.6" r="4" fill="#8AABA3" stroke="#fff" stroke-width="1"/>
</g>
<text x="388.8" y="595" font-family="Arial, sans-serif" font-size="10" fill="#2C3E50" text-anchor="end" transform="rotate(-50 388.8 595)" font-weight="600">Pocket Rd.</text>
<text x="392.8" y="607" font-family="Arial, sans-serif" font-size="8" fill="#7A8A8A" text-anchor="end" transform="rotate(-50 392.8 607)">mi 25.3</text>
<line x1="430.4" y1="149.7" x2="430.4" y2="520" stroke="#E8E8E8" stroke-width="1" stroke-dasharray="2,2"/>
<g class="station-marker" data-index="5" style="cursor:pointer">
<circle cx="430.4" cy="144.7" r="4" fill="#8AABA3" stroke="#fff" stroke-width="1"/>
</g>
<text x="430.4" y="595" font-family="Arial, sans-serif" font-size="10" fill="#2C3E50" text-anchor="end" transform="rotate(-50 430.4 595)" font-weight="600">John's Mtn</text>
<text x="434.4" y="607" font-family="Arial, sans-serif" font-size="8" fill="#7A8A8A" text-anchor="end" transform="rotate(-50 434.4 607)">mi 28.6</text>
<line x1="524.9" y1="427.2" x2="524.9" y2="520" stroke="#E8E8E8" stroke-width="1" stroke-dasharray="2,2"/>
<g class="station-marker" data-index="6" style="cursor:pointer">
<circle cx="524.9" cy="422.2" r="8" fill="#9B6B9E" opacity="0.15"/>
<circle cx="524.9" cy="422.2" r="5" fill="#9B6B9E" stroke="#B88ABB" stroke-width="1.5"/>
</g>
<text x="524.9" y="595" font-family="Arial, sans-serif" font-size="10" fill="#2C3E50" text-anchor="end" transform="rotate(-50 524.9 595)" font-weight="600">Dry Creek</text>
<text x="528.9" y="607" font-family="Arial, sans-serif" font-size="8" fill="#7A8A8A" text-anchor="end" transform="rotate(-50 528.9 607)">mi 36.1</text>
<line x1="609.3" y1="413.3" x2="609.3" y2="520" stroke="#E8E8E8" stroke-width="1" stroke-dasharray="2,2"/>
<g class="station-marker" data-index="7" style="cursor:pointer">
<circle cx="609.3" cy="408.3" r="8" fill="#9B6B9E" opacity="0.15"/>
<circle cx="609.3" cy="408.3" r="5" fill="#9B6B9E" stroke="#B88ABB" stroke-width="1.5"/>
</g>
<text x="609.3" y="595" font-family="Arial, sans-serif" font-size="10" fill="#2C3E50" text-anchor="end" transform="rotate(-50 609.3 595)" font-weight="600">Finish Loop #1</text>
<text x="613.3" y="607" font-family="Arial, sans-serif" font-size="8" fill="#7A8A8A" text-anchor="end" transform="rotate(-50 613.3 607)">mi 42.8</text>
<line x1="700.0" y1="422.9" x2="700.0" y2="520" stroke="#E8E8E8" stroke-width="1" stroke-dasharray="2,2"/>
<g class="station-marker" data-index="8" style="cursor:pointer">
<circle cx="700.0" cy="417.9" r="8" fill="#9B6B9E" opacity="0.15"/>
<circle cx="700.0" cy="417.9" r="5" fill="#9B6B9E" stroke="#B88ABB" stroke-width="1.5"/>
</g>
<text x="700.0" y="595" font-family="Arial, sans-serif" font-size="10" fill="#2C3E50" text-anchor="end" transform="rotate(-50 700.0 595)" font-weight="600">Finish Loop #2</text>
<text x="704.0" y="607" font-family="Arial, sans-serif" font-size="8" fill="#7A8A8A" text-anchor="end" transform="rotate(-50 704.0 607)">mi 50</text>
<line x1="790.7" y1="421.1" x2="790.7" y2="520" stroke="#E8E8E8" stroke-width="1" stroke-dasharray="2,2"/>
<g class="station-marker" data-index="9" style="cursor:pointer">
<circle cx="790.7" cy="416.1" r="8" fill="#9B6B9E" opacity="0.15"/>
<circle cx="790.7" cy="416.1" r="5" fill="#9B6B9E" stroke="#B88ABB" stroke-width="1.5"/>
</g>
<text x="790.7" y="595" font-family="Arial, sans-serif" font-size="10" fill="#2C3E50" text-anchor="end" transform="rotate(-50 790.7 595)" font-weight="600">Finish Loop #3</text>
<text x="794.7" y="607" font-family="Arial, sans-serif" font-size="8" fill="#7A8A8A" text-anchor="end" transform="rotate(-50 794.7 607)">mi 57.2</text>
<line x1="875.1" y1="427.2" x2="875.1" y2="520" stroke="#E8E8E8" stroke-width="1" stroke-dasharray="2,2"/>
<g class="station-marker" data-index="10" style="cursor:pointer">
<circle cx="875.1" cy="422.2" r="8" fill="#9B6B9E" opacity="0.15"/>
<circle cx="875.1" cy="422.2" r="5" fill="#9B6B9E" stroke="#B88ABB" stroke-width="1.5"/>
</g>
<text x="875.1" y="595" font-family="Arial, sans-serif" font-size="10" fill="#2C3E50" text-anchor="end" transform="rotate(-50 875.1 595)" font-weight="600">Finish Loop #4</text>
<text x="879.1" y="607" font-family="Arial, sans-serif" font-size="8" fill="#7A8A8A" text-anchor="end" transform="rotate(-50 879.1 607)">mi 63.9</text>
<line x1="969.6" y1="158.4" x2="969.6" y2="520" stroke="#E8E8E8" stroke-width="1" stroke-dasharray="2,2"/>
<g class="station-marker" data-index="11" style="cursor:pointer">
<circle cx="969.6" cy="153.4" r="4" fill="#8AABA3" stroke="#fff" stroke-width="1"/>
</g>
<text x="969.6" y="595" font-family="Arial, sans-serif" font-size="10" fill="#2C3E50" text-anchor="end" transform="rotate(-50 969.6 595)" font-weight="600">John's Mtn</text>
<text x="973.6" y="607" font-family="Arial, sans-serif" font-size="8" fill="#7A8A8A" text-anchor="end" transform="rotate(-50 973.6 607)">mi 71.4</text>
<line x1="1011.2" y1="368.2" x2="1011.2" y2="520" stroke="#E8E8E8" stroke-width="1" stroke-dasharray="2,2"/>
<g class="station-marker" data-index="12" style="cursor:pointer">
<circle cx="1011.2" cy="363.2" r="8" fill="#9B6B9E" opacity="0.15"/>
<circle cx="1011.2" cy="363.2" r="5" fill="#9B6B9E" stroke="#B88ABB" stroke-width="1.5"/>
</g>
<text x="1011.2" y="595" font-family="Arial, sans-serif" font-size="10" fill="#2C3E50" text-anchor="end" transform="rotate(-50 1011.2 595)" font-weight="600">Pocket Rd.</text>
<text x="1015.2" y="607" font-family="Arial, sans-serif" font-size="8" fill="#7A8A8A" text-anchor="end" transform="rotate(-50 1015.2 607)">mi 74.7</text>
<line x1="1093.1" y1="300.7" x2="1093.1" y2="520" stroke="#E8E8E8" stroke-width="1" stroke-dasharray="2,2"/>
<g class="station-marker" data-index="13" style="cursor:pointer">
<circle cx="1093.1" cy="295.7" r="8" fill="#9B6B9E" opacity="0.15"/>
<circle cx="1093.1" cy="295.7" r="5" fill="#9B6B9E" stroke="#B88ABB" stroke-width="1.5"/>
</g>
<text x="1093.1" y="595" font-family="Arial, sans-serif" font-size="10" fill="#2C3E50" text-anchor="end" transform="rotate(-50 1093.1 595)" font-weight="600">Snake Creek</text>
<text x="1097.1" y="607" font-family="Arial, sans-serif" font-size="8" fill="#7A8A8A" text-anchor="end" transform="rotate(-50 1097.1 607)">mi 81.2</text>
<line x1="1183.8" y1="239.9" x2="1183.8" y2="520" stroke="#E8E8E8" stroke-width="1" stroke-dasharray="2,2"/>
<g class="station-marker" data-index="14" style="cursor:pointer">
<circle cx="1183.8" cy="234.9" r="4" fill="#8AABA3" stroke="#fff" stroke-width="1"/>
</g>
<text x="1183.8" y="595" font-family="Arial, sans-serif" font-size="10" fill="#2C3E50" text-anchor="end" transform="rotate(-50 1183.8 595)" font-weight="600">Stover</text>
<text x="1187.8" y="607" font-family="Arial, sans-serif" font-size="8" fill="#7A8A8A" text-anchor="end" transform="rotate(-50 1187.8 607)">mi 88.4</text>
<line x1="1289.7" y1="227.2" x2="1289.7" y2="520" stroke="#E8E8E8" stroke-width="1" stroke-dasharray="2,2"/>
<g class="station-marker" data-index="15" style="cursor:pointer">
<circle cx="1289.7" cy="222.2" r="4" fill="#8AABA3" stroke="#fff" stroke-width="1"/>
</g>
<text x="1289.7" y="595" font-family="Arial, sans-serif" font-size="10" fill="#2C3E50" text-anchor="end" transform="rotate(-50 1289.7 595)" font-weight="600">Powerlines</text>
<text x="1293.7" y="607" font-family="Arial, sans-serif" font-size="8" fill="#7A8A8A" text-anchor="end" transform="rotate(-50 1293.7 607)">mi 96.8</text>
<line x1="1330.0" y1="358.7" x2="1330.0" y2="520" stroke="#E8E8E8" stroke-width="1" stroke-dasharray="2,2"/>
<g class="station-marker" data-index="16" style="cursor:pointer">
<circle cx="1330.0" cy="353.7" r="8" fill="#9B6B9E" opacity="0.15"/>
<circle cx="1330.0" cy="353.7" r="5" fill="#9B6B9E" stroke="#B88ABB" stroke-width="1.5"/>
</g>
<text x="1330.0" y="595" font-family="Arial, sans-serif" font-size="10" fill="#2C3E50" text-anchor="end" transform="rotate(-50 1330.0 595)" font-weight="600">Finish</text>
<text x="1334.0" y="607" font-family="Arial, sans-serif" font-size="8" fill="#7A8A8A" text-anchor="end" transform="rotate(-50 1334.0 607)">mi 100</text>
<rect x="1180" y="104" width="190" height="65" rx="6" fill="#fff" stroke="#E8E8E8" stroke-width="1"/>
<text x="1190" y="118" font-family="Arial, sans-serif" font-size="8" fill="#7A8A8A" font-weight="bold" letter-spacing="2">LEGEND</text>
<circle cx="1196" cy="136" r="4" fill="#9B6B9E" stroke="#B88ABB" stroke-width="1"/>
<text x="1208" y="140" font-family="Arial, sans-serif" font-size="9" fill="#2C3E50">Crew Access / Drop Bags</text>
<circle cx="1196" cy="154" r="3" fill="#8AABA3" stroke="#fff" stroke-width="1"/>
<text x="1208" y="158" font-family="Arial, sans-serif" font-size="9" fill="#2C3E50">Aid Station (No Crew/Drops)</text>
<rect x="65" y="104" width="160" height="65" rx="6" fill="#fff" stroke="#E8E8E8" stroke-width="1"/>
<text x="75" y="118" font-family="Arial, sans-serif" font-size="8" fill="#7A8A8A" font-weight="bold" letter-spacing="2">COURSE STATS</text>
<text x="75" y="136" font-family="Arial, sans-serif" font-size="9" fill="#2C3E50">Distance: 98.7 miles</text>
<text x="75" y="150" font-family="Arial, sans-serif" font-size="9" fill="#2C3E50">Elevation: 764' – 1,870'</text>
<text x="75" y="164" font-family="Arial, sans-serif" font-size="9" fill="#2C3E50">Gain: ~15,000'</text>
<text x="1385" y="690" font-family="Arial, sans-serif" font-size="8" fill="#7A8A8A" text-anchor="end">georgiajewel.com</text>
</svg>