<svg xmlns="http://www.w3.org/2000/svg" viewBox="0 0 1400 700" preserveAspectRatio="xMidYMid meet" shape-rendering="geometricPrecision">
<defs>
  <linearGradient id="profileGrad" x1="0%" y1="0%" x2="0%" y2="100%">
    <stop offset="0%" style="stop-color:#5B9A8B"/>
    <stop offset="50%" style="stop-color:#4A8377"/>
    <stop offset="100%" style="stop-color:#3A6B5C"/>
  </linearGradient>
  <linearGradient id="headerGrad" x1="0%" y1="0%" x2="100%" y2="0%">
    <stop offset="0%" style="stop-color:#4A8377;stop-opacity:0"/>
    <stop offset="50%" style="stop-color:#4A8377;stop-opacity:0.3"/>
    <stop offset="100%" style="stop-color:#4A8377;stop-opacity:0"/>
  </linearGradient>
</defs>
<rect width="100%" height="100%" fill="#FAFAFA"/>
<rect x="0" y="58" width="1400" height="1" fill="url(#headerGrad)"/>
<text x="700.0" y="40" font-family="Georgia, Times, serif" font-size="36" font-weight="bold" fill="#3A6B5C" text-anchor="middle" letter-spacing="4">THE GEORGIA JEWEL</text>
<text x="700.0" y="72" font-family="Arial, sans-serif" font-size="14" fill="#7A8A8A" text-anchor="middle" letter-spacing="3">18 MILE ULTRAMARATHON  •  ELEVATION PROFILE</text>
<line x1="70" y1="470.0" x2="1330" y2="470.0" stroke="#E8E8E8" stroke-width="1"/>
<text x="62" y="474.0" font-family="Arial, sans-serif" font-size="14" fill="#7A8A8A" text-anchor="end">600'</text>
<line x1="70" y1="417.1" x2="1330" y2="417.1" stroke="#E8E8E8" stroke-width="1"/>
<text x="62" y="421.1" font-family="Arial, sans-serif" font-size="14" fill="#7A8A8A" text-anchor="end">800'</text>
<line x1="70" y1="364.3" x2="1330" y2="364.3" stroke="#E8E8E8" stroke-width="1"/>
<text x="62" y="368.3" font-family="Arial, sans-serif" font-size="14" fill="#7A8A8A" text-anchor="end">1,000'</text>
<line x1="70" y1="311.4" x2="1330" y2="311.4" stroke="#E8E8E8" stroke-width="1"/>
<text x="62" y="315.4" font-family="Arial, sans-serif" font-size="14" fill="#7A8A8A" text-anchor="end">1,200'</text>
<line x1="70" y1="258.6" x2="1330" y2="258.6" stroke="#E8E8E8" stroke-width="1"/>
<text x="62" y="262.6" font-family="Arial, sans-serif" font-size="14" fill="#7A8A8A" text-anchor="end">1,400'</text>
<line x1="70" y1="205.7" x2="1330" y2="205.7" stroke="#E8E8E8" stroke-width="1"/>
<text x="62" y="209.7" font-family="Arial, sans-serif" font-size="14" fill="#7A8A8A" text-anchor="end">1,600'</text>
<line x1="70" y1="152.9" x2="1330" y2="152.9" stroke="#E8E8E8" stroke-width="1"/>
<text x="62" y="156.9" font-family="Arial, sans-serif" font-size="14" fill="#7A8A8A" text-anchor="end">1,800'</text>
<line x1="70" y1="100.0" x2="1330" y2="100.0" stroke="#E8E8E8" stroke-width="1"/>
<text x="62" y="104.0" font-family="Arial, sans-serif" font-size="14" fill="#7A8A8A" text-anchor="end">2,000'</text>
<line x1="70.0" y1="100" x2="70.0" y2="470" stroke="#E8E8E8" stroke-width="1" stroke-dasharray="3,5"/>
<line x1="205.5" y1="100" x2="205.5" y2="470" stroke="#E8E8E8" stroke-width="1" stroke-dasharray="3,5"/>
<line x1="341.0" y1="100" x2="341.0" y2="470" stroke="#E8E8E8" stroke-width="1" stroke-dasharray="3,5"/>
<line x1="476.5" y1="100" x2="476.5" y2="470" stroke="#E8E8E8" stroke-width="1" stroke-dasharray="3,5"/>
<line x1="611.9" y1="100" x2="611.9" y2="470" stroke="#E8E8E8" stroke-width="1" stroke-dasharray="3,5"/>
<line x1="747.4" y1="100" x2="747.4" y2="470" stroke="#E8E8E8" stroke-width="1" stroke-dasharray="3,5"/>
<line x1="882.9" y1="100" x2="882.9" y2="470" stroke="#E8E8E8" stroke-width="1" stroke-dasharray="3,5"/>
<line x1="1018.4" y1="100" x2="1018.4" y2="470" stroke="#E8E8E8" stroke-width="1" stroke-dasharray="3,5"/>
<line x1="1153.9" y1="100" x2="1153.9" y2="470" stroke="#E8E8E8" stroke-width="1" stroke-dasharray="3,5"/>
<line x1="1289.4" y1="100" x2="1289.4" y2="470" stroke="#E8E8E8" stroke-width="1" stroke-dasharray="3,5"/>
<path d="M 70.00 470.00 L 70.00 312.09 L 70.00 312.09 L 70.82 312.09 L 71.86 307.75 L 73.89 305.15 L 75.47 299.08 L 77.94 293.01 L 79.21 292.14 L 81.70 284.34 L 82.60 284.34 L 83.73 280.87 L 85.38 280.01 L 88.05 272.20 L 89.48 272.20 L 89.79 270.47 L 91.06 269.60 L 92.37 263.53 L 93.53 260.93 L 94.58 260.93 L 96.99 254.86 L 99.04 253.99 L 101.41 246.19 L 102.94 245.32 L 105.97 240.12 L 106.13 240.99 L 108.29 240.99 L 109.07 239.25 L 110.09 239.25 L 111.18 235.78 L 111.35 236.65 L 112.48 236.65 L 115.11 229.72 L 119.84 221.91 L 120.96 217.58 L 122.63 214.97 L 124.09 214.97 L 126.21 213.24 L 127.18 208.91 L 130.75 201.97 L 132.36 200.23 L 134.60 200.23 L 136.15 194.16 L 138.95 193.30 L 139.83 191.56 L 141.98 192.43 L 142.13 191.56 L 145.33 190.70 L 147.34 184.63 L 150.51 180.29 L 151.29 177.69 L 152.70 176.82 L 153.76 173.35 L 156.21 176.82 L 161.90 178.56 L 163.90 171.62 L 164.82 171.62 L 165.23 169.89 L 166.57 169.89 L 167.49 167.29 L 169.82 167.29 L 173.43 175.09 L 180.24 180.29 L 180.97 182.89 L 182.08 182.03 L 182.27 182.89 L 183.62 182.89 L 184.58 181.16 L 185.71 181.16 L 186.17 179.42 L 188.29 178.56 L 190.05 182.89 L 193.86 182.89 L 196.58 186.36 L 200.01 186.36 L 200.20 185.49 L 201.68 188.96 L 202.92 188.96 L 204.11 190.70 L 205.86 190.70 L 208.78 185.49 L 210.55 177.69 L 211.80 176.82 L 214.40 169.89 L 216.87 166.42 L 218.71 169.02 L 223.51 156.01 L 224.24 157.75 L 225.55 157.75 L 228.27 149.94 L 229.33 151.68 L 230.56 151.68 L 234.99 162.08 L 236.60 163.82 L 237.83 169.89 L 240.54 175.09 L 242.65 175.09 L 242.83 174.22 L 248.14 180.29 L 249.28 180.29 L 251.01 176.82 L 252.56 178.56 L 253.87 178.56 L 255.42 175.09 L 257.48 175.09 L 258.64 171.62 L 260.02 171.62 L 260.19 170.75 L 260.33 171.62 L 262.70 171.62 L 265.34 165.55 L 265.48 166.42 L 266.54 166.42 L 267.46 163.82 L 268.77 163.82 L 269.73 162.08 L 270.22 163.82 L 271.66 163.82 L 272.28 161.22 L 274.08 164.68 L 276.02 166.42 L 277.60 166.42 L 279.28 169.02 L 283.28 169.02 L 285.43 162.08 L 287.08 163.82 L 288.64 163.82 L 289.59 162.08 L 289.74 162.95 L 292.11 163.82 L 293.49 167.29 L 295.85 169.89 L 298.12 169.89 L 300.47 166.42 L 300.93 168.15 L 304.09 167.29 L 305.82 162.95 L 305.97 163.82 L 308.42 162.95 L 309.53 165.55 L 311.25 165.55 L 313.71 169.02 L 318.54 187.23 L 319.87 187.23 L 320.38 185.49 L 322.39 183.76 L 322.54 184.63 L 324.29 184.63 L 328.39 189.83 L 329.25 189.83 L 330.35 186.36 L 332.09 184.63 L 332.79 181.16 L 334.09 181.16 L 335.00 178.56 L 336.39 176.82 L 337.51 176.82 L 339.59 173.35 L 339.73 174.22 L 341.10 174.22 L 341.69 176.82 L 343.91 176.82 L 345.28 175.09 L 345.78 176.82 L 349.58 178.56 L 353.56 187.23 L 357.26 190.70 L 357.91 193.30 L 359.02 193.30 L 365.92 210.64 L 367.75 211.51 L 368.67 214.11 L 370.05 214.11 L 371.51 218.44 L 373.74 221.04 L 375.19 227.11 L 378.81 232.32 L 386.30 251.39 L 387.14 253.13 L 388.32 253.13 L 395.38 269.60 L 400.06 273.94 L 402.15 278.27 L 403.27 278.27 L 404.22 280.01 L 405.80 280.01 L 408.24 283.47 L 411.05 282.61 L 414.46 287.81 L 415.66 287.81 L 416.49 289.54 L 418.50 289.54 L 419.31 291.28 L 420.87 291.28 L 422.94 293.88 L 426.05 293.01 L 426.47 291.28 L 426.62 292.14 L 429.14 291.28 L 430.77 286.94 L 433.03 286.94 L 433.18 286.08 L 434.36 289.54 L 437.05 289.54 L 437.22 290.41 L 441.76 291.28 L 443.58 298.21 L 444.71 298.21 L 446.52 295.61 L 448.12 295.61 L 449.54 298.21 L 453.11 299.08 L 455.15 301.68 L 458.06 302.55 L 458.78 300.82 L 459.24 302.55 L 461.29 302.55 L 465.45 307.75 L 466.70 307.75 L 466.86 306.89 L 469.39 307.75 L 470.31 309.49 L 471.81 309.49 L 472.55 312.09 L 474.74 311.22 L 475.60 308.62 L 478.02 306.02 L 479.34 301.68 L 482.82 302.55 L 483.94 301.68 L 484.99 298.21 L 485.75 298.21 L 486.82 301.68 L 488.89 301.68 L 489.02 300.82 L 494.34 300.82 L 495.27 298.21 L 496.42 298.21 L 498.05 295.61 L 501.27 296.48 L 503.50 292.14 L 504.87 292.14 L 507.12 288.68 L 508.11 288.68 L 510.87 283.47 L 513.30 283.47 L 514.09 281.74 L 515.31 281.74 L 517.21 277.40 L 517.94 278.27 L 520.69 273.07 L 522.69 272.20 L 525.97 267.87 L 527.48 264.40 L 530.78 263.53 L 531.19 261.80 L 532.85 261.80 L 534.51 256.59 L 537.97 255.73 L 541.22 250.52 L 541.99 250.52 L 542.65 247.92 L 543.92 247.92 L 544.62 245.32 L 546.39 245.32 L 546.99 244.46 L 548.29 240.99 L 549.55 240.12 L 550.21 236.65 L 551.59 235.78 L 553.18 232.32 L 555.33 232.32 L 556.86 228.85 L 556.99 229.72 L 558.70 229.72 L 560.31 227.98 L 561.97 227.98 L 564.23 223.65 L 566.97 226.25 L 568.44 230.58 L 571.29 231.45 L 571.43 232.32 L 577.26 231.45 L 577.93 229.72 L 580.05 230.58 L 582.34 227.98 L 583.57 227.98 L 584.38 226.25 L 585.98 227.98 L 587.31 227.98 L 587.46 227.11 L 587.62 227.98 L 588.93 227.98 L 591.50 231.45 L 594.38 232.32 L 596.19 230.58 L 598.06 230.58 L 600.22 227.11 L 601.04 227.11 L 601.37 225.38 L 602.32 225.38 L 602.95 221.91 L 603.07 222.78 L 608.10 223.65 L 609.00 221.91 L 611.17 221.04 L 612.80 217.58 L 613.74 217.58 L 614.89 214.11 L 617.02 212.37 L 617.33 210.64 L 618.09 212.37 L 621.55 211.51 L 622.27 214.11 L 624.24 214.11 L 626.47 209.77 L 628.59 210.64 L 629.41 208.91 L 630.95 208.91 L 635.48 214.11 L 637.30 214.11 L 638.72 211.51 L 640.00 211.51 L 640.14 212.37 L 644.15 212.37 L 644.61 210.64 L 646.70 210.64 L 647.59 208.91 L 648.48 208.91 L 650.43 205.44 L 652.94 204.57 L 653.99 201.97 L 655.63 201.97 L 656.82 199.37 L 658.01 199.37 L 660.52 195.03 L 661.43 195.03 L 661.75 193.30 L 661.89 194.16 L 664.84 194.16 L 665.53 190.70 L 667.40 190.70 L 668.00 189.83 L 670.51 181.16 L 672.33 180.29 L 673.95 175.09 L 675.69 174.22 L 676.35 175.96 L 677.27 175.96 L 680.13 169.89 L 681.63 169.89 L 683.68 166.42 L 684.34 167.29 L 686.15 167.29 L 686.29 166.42 L 688.38 170.75 L 691.27 172.49 L 693.81 181.16 L 695.20 182.03 L 698.30 190.70 L 699.59 190.70 L 702.13 193.30 L 703.12 193.30 L 703.23 192.43 L 703.34 193.30 L 704.50 193.30 L 711.71 214.97 L 713.13 217.58 L 714.70 218.44 L 715.55 221.04 L 716.22 221.91 L 718.20 221.91 L 718.34 222.78 L 721.26 221.91 L 722.10 223.65 L 723.80 223.65 L 724.18 221.91 L 724.30 222.78 L 725.49 222.78 L 730.31 231.45 L 733.73 231.45 L 733.89 230.58 L 737.89 234.92 L 738.37 236.65 L 740.11 236.65 L 742.27 234.92 L 743.65 231.45 L 746.60 231.45 L 746.74 230.58 L 746.86 231.45 L 747.99 231.45 L 750.60 228.85 L 751.31 232.32 L 755.64 237.52 L 760.20 236.65 L 761.02 234.05 L 762.36 234.05 L 763.27 236.65 L 768.11 236.65 L 770.65 231.45 L 772.80 231.45 L 772.94 230.58 L 774.26 230.58 L 775.84 233.18 L 777.38 233.18 L 777.75 231.45 L 779.48 230.58 L 781.72 224.51 L 783.69 225.38 L 784.04 227.11 L 786.19 227.11 L 787.04 224.51 L 788.50 224.51 L 792.12 214.97 L 793.25 214.97 L 793.43 214.11 L 795.38 214.97 L 796.15 212.37 L 796.89 214.11 L 798.39 214.11 L 802.14 225.38 L 803.36 226.25 L 805.31 231.45 L 807.11 240.99 L 808.91 241.85 L 810.89 247.92 L 811.55 248.79 L 813.13 247.92 L 815.87 240.99 L 818.01 242.72 L 819.08 246.19 L 820.21 246.19 L 823.09 253.13 L 823.78 253.13 L 825.85 260.93 L 827.36 260.93 L 827.50 261.80 L 829.27 260.93 L 832.05 271.33 L 834.06 273.07 L 835.15 276.54 L 837.26 276.54 L 837.92 277.40 L 840.88 284.34 L 841.91 284.34 L 844.70 273.94 L 846.81 272.20 L 848.48 272.20 L 849.22 270.47 L 850.44 270.47 L 851.37 267.87 L 854.14 267.00 L 855.14 264.40 L 860.18 264.40 L 860.30 263.53 L 863.90 272.20 L 865.82 280.01 L 868.78 282.61 L 870.93 290.41 L 872.89 290.41 L 876.45 286.08 L 878.50 280.01 L 879.89 279.14 L 884.14 270.47 L 887.42 252.26 L 891.10 241.85 L 891.88 241.85 L 893.84 235.78 L 894.73 235.78 L 896.92 230.58 L 899.42 221.04 L 900.71 219.31 L 902.55 219.31 L 903.26 221.04 L 905.14 220.18 L 905.61 221.91 L 906.60 221.04 L 909.30 226.25 L 910.49 226.25 L 910.66 225.38 L 912.38 226.25 L 913.12 223.65 L 913.79 224.51 L 914.70 223.65 L 915.84 223.65 L 915.95 224.51 L 920.26 223.65 L 921.32 224.51 L 924.54 218.44 L 925.25 219.31 L 926.84 219.31 L 926.93 218.44 L 929.27 219.31 L 929.43 218.44 L 930.22 220.18 L 934.09 221.04 L 935.56 226.25 L 937.57 227.11 L 938.50 229.72 L 941.10 229.72 L 941.97 232.32 L 945.81 231.45 L 947.10 234.92 L 948.14 234.92 L 948.80 233.18 L 949.64 235.78 L 950.85 235.78 L 953.54 231.45 L 954.66 231.45 L 955.13 229.72 L 955.22 230.58 L 956.55 228.85 L 956.66 229.72 L 957.69 229.72 L 957.99 227.98 L 960.03 227.11 L 960.78 224.51 L 961.91 224.51 L 962.41 227.11 L 964.01 225.38 L 965.11 227.98 L 966.58 227.98 L 966.70 227.11 L 968.41 231.45 L 970.41 231.45 L 974.38 222.78 L 975.45 222.78 L 976.64 221.04 L 976.75 221.91 L 978.35 221.91 L 978.92 219.31 L 979.81 220.18 L 980.89 217.58 L 982.65 216.71 L 983.71 214.11 L 984.46 214.11 L 984.99 211.51 L 987.96 216.71 L 992.46 217.58 L 997.19 209.77 L 1000.09 201.10 L 1001.34 201.10 L 1002.53 203.70 L 1006.14 203.70 L 1008.69 200.23 L 1011.93 190.70 L 1012.92 190.70 L 1013.02 191.56 L 1017.14 191.56 L 1017.23 190.70 L 1019.70 190.70 L 1021.03 188.96 L 1021.10 189.83 L 1022.98 189.83 L 1024.72 185.49 L 1025.65 186.36 L 1028.84 185.49 L 1031.29 190.70 L 1041.48 190.70 L 1042.83 188.10 L 1044.63 190.70 L 1046.53 190.70 L 1048.24 188.96 L 1048.86 190.70 L 1051.22 190.70 L 1051.36 191.56 L 1052.23 190.70 L 1056.58 190.70 L 1058.64 192.43 L 1061.72 192.43 L 1064.60 188.10 L 1065.44 188.10 L 1071.09 175.96 L 1072.42 175.96 L 1074.64 168.15 L 1075.28 169.02 L 1075.82 166.42 L 1076.85 166.42 L 1076.96 165.55 L 1077.08 166.42 L 1078.07 166.42 L 1079.60 162.08 L 1080.69 162.08 L 1080.79 161.22 L 1082.67 163.82 L 1086.70 177.69 L 1089.39 181.16 L 1096.41 203.70 L 1098.53 206.30 L 1100.21 211.51 L 1104.87 216.71 L 1106.03 216.71 L 1106.78 214.97 L 1109.12 215.84 L 1110.29 213.24 L 1110.42 214.11 L 1111.50 214.11 L 1111.64 213.24 L 1113.53 218.44 L 1114.65 218.44 L 1121.05 234.05 L 1129.90 262.66 L 1140.10 280.01 L 1143.82 292.14 L 1144.94 292.14 L 1147.96 298.21 L 1148.82 299.08 L 1149.52 298.21 L 1152.63 306.89 L 1153.88 307.75 L 1157.74 316.42 L 1159.49 319.02 L 1160.60 319.02 L 1167.42 335.50 L 1170.84 339.83 L 1173.36 346.77 L 1176.03 359.78 L 1177.02 361.51 L 1179.15 360.64 L 1180.86 364.11 L 1184.34 363.25 L 1186.40 368.45 L 1187.34 368.45 L 1190.71 373.65 L 1192.08 373.65 L 1193.92 379.72 L 1199.08 387.52 L 1200.29 391.86 L 1202.13 391.86 L 1203.05 393.59 L 1208.36 393.59 L 1208.47 392.73 L 1208.63 393.59 L 1210.47 393.59 L 1211.71 390.12 L 1213.31 389.26 L 1213.98 387.52 L 1215.15 390.99 L 1216.14 390.99 L 1218.26 387.52 L 1219.09 390.12 L 1221.54 390.12 L 1222.32 388.39 L 1223.07 389.26 L 1226.38 388.39 L 1227.06 386.66 L 1227.17 387.52 L 1229.25 387.52 L 1231.60 383.19 L 1232.65 384.06 L 1233.77 382.32 L 1234.80 382.32 L 1237.56 377.12 L 1240.29 376.25 L 1244.60 370.18 L 1245.42 370.18 L 1249.02 357.18 L 1252.72 349.37 L 1253.50 348.50 L 1254.14 349.37 L 1255.08 348.50 L 1255.20 349.37 L 1256.87 349.37 L 1258.17 347.64 L 1258.26 348.50 L 1259.13 347.64 L 1262.39 347.64 L 1265.70 350.24 L 1267.14 350.24 L 1269.47 348.50 L 1271.30 351.97 L 1275.52 351.11 L 1275.64 350.24 L 1276.33 352.84 L 1279.69 353.71 L 1283.03 362.38 L 1284.22 362.38 L 1285.75 365.85 L 1286.57 370.18 L 1287.92 371.05 L 1289.50 377.99 L 1290.90 378.85 L 1293.16 385.79 L 1293.90 386.66 L 1296.52 386.66 L 1298.12 390.12 L 1300.84 390.99 L 1302.30 393.59 L 1303.93 393.59 L 1305.88 389.26 L 1311.73 350.24 L 1315.57 335.50 L 1316.15 334.63 L 1316.48 335.50 L 1318.54 335.50 L 1319.97 338.10 L 1320.98 337.23 L 1321.89 339.83 L 1323.25 339.83 L 1323.41 338.97 L 1325.93 344.17 L 1330.00 345.04 L 1330.00 470.00 Z" fill="url(#profileGrad)" stroke="#3A6B5C" stroke-width="1.5" stroke-linejoin="round"/>
<line x1="70" y1="470" x2="1330" y2="470" stroke="#7A8A8A" stroke-width="1.5"/>
<line x1="70.0" y1="470" x2="70.0" y2="475" stroke="#7A8A8A" stroke-width="1.5"/>
<text x="70.0" y="488" font-family="Arial, sans-serif" font-size="14" fill="#2C3E50" text-anchor="middle" font-weight="600">0</text>
<line x1="205.5" y1="470" x2="205.5" y2="475" stroke="#7A8A8A" stroke-width="1.5"/>
<text x="205.5" y="488" font-family="Arial, sans-serif" font-size="14" fill="#2C3E50" text-anchor="middle" font-weight="600">2</text>
<line x1="341.0" y1="470" x2="341.0" y2="475" stroke="#7A8A8A" stroke-width="1.5"/>
<text x="341.0" y="488" font-family="Arial, sans-serif" font-size="14" fill="#2C3E50" text-anchor="middle" font-weight="600">4</text>
<line x1="476.5" y1="470" x2="476.5" y2="475" stroke="#7A8A8A" stroke-width="1.5"/>
<text x="476.5" y="488" font-family="Arial, sans-serif" font-size="14" fill="#2C3E50" text-anchor="middle" font-weight="600">6</text>
<line x1="611.9" y1="470" x2="611.9" y2="475" stroke="#7A8A8A" stroke-width="1.5"/>
<text x="611.9" y="488" font-family="Arial, sans-serif" font-size="14" fill="#2C3E50" text-anchor="middle" font-weight="600">8</text>
<line x1="747.4" y1="470" x2="747.4" y2="475" stroke="#7A8A8A" stroke-width="1.5"/>
<text x="747.4" y="488" font-family="Arial, sans-serif" font-size="14" fill="#2C3E50" text-anchor="middle" font-weight="600">10</text>
<line x1="882.9" y1="470" x2="882.9" y2="475" stroke="#7A8A8A" stroke-width="1.5"/>
<text x="882.9" y="488" font-family="Arial, sans-serif" font-size="14" fill="#2C3E50" text-anchor="middle" font-weight="600">12</text>
<line x1="1018.4" y1="470" x2="1018.4" y2="475" stroke="#7A8A8A" stroke-width="1.5"/>
<text x="1018.4" y="488" font-family="Arial, sans-serif" font-size="14" fill="#2C3E50" text-anchor="middle" font-weight="600">14</text>
<line x1="1153.9" y1="470" x2="1153.9" y2="475" stroke="#7A8A8A" stroke-width="1.5"/>
<text x="1153.9" y="488" font-family="Arial, sans-serif" font-size="14" fill="#2C3E50" text-anchor="middle" font-weight="600">16</text>
<line x1="1289.4" y1="470" x2="1289.4" y2="475" stroke="#7A8A8A" stroke-width="1.5"/>
<text x="1289.4" y="488" font-family="Arial, sans-serif" font-size="14" fill="#2C3E50" text-anchor="middle" font-weight="600">18</text>
<text x="700.0" y="505" font-family="Arial, sans-serif" font-size="13" fill="#7A8A8A" text-anchor="middle" letter-spacing="3">MILES</text>
<line x1="70.0" y1="317.0" x2="70.0" y2="520" stroke="#E8E8E8" stroke-width="1" stroke-dasharray="2,2"/>
<g class="station-marker" data-index="0" style="cursor:pointer">
<circle cx="70.0" cy="312.0" r="14" fill="#9B6B9E" opacity="0.15"/>
<circle cx="70.0" cy="312.0" r="9" fill="#9B6B9E" stroke="#B88ABB" stroke-width="2"/>
</g>
<text x="70.0" y="595" font-family="Arial, sans-serif" font-size="14" fill="#2C3E50" text-anchor="end" transform="rotate(-50 70.0 595)" font-weight="600">Start Snake Creek</text>
<text x="74.0" y="607" font-family="Arial, sans-serif" font-size="11" fill="#7A8A8A" text-anchor="end" transform="rotate(-50 74.0 607)">mi 0.0</text>
<line x1="557.7" y1="234.8" x2="557.7" y2="520" stroke="#E8E8E8" stroke-width="1" stroke-dasharray="2,2"/>
<g class="station-marker" data-index="1" style="cursor:pointer">
<circle cx="557.7" cy="229.8" r="7" fill="#8AABA3" stroke="#fff" stroke-width="1.5"/>
</g>
<text x="557.7" y="595" font-family="Arial, sans-serif" font-size="14" fill="#2C3E50" text-anchor="end" transform="rotate(-50 557.7 595)" font-weight="600">Stover Rd.</text>
<text x="561.7" y="607" font-family="Arial, sans-serif" font-size="11" fill="#7A8A8A" text-anchor="end" transform="rotate(-50 561.7 607)">mi 7.2</text>
<line x1="1113.2" y1="222.6" x2="1113.2" y2="520" stroke="#E8E8E8" stroke-width="1" stroke-dasharray="2,2"/>
<g class="station-marker" data-index="2" style="cursor:pointer">
<circle cx="1113.2" cy="217.6" r="7" fill="#8AABA3" stroke="#fff" stroke-width="1.5"/>
</g>
<text x="1113.2" y="595" font-family="Arial, sans-serif" font-size="14" fill="#2C3E50" text-anchor="end" transform="rotate(-50 1113.2 595)" font-weight="600">Powerlines</text>
<text x="1117.2" y="607" font-family="Arial, sans-serif" font-size="11" fill="#7A8A8A" text-anchor="end" transform="rotate(-50 1117.2 607)">mi 15.4</text>
<line x1="1330.0" y1="350.0" x2="1330.0" y2="520" stroke="#E8E8E8" stroke-width="1" stroke-dasharray="2,2"/>
<g class="station-marker" data-index="3" style="cursor:pointer">
<circle cx="1330.0" cy="345.0" r="14" fill="#9B6B9E" opacity="0.15"/>
<circle cx="1330.0" cy="345.0" r="9" fill="#9B6B9E" stroke="#B88ABB" stroke-width="2"/>
</g>
<text x="1330.0" y="595" font-family="Arial, sans-serif" font-size="14" fill="#2C3E50" text-anchor="end" transform="rotate(-50 1330.0 595)" font-weight="600">Finish</text>
<text x="1334.0" y="607" font-family="Arial, sans-serif" font-size="11" fill="#7A8A8A" text-anchor="end" transform="rotate(-50 1334.0 607)">mi 18.6</text>
<rect x="1170" y="104" width="220" height="75" rx="6" fill="#fff" stroke="#E8E8E8" stroke-width="1"/>
<text x="1182" y="122" font-family="Arial, sans-serif" font-size="11" fill="#7A8A8A" font-weight="bold" letter-spacing="2">LEGEND</text>
<circle cx="1190" cy="143" r="7" fill="#9B6B9E" stroke="#B88ABB" stroke-width="1"/>
<text x="1206" y="148" font-family="Arial, sans-serif" font-size="12" fill="#2C3E50">Crew Access / Drop Bags</text>
<circle cx="1190" cy="165" r="5" fill="#8AABA3" stroke="#fff" stroke-width="1"/>
<text x="1206" y="170" font-family="Arial, sans-serif" font-size="12" fill="#2C3E50">Aid Station (No Crew/Drops)</text>
<rect x="65" y="104" width="200" height="75" rx="6" fill="#fff" stroke="#E8E8E8" stroke-width="1"/>
<text x="77" y="122" font-family="Arial, sans-serif" font-size="11" fill="#7A8A8A" font-weight="bold" letter-spacing="2">COURSE STATS</text>
<text x="77" y="143" font-family="Arial, sans-serif" font-size="12" fill="#2C3E50">Distance: 18.6 miles</text>
<text x="77" y="159" font-family="Arial, sans-serif" font-size="12" fill="#2C3E50">Elevation: 889' – 1,811'</text>
<text x="77" y="175" font-family="Arial, sans-serif" font-size="12" fill="#2C3E50">Gain: ~3,300'</text>
<text x="1385" y="690" font-family="Arial, sans-serif" font-size="8" fill="#7A8A8A" text-anchor="end">georgiajewel.com</text>
</svg>