<svg xmlns="http://www.w3.org/2000/svg" viewBox="0 0 1400 700" preserveAspectRatio="xMidYMid meet" shape-rendering="geometricPrecision">
<defs>
  <linearGradient id="profileGrad" x1="0%" y1="0%" x2="0%" y2="100%">
    <stop offset="0%" style="stop-color:#5B9A8B"/>
    <stop offset="50%" style="stop-color:#4A8377"/>
    <stop offset="100%" style="stop-color:#3A6B5C"/>
  </linearGradient>
  <linearGradient id="headerGrad" x1="0%" y1="0%" x2="100%" y2="0%">
    <stop offset="0%" style="stop-color:#4A8377;stop-opacity:0"/>
    <stop offset="50%" style="stop-color:#4A8377;stop-opacity:0.3"/>
    <stop offset="100%" style="stop-color:#4A8377;stop-opacity:0"/>
  </linearGradient>
</defs>
<rect width="100%" height="100%" fill="#FAFAFA"/>
<rect x="0" y="58" width="1400" height="1" fill="url(#headerGrad)"/>
<text x="700.0" y="40" font-family="Georgia, Times, serif" font-size="36" font-weight="bold" fill="#3A6B5C" text-anchor="middle" letter-spacing="4">THE GEORGIA JEWEL</text>
<text x="700.0" y="72" font-family="Arial, sans-serif" font-size="14" fill="#7A8A8A" text-anchor="middle" letter-spacing="3">35 MILE ULTRAMARATHON  •  ELEVATION PROFILE</text>
<line x1="70" y1="470.0" x2="1330" y2="470.0" stroke="#E8E8E8" stroke-width="1"/>
<text x="62" y="474.0" font-family="Arial, sans-serif" font-size="14" fill="#7A8A8A" text-anchor="end">600'</text>
<line x1="70" y1="417.1" x2="1330" y2="417.1" stroke="#E8E8E8" stroke-width="1"/>
<text x="62" y="421.1" font-family="Arial, sans-serif" font-size="14" fill="#7A8A8A" text-anchor="end">800'</text>
<line x1="70" y1="364.3" x2="1330" y2="364.3" stroke="#E8E8E8" stroke-width="1"/>
<text x="62" y="368.3" font-family="Arial, sans-serif" font-size="14" fill="#7A8A8A" text-anchor="end">1,000'</text>
<line x1="70" y1="311.4" x2="1330" y2="311.4" stroke="#E8E8E8" stroke-width="1"/>
<text x="62" y="315.4" font-family="Arial, sans-serif" font-size="14" fill="#7A8A8A" text-anchor="end">1,200'</text>
<line x1="70" y1="258.6" x2="1330" y2="258.6" stroke="#E8E8E8" stroke-width="1"/>
<text x="62" y="262.6" font-family="Arial, sans-serif" font-size="14" fill="#7A8A8A" text-anchor="end">1,400'</text>
<line x1="70" y1="205.7" x2="1330" y2="205.7" stroke="#E8E8E8" stroke-width="1"/>
<text x="62" y="209.7" font-family="Arial, sans-serif" font-size="14" fill="#7A8A8A" text-anchor="end">1,600'</text>
<line x1="70" y1="152.9" x2="1330" y2="152.9" stroke="#E8E8E8" stroke-width="1"/>
<text x="62" y="156.9" font-family="Arial, sans-serif" font-size="14" fill="#7A8A8A" text-anchor="end">1,800'</text>
<line x1="70" y1="100.0" x2="1330" y2="100.0" stroke="#E8E8E8" stroke-width="1"/>
<text x="62" y="104.0" font-family="Arial, sans-serif" font-size="14" fill="#7A8A8A" text-anchor="end">2,000'</text>
<line x1="70.0" y1="100" x2="70.0" y2="470" stroke="#E8E8E8" stroke-width="1" stroke-dasharray="3,5"/>
<line x1="250.0" y1="100" x2="250.0" y2="470" stroke="#E8E8E8" stroke-width="1" stroke-dasharray="3,5"/>
<line x1="430.0" y1="100" x2="430.0" y2="470" stroke="#E8E8E8" stroke-width="1" stroke-dasharray="3,5"/>
<line x1="610.0" y1="100" x2="610.0" y2="470" stroke="#E8E8E8" stroke-width="1" stroke-dasharray="3,5"/>
<line x1="790.0" y1="100" x2="790.0" y2="470" stroke="#E8E8E8" stroke-width="1" stroke-dasharray="3,5"/>
<line x1="970.0" y1="100" x2="970.0" y2="470" stroke="#E8E8E8" stroke-width="1" stroke-dasharray="3,5"/>
<line x1="1150.0" y1="100" x2="1150.0" y2="470" stroke="#E8E8E8" stroke-width="1" stroke-dasharray="3,5"/>
<line x1="1330.0" y1="100" x2="1330.0" y2="470" stroke="#E8E8E8" stroke-width="1" stroke-dasharray="3,5"/>
<path d="M 70.00 470.00 L 70.00 399.66 L 70.00 399.66 L 74.45 398.80 L 76.80 396.19 L 78.34 397.93 L 81.12 397.06 L 81.22 396.19 L 82.07 397.06 L 82.98 397.06 L 83.06 396.19 L 88.79 397.06 L 89.27 394.46 L 90.42 394.46 L 90.50 393.59 L 91.32 394.46 L 93.15 394.46 L 93.22 393.59 L 93.85 396.19 L 94.53 393.59 L 96.02 394.46 L 97.93 387.52 L 98.68 390.12 L 100.08 390.12 L 101.25 391.86 L 101.84 394.46 L 103.47 393.59 L 104.60 396.19 L 106.59 396.19 L 107.17 393.59 L 109.64 394.46 L 110.84 391.86 L 112.72 397.06 L 113.42 397.06 L 116.94 381.45 L 117.73 381.45 L 118.82 384.92 L 120.32 384.92 L 124.10 367.58 L 127.17 380.59 L 131.43 383.19 L 132.36 388.39 L 134.86 390.99 L 136.71 397.06 L 139.66 397.93 L 139.71 398.80 L 140.66 398.80 L 140.76 397.93 L 143.05 398.80 L 144.55 400.53 L 145.30 404.00 L 150.08 404.00 L 154.03 390.12 L 158.84 380.59 L 163.06 364.11 L 164.06 364.11 L 164.46 362.38 L 165.47 363.25 L 167.93 355.44 L 170.10 352.84 L 171.41 347.64 L 172.23 347.64 L 172.87 349.37 L 173.16 352.84 L 174.28 352.84 L 174.34 351.97 L 174.86 354.57 L 175.59 353.71 L 175.64 354.57 L 177.13 354.57 L 178.96 351.11 L 179.68 351.97 L 180.03 349.37 L 180.43 351.11 L 181.48 351.11 L 181.83 348.50 L 183.25 348.50 L 188.56 357.18 L 193.46 358.91 L 198.49 344.17 L 199.77 344.17 L 201.00 345.90 L 202.81 345.90 L 204.48 351.97 L 206.64 351.97 L 207.66 354.57 L 208.64 354.57 L 211.91 333.76 L 212.63 335.50 L 213.65 335.50 L 214.60 332.03 L 215.35 332.03 L 217.51 321.63 L 220.21 318.16 L 223.59 306.89 L 224.34 307.75 L 224.66 305.15 L 225.78 304.28 L 234.42 267.87 L 236.11 266.13 L 238.90 255.73 L 239.56 256.59 L 241.65 256.59 L 242.45 254.86 L 243.63 256.59 L 246.70 249.66 L 248.52 249.66 L 249.28 253.13 L 250.79 252.26 L 252.60 257.46 L 253.62 257.46 L 254.39 254.86 L 256.01 257.46 L 256.08 256.59 L 257.91 256.59 L 259.06 252.26 L 259.90 252.26 L 260.14 250.52 L 261.28 250.52 L 262.81 259.20 L 263.97 260.06 L 265.80 265.27 L 267.63 264.40 L 269.95 273.07 L 271.28 273.07 L 273.19 268.73 L 273.86 271.33 L 276.87 271.33 L 279.55 274.80 L 281.43 271.33 L 286.95 248.79 L 288.66 247.92 L 290.88 250.52 L 291.61 248.79 L 292.43 248.79 L 292.63 247.06 L 294.88 247.06 L 294.95 247.92 L 296.24 247.06 L 301.78 214.97 L 320.33 144.74 L 322.79 132.60 L 324.50 128.27 L 326.41 129.13 L 328.00 127.40 L 329.62 127.40 L 329.83 125.67 L 330.40 127.40 L 332.34 127.40 L 332.41 128.27 L 334.28 129.13 L 339.18 141.27 L 340.28 141.27 L 342.58 150.81 L 343.41 150.81 L 344.71 155.15 L 346.56 155.15 L 346.79 156.88 L 348.00 156.88 L 348.50 158.61 L 349.23 157.75 L 350.61 158.61 L 354.14 155.15 L 354.20 156.01 L 354.83 155.15 L 357.79 155.15 L 357.86 156.01 L 359.34 156.01 L 359.43 155.15 L 360.14 156.01 L 362.58 149.08 L 366.19 145.61 L 367.33 146.48 L 368.23 149.94 L 370.64 149.08 L 370.72 148.21 L 372.49 149.08 L 372.70 147.34 L 374.09 147.34 L 374.50 149.08 L 375.44 149.08 L 377.53 145.61 L 378.79 145.61 L 379.99 148.21 L 387.70 175.09 L 391.94 205.44 L 395.44 218.44 L 396.93 230.58 L 399.12 230.58 L 399.54 231.45 L 402.43 246.19 L 404.21 249.66 L 405.01 249.66 L 405.23 247.92 L 405.92 263.53 L 407.87 266.13 L 408.79 259.20 L 410.98 253.13 L 411.90 262.66 L 415.39 268.73 L 420.40 317.29 L 422.51 325.09 L 424.67 345.90 L 429.55 361.51 L 430.24 361.51 L 434.01 371.05 L 434.77 371.05 L 437.33 378.85 L 439.97 378.85 L 443.48 365.85 L 447.27 358.04 L 449.03 358.04 L 454.53 375.38 L 455.56 375.38 L 455.64 374.52 L 455.71 375.38 L 456.95 375.38 L 457.04 374.52 L 458.32 376.25 L 458.84 374.52 L 462.55 373.65 L 463.99 370.18 L 464.46 371.05 L 466.76 371.05 L 466.83 370.18 L 466.89 371.05 L 468.40 371.05 L 468.49 370.18 L 470.04 370.18 L 472.47 364.98 L 476.93 364.11 L 478.45 360.64 L 479.94 360.64 L 481.24 358.04 L 483.96 358.04 L 484.06 358.91 L 485.23 358.91 L 485.53 360.64 L 489.99 361.51 L 493.69 351.11 L 495.04 351.11 L 495.82 353.71 L 498.47 353.71 L 499.09 351.11 L 499.90 351.11 L 500.34 354.57 L 501.41 354.57 L 502.74 358.91 L 504.17 358.91 L 504.27 358.04 L 505.58 358.91 L 510.76 344.17 L 511.77 344.17 L 511.84 345.04 L 513.74 344.17 L 514.50 345.04 L 516.90 352.84 L 518.59 353.71 L 520.86 365.85 L 521.74 364.98 L 522.77 367.58 L 524.89 377.99 L 529.91 369.31 L 531.28 362.38 L 534.05 363.25 L 535.71 372.78 L 537.79 375.38 L 538.82 366.71 L 540.00 364.98 L 541.22 356.31 L 542.83 352.84 L 545.28 338.97 L 547.71 337.23 L 549.15 327.69 L 550.59 325.96 L 552.94 313.82 L 557.11 301.68 L 560.37 285.21 L 567.92 262.66 L 570.22 261.80 L 570.77 258.33 L 573.29 268.73 L 574.63 268.73 L 577.60 254.86 L 579.55 253.13 L 581.27 257.46 L 582.35 257.46 L 582.82 260.06 L 584.15 260.06 L 585.08 265.27 L 586.21 266.13 L 587.50 260.06 L 590.10 255.73 L 592.03 255.73 L 592.42 254.86 L 594.78 239.25 L 596.60 233.18 L 597.71 233.18 L 597.95 234.92 L 601.30 235.78 L 602.51 230.58 L 605.12 226.25 L 610.58 199.37 L 612.68 214.97 L 614.53 221.04 L 615.40 221.04 L 617.56 213.24 L 620.42 221.04 L 625.70 247.92 L 628.00 268.73 L 632.61 254.86 L 633.74 256.59 L 634.91 256.59 L 635.92 259.20 L 636.85 259.20 L 636.92 258.33 L 637.84 258.33 L 639.01 253.13 L 639.63 253.99 L 643.04 274.80 L 643.94 273.94 L 645.34 274.80 L 646.61 280.01 L 648.23 282.61 L 657.26 329.43 L 657.79 328.56 L 660.56 336.37 L 661.85 345.04 L 664.19 345.90 L 666.27 340.70 L 667.09 340.70 L 667.65 342.44 L 672.17 312.09 L 682.19 267.00 L 683.31 266.13 L 684.49 260.06 L 686.87 258.33 L 689.64 253.13 L 691.57 238.39 L 693.31 231.45 L 696.09 225.38 L 698.43 214.11 L 700.31 210.64 L 701.67 203.70 L 703.26 201.10 L 703.62 202.84 L 705.93 201.10 L 710.85 182.89 L 712.38 183.76 L 713.38 186.36 L 715.20 186.36 L 716.53 179.42 L 717.79 178.56 L 719.41 173.35 L 721.21 176.82 L 722.09 182.03 L 723.23 184.63 L 724.69 184.63 L 726.45 190.70 L 728.33 189.83 L 730.15 186.36 L 731.01 190.70 L 731.71 191.56 L 732.21 190.70 L 733.68 191.56 L 734.65 194.16 L 736.52 194.16 L 737.83 198.50 L 739.41 198.50 L 740.98 194.16 L 743.43 179.42 L 745.61 172.49 L 746.82 172.49 L 748.89 160.35 L 750.56 157.75 L 752.33 149.94 L 753.69 151.68 L 755.58 160.35 L 756.79 161.22 L 758.77 172.49 L 760.18 172.49 L 762.11 177.69 L 763.53 178.56 L 764.14 175.96 L 764.90 175.09 L 764.96 175.96 L 766.31 175.96 L 766.98 173.35 L 768.62 172.49 L 769.77 166.42 L 771.49 165.55 L 773.59 156.01 L 774.79 154.28 L 776.11 155.15 L 776.63 150.81 L 778.34 155.15 L 780.45 156.01 L 780.91 157.75 L 782.10 157.75 L 783.71 149.94 L 785.92 148.21 L 786.34 149.94 L 787.91 150.81 L 788.84 155.15 L 790.55 156.01 L 791.64 152.54 L 793.54 152.54 L 795.52 145.61 L 798.47 149.94 L 802.04 172.49 L 803.17 171.62 L 803.73 169.02 L 804.61 169.02 L 805.39 172.49 L 807.74 174.22 L 811.75 160.35 L 814.01 157.75 L 814.60 160.35 L 815.78 160.35 L 816.13 158.61 L 816.50 159.48 L 817.69 158.61 L 819.04 161.22 L 823.44 176.82 L 825.61 191.56 L 826.96 195.90 L 828.04 196.77 L 833.39 228.85 L 837.35 245.32 L 837.99 245.32 L 839.35 257.46 L 840.40 258.33 L 840.92 262.66 L 842.16 264.40 L 845.12 274.80 L 846.87 275.67 L 848.42 280.01 L 849.71 278.27 L 851.34 284.34 L 853.37 286.94 L 854.83 291.28 L 856.48 291.28 L 856.99 289.54 L 858.46 289.54 L 859.45 285.21 L 860.82 284.34 L 861.16 286.94 L 862.63 286.94 L 862.88 288.68 L 864.39 288.68 L 866.66 295.61 L 867.94 295.61 L 868.61 293.88 L 869.27 298.21 L 872.79 299.95 L 873.06 301.68 L 874.42 301.68 L 874.47 300.82 L 874.85 302.55 L 877.16 304.28 L 877.99 308.62 L 879.41 308.62 L 879.84 310.35 L 880.91 309.49 L 882.79 315.56 L 886.41 301.68 L 888.38 301.68 L 889.08 299.08 L 889.49 301.68 L 890.73 301.68 L 891.74 299.95 L 892.09 300.82 L 894.10 299.95 L 895.20 295.61 L 897.73 294.75 L 899.41 290.41 L 900.80 289.54 L 902.86 281.74 L 904.86 280.01 L 912.22 258.33 L 913.80 257.46 L 915.04 254.86 L 917.03 247.92 L 919.12 245.32 L 923.17 234.92 L 925.50 223.65 L 927.97 217.58 L 929.59 217.58 L 930.07 216.71 L 931.72 211.51 L 932.31 210.64 L 933.05 211.51 L 933.85 217.58 L 935.67 221.04 L 937.37 221.04 L 939.34 217.58 L 941.41 217.58 L 942.65 213.24 L 944.19 213.24 L 945.51 214.97 L 947.13 219.31 L 948.81 219.31 L 949.85 216.71 L 950.65 216.71 L 953.34 208.91 L 955.21 208.91 L 955.29 209.77 L 956.64 208.91 L 957.28 205.44 L 959.24 201.97 L 960.02 196.77 L 961.26 195.03 L 961.64 196.77 L 963.02 195.90 L 963.47 198.50 L 964.74 198.50 L 965.57 195.03 L 968.26 192.43 L 971.32 199.37 L 972.42 195.90 L 973.22 196.77 L 976.21 195.90 L 984.57 175.96 L 985.24 175.09 L 986.57 175.96 L 991.37 156.01 L 992.67 152.54 L 994.16 152.54 L 997.73 142.14 L 999.07 143.01 L 1001.80 149.94 L 1006.26 172.49 L 1008.85 173.35 L 1009.11 174.22 L 1013.29 199.37 L 1014.04 199.37 L 1015.45 204.57 L 1016.43 204.57 L 1016.51 205.44 L 1019.49 205.44 L 1019.91 204.57 L 1023.97 216.71 L 1025.06 214.97 L 1027.07 221.04 L 1028.48 221.91 L 1029.93 220.18 L 1030.63 216.71 L 1031.71 216.71 L 1031.92 214.97 L 1033.00 214.97 L 1033.64 212.37 L 1035.31 219.31 L 1037.32 221.04 L 1037.74 222.78 L 1039.61 221.91 L 1040.26 220.18 L 1041.23 221.91 L 1044.10 221.91 L 1045.76 214.11 L 1046.70 213.24 L 1047.93 217.58 L 1048.79 217.58 L 1051.57 208.91 L 1052.58 210.64 L 1054.31 209.77 L 1057.74 195.90 L 1059.19 195.90 L 1059.55 194.16 L 1060.71 194.16 L 1065.64 223.65 L 1068.33 233.18 L 1070.21 247.92 L 1071.52 247.06 L 1072.98 259.20 L 1074.41 265.27 L 1075.95 267.87 L 1076.67 273.07 L 1077.53 273.94 L 1079.93 260.06 L 1082.33 256.59 L 1084.51 249.66 L 1086.57 247.92 L 1088.44 250.52 L 1092.80 276.54 L 1093.44 278.27 L 1094.66 278.27 L 1096.44 273.94 L 1098.38 264.40 L 1102.17 231.45 L 1109.20 195.90 L 1110.46 196.77 L 1111.19 199.37 L 1112.05 199.37 L 1113.08 203.70 L 1114.09 202.84 L 1114.47 204.57 L 1115.31 204.57 L 1116.31 201.97 L 1120.67 201.97 L 1121.80 198.50 L 1124.55 198.50 L 1125.26 200.23 L 1126.26 199.37 L 1129.04 208.91 L 1129.41 209.77 L 1130.80 209.77 L 1131.30 213.24 L 1132.77 213.24 L 1133.51 216.71 L 1136.03 216.71 L 1141.66 202.84 L 1142.34 204.57 L 1144.55 205.44 L 1145.73 209.77 L 1147.25 209.77 L 1148.95 201.10 L 1151.09 198.50 L 1154.41 188.10 L 1155.55 187.23 L 1156.79 191.56 L 1159.03 191.56 L 1163.25 173.35 L 1163.94 173.35 L 1164.62 175.96 L 1167.30 175.09 L 1169.76 162.95 L 1172.40 162.95 L 1172.57 161.22 L 1173.37 162.95 L 1174.22 159.48 L 1176.05 159.48 L 1177.06 155.15 L 1177.35 156.01 L 1179.15 156.01 L 1181.83 162.95 L 1185.48 162.95 L 1186.46 159.48 L 1187.59 161.22 L 1188.39 161.22 L 1188.82 159.48 L 1190.73 163.82 L 1191.62 162.95 L 1192.23 163.82 L 1194.00 163.82 L 1194.28 162.95 L 1195.39 164.68 L 1196.96 164.68 L 1202.88 144.74 L 1204.68 134.34 L 1207.44 128.27 L 1211.89 147.34 L 1215.61 175.09 L 1219.87 187.23 L 1221.97 187.23 L 1222.04 186.36 L 1222.63 187.23 L 1224.13 185.49 L 1226.42 192.43 L 1235.34 246.19 L 1236.31 249.66 L 1237.03 249.66 L 1241.25 272.20 L 1245.23 282.61 L 1248.57 299.95 L 1252.43 312.95 L 1256.34 331.16 L 1258.96 351.11 L 1260.57 351.97 L 1260.99 354.57 L 1262.68 354.57 L 1264.16 358.04 L 1273.02 390.12 L 1276.34 388.39 L 1278.25 383.19 L 1279.06 384.06 L 1280.05 384.06 L 1280.12 383.19 L 1284.15 383.19 L 1284.54 381.45 L 1286.77 380.59 L 1293.23 362.38 L 1294.81 360.64 L 1298.94 338.10 L 1300.23 335.50 L 1303.31 335.50 L 1303.37 336.37 L 1304.79 336.37 L 1305.27 338.10 L 1309.99 338.97 L 1310.19 340.70 L 1310.93 340.70 L 1320.37 381.45 L 1322.53 382.32 L 1323.08 384.92 L 1325.18 384.92 L 1330.00 327.69 L 1330.00 470.00 Z" fill="url(#profileGrad)" stroke="#3A6B5C" stroke-width="1.5" stroke-linejoin="round"/>
<line x1="70" y1="470" x2="1330" y2="470" stroke="#7A8A8A" stroke-width="1.5"/>
<line x1="70.0" y1="470" x2="70.0" y2="475" stroke="#7A8A8A" stroke-width="1.5"/>
<text x="70.0" y="488" font-family="Arial, sans-serif" font-size="14" fill="#2C3E50" text-anchor="middle" font-weight="600">0</text>
<line x1="250.0" y1="470" x2="250.0" y2="475" stroke="#7A8A8A" stroke-width="1.5"/>
<text x="250.0" y="488" font-family="Arial, sans-serif" font-size="14" fill="#2C3E50" text-anchor="middle" font-weight="600">5</text>
<line x1="430.0" y1="470" x2="430.0" y2="475" stroke="#7A8A8A" stroke-width="1.5"/>
<text x="430.0" y="488" font-family="Arial, sans-serif" font-size="14" fill="#2C3E50" text-anchor="middle" font-weight="600">10</text>
<line x1="610.0" y1="470" x2="610.0" y2="475" stroke="#7A8A8A" stroke-width="1.5"/>
<text x="610.0" y="488" font-family="Arial, sans-serif" font-size="14" fill="#2C3E50" text-anchor="middle" font-weight="600">15</text>
<line x1="790.0" y1="470" x2="790.0" y2="475" stroke="#7A8A8A" stroke-width="1.5"/>
<text x="790.0" y="488" font-family="Arial, sans-serif" font-size="14" fill="#2C3E50" text-anchor="middle" font-weight="600">20</text>
<line x1="970.0" y1="470" x2="970.0" y2="475" stroke="#7A8A8A" stroke-width="1.5"/>
<text x="970.0" y="488" font-family="Arial, sans-serif" font-size="14" fill="#2C3E50" text-anchor="middle" font-weight="600">25</text>
<line x1="1150.0" y1="470" x2="1150.0" y2="475" stroke="#7A8A8A" stroke-width="1.5"/>
<text x="1150.0" y="488" font-family="Arial, sans-serif" font-size="14" fill="#2C3E50" text-anchor="middle" font-weight="600">30</text>
<line x1="1330.0" y1="470" x2="1330.0" y2="475" stroke="#7A8A8A" stroke-width="1.5"/>
<text x="1330.0" y="488" font-family="Arial, sans-serif" font-size="14" fill="#2C3E50" text-anchor="middle" font-weight="600">35</text>
<text x="700.0" y="505" font-family="Arial, sans-serif" font-size="13" fill="#7A8A8A" text-anchor="middle" letter-spacing="3">MILES</text>
<line x1="70.0" y1="404.7" x2="70.0" y2="520" stroke="#E8E8E8" stroke-width="1" stroke-dasharray="2,2"/>
<g class="station-marker" data-index="0" style="cursor:pointer">
<circle cx="70.0" cy="399.7" r="14" fill="#9B6B9E" opacity="0.15"/>
<circle cx="70.0" cy="399.7" r="9" fill="#9B6B9E" stroke="#B88ABB" stroke-width="2"/>
</g>
<text x="70.0" y="595" font-family="Arial, sans-serif" font-size="14" fill="#2C3E50" text-anchor="end" transform="rotate(-50 70.0 595)" font-weight="600">START Dry Creek</text>
<text x="74.0" y="607" font-family="Arial, sans-serif" font-size="11" fill="#7A8A8A" text-anchor="end" transform="rotate(-50 74.0 607)">mi 0.0</text>
<line x1="340.0" y1="146.2" x2="340.0" y2="520" stroke="#E8E8E8" stroke-width="1" stroke-dasharray="2,2"/>
<g class="station-marker" data-index="1" style="cursor:pointer">
<circle cx="340.0" cy="141.2" r="7" fill="#8AABA3" stroke="#fff" stroke-width="1.5"/>
</g>
<text x="340.0" y="595" font-family="Arial, sans-serif" font-size="14" fill="#2C3E50" text-anchor="end" transform="rotate(-50 340.0 595)" font-weight="600">John's Mtn</text>
<text x="344.0" y="607" font-family="Arial, sans-serif" font-size="11" fill="#7A8A8A" text-anchor="end" transform="rotate(-50 344.0 607)">mi 7.5</text>
<line x1="458.8" y1="379.9" x2="458.8" y2="520" stroke="#E8E8E8" stroke-width="1" stroke-dasharray="2,2"/>
<g class="station-marker" data-index="2" style="cursor:pointer">
<circle cx="458.8" cy="374.9" r="7" fill="#8AABA3" stroke="#fff" stroke-width="1.5"/>
</g>
<text x="458.8" y="595" font-family="Arial, sans-serif" font-size="14" fill="#2C3E50" text-anchor="end" transform="rotate(-50 458.8 595)" font-weight="600">Pocket Road</text>
<text x="462.8" y="607" font-family="Arial, sans-serif" font-size="11" fill="#7A8A8A" text-anchor="end" transform="rotate(-50 462.8 607)">mi 10.8</text>
<line x1="692.8" y1="238.7" x2="692.8" y2="520" stroke="#E8E8E8" stroke-width="1" stroke-dasharray="2,2"/>
<g class="station-marker" data-index="3" style="cursor:pointer">
<circle cx="692.8" cy="233.7" r="7" fill="#8AABA3" stroke="#fff" stroke-width="1.5"/>
</g>
<text x="692.8" y="595" font-family="Arial, sans-serif" font-size="14" fill="#2C3E50" text-anchor="end" transform="rotate(-50 692.8 595)" font-weight="600">Snake Creek</text>
<text x="696.8" y="607" font-family="Arial, sans-serif" font-size="11" fill="#7A8A8A" text-anchor="end" transform="rotate(-50 696.8 607)">mi 17.3</text>
<line x1="952.0" y1="217.3" x2="952.0" y2="520" stroke="#E8E8E8" stroke-width="1" stroke-dasharray="2,2"/>
<g class="station-marker" data-index="4" style="cursor:pointer">
<circle cx="952.0" cy="212.3" r="7" fill="#8AABA3" stroke="#fff" stroke-width="1.5"/>
</g>
<text x="952.0" y="595" font-family="Arial, sans-serif" font-size="14" fill="#2C3E50" text-anchor="end" transform="rotate(-50 952.0 595)" font-weight="600">Stover</text>
<text x="956.0" y="607" font-family="Arial, sans-serif" font-size="11" fill="#7A8A8A" text-anchor="end" transform="rotate(-50 956.0 607)">mi 24.5</text>
<line x1="1254.4" y1="327.8" x2="1254.4" y2="520" stroke="#E8E8E8" stroke-width="1" stroke-dasharray="2,2"/>
<g class="station-marker" data-index="5" style="cursor:pointer">
<circle cx="1254.4" cy="322.8" r="7" fill="#8AABA3" stroke="#fff" stroke-width="1.5"/>
</g>
<text x="1254.4" y="595" font-family="Arial, sans-serif" font-size="14" fill="#2C3E50" text-anchor="end" transform="rotate(-50 1254.4 595)" font-weight="600">Powerlines</text>
<text x="1258.4" y="607" font-family="Arial, sans-serif" font-size="11" fill="#7A8A8A" text-anchor="end" transform="rotate(-50 1258.4 607)">mi 32.9</text>
<line x1="1330.0" y1="332.8" x2="1330.0" y2="520" stroke="#E8E8E8" stroke-width="1" stroke-dasharray="2,2"/>
<g class="station-marker" data-index="6" style="cursor:pointer">
<circle cx="1330.0" cy="327.8" r="14" fill="#9B6B9E" opacity="0.15"/>
<circle cx="1330.0" cy="327.8" r="9" fill="#9B6B9E" stroke="#B88ABB" stroke-width="2"/>
</g>
<text x="1330.0" y="595" font-family="Arial, sans-serif" font-size="14" fill="#2C3E50" text-anchor="end" transform="rotate(-50 1330.0 595)" font-weight="600">Convention Center</text>
<text x="1334.0" y="607" font-family="Arial, sans-serif" font-size="11" fill="#7A8A8A" text-anchor="end" transform="rotate(-50 1334.0 607)">mi 35.0</text>
<rect x="1170" y="104" width="220" height="75" rx="6" fill="#fff" stroke="#E8E8E8" stroke-width="1"/>
<text x="1182" y="122" font-family="Arial, sans-serif" font-size="11" fill="#7A8A8A" font-weight="bold" letter-spacing="2">LEGEND</text>
<circle cx="1190" cy="143" r="7" fill="#9B6B9E" stroke="#B88ABB" stroke-width="1"/>
<text x="1206" y="148" font-family="Arial, sans-serif" font-size="12" fill="#2C3E50">Crew Access / Drop Bags</text>
<circle cx="1190" cy="165" r="5" fill="#8AABA3" stroke="#fff" stroke-width="1"/>
<text x="1206" y="170" font-family="Arial, sans-serif" font-size="12" fill="#2C3E50">Aid Station (No Crew/Drops)</text>
<rect x="65" y="104" width="200" height="75" rx="6" fill="#fff" stroke="#E8E8E8" stroke-width="1"/>
<text x="77" y="122" font-family="Arial, sans-serif" font-size="11" fill="#7A8A8A" font-weight="bold" letter-spacing="2">COURSE STATS</text>
<text x="77" y="143" font-family="Arial, sans-serif" font-size="12" fill="#2C3E50">Distance: 35.0 miles</text>
<text x="77" y="159" font-family="Arial, sans-serif" font-size="12" fill="#2C3E50">Elevation: 850' – 1,903'</text>
<text x="77" y="175" font-family="Arial, sans-serif" font-size="12" fill="#2C3E50">Gain: ~6,500'</text>
<text x="1385" y="690" font-family="Arial, sans-serif" font-size="8" fill="#7A8A8A" text-anchor="end">georgiajewel.com</text>
</svg>